<svg width="41" height="58" viewBox="0 0 41 58" fill="none" xmlns="http://www.w3.org/2000/svg">
<path d="M35.6706 12.219V26.1024C36.4839 25.4661 37.2144 24.7355 37.8508 23.9222C39.549 21.757 40.5657 19.0271 40.5657 16.0674V12.219H35.6706ZM11.9592 53.1048V58H16.8544V53.1048H11.9592ZM24.408 0C21.7721 0 19.2342 0.421736 16.8544 1.19743C15.1298 1.75849 13.4918 2.50782 11.9592 3.42284C4.80477 7.67785 0 15.495 0 24.408V58H2.82036C3.96883 58 4.89515 57.0736 4.89515 55.9289V24.408C4.89515 18.3794 7.64396 12.9759 11.9592 9.39492C13.424 8.17489 15.0733 7.16951 16.8544 6.41641C19.1814 5.43738 21.7307 4.89515 24.408 4.89515H38.2876C39.5453 4.89515 40.5657 3.8747 40.5657 2.61702V0H24.408Z" fill="#884C42"/>
<path d="M24.709 12.219C21.7456 12.219 19.0194 13.2357 16.8542 14.9339C13.9209 17.2309 12.0193 20.7855 11.959 24.7769V57.9999H16.8542V24.9652C16.8542 24.9087 16.8542 24.8522 16.858 24.7995V24.7769C16.8617 24.487 16.8843 24.2008 16.9257 23.9222C17.4341 20.0814 20.7327 17.1141 24.709 17.1141H35.6704V26.1024C36.4837 25.466 37.2142 24.7355 37.8506 23.9222C39.5488 21.757 40.5655 19.027 40.5655 16.0673V12.219H24.709Z" fill="#884C42"/>
<path opacity="0.1" d="M23.1842 26.5806C20.9927 26.5806 18.869 26.8856 16.8582 27.4579H16.8544C15.1298 27.9474 13.4956 28.6328 11.9593 29.4875C9.218 31.005 6.81561 33.0685 4.89521 35.5274C1.83009 39.4623 6.10352e-05 44.4027 6.10352e-05 49.7685V57.9999H2.82042C3.9689 57.9999 4.89521 57.0736 4.89521 55.9289V47.1101C4.89521 41.2509 7.66285 36.0282 11.9593 32.6769V35.3353C13.4278 34.1906 15.0771 33.2643 16.8544 32.6054V29.9469C18.8275 29.2164 20.9588 28.8173 23.1842 28.8173H27.8158C30.4855 28.8173 32.967 27.9926 35.0154 26.5806H23.1842Z" fill="black"/>
<path d="M24.709 12.219C21.7456 12.219 19.0193 13.2357 16.8542 14.9339V23.9222H16.9257C17.4341 20.0814 20.7327 17.1141 24.709 17.1141H35.6704V26.1024C36.4837 25.466 37.2142 24.7355 37.8506 23.9222C39.5488 21.757 40.5655 19.027 40.5655 16.0673V12.219H24.709Z" fill="#884C42"/>
<path d="M35.6704 12.219V16.0673C35.6704 16.4213 35.6478 16.7715 35.5988 17.1141C35.0867 20.9512 31.7919 23.9222 27.8156 23.9222H23.184C20.9925 23.9222 18.8687 24.2272 16.858 24.7995C16.8542 24.8522 16.8542 24.9087 16.8542 24.9652V28.8173H27.8156C30.4853 28.8173 32.9668 27.9927 35.0152 26.5806C35.2373 26.43 35.4557 26.2681 35.6704 26.1024C36.4837 25.466 37.2142 24.7355 37.8506 23.9222C39.5488 21.757 40.5655 19.027 40.5655 16.0673V12.219H35.6704Z" fill="#884C42"/>
<path d="M11.9593 53.1045V57.9996H16.8544V53.1045H11.9593ZM23.1842 23.9219C20.9927 23.9219 18.869 24.2269 16.8582 24.7992C15.1336 25.2888 13.4956 25.9741 11.9593 26.8288C9.218 28.3463 6.81561 30.4098 4.89521 32.8687C1.83009 36.8036 6.10352e-05 41.744 6.10352e-05 47.1098V57.9996H2.74511C3.93124 57.9996 4.89521 57.0357 4.89521 55.8495V47.1098C4.89521 41.2507 7.66285 36.0279 11.9593 32.6767C13.4278 31.5319 15.0771 30.6056 16.8544 29.9467C18.8276 29.2162 20.9588 28.817 23.1842 28.817H27.8158C30.4855 28.817 32.967 27.9924 35.0154 26.5803C35.2376 26.4297 35.456 26.2678 35.6706 26.1021C36.484 25.4657 37.2145 24.7352 37.8508 23.9219H23.1842Z" fill="#884C42"/>
<path d="M24.7429 31.4762C24.4643 31.6155 24.1894 31.7624 23.9183 31.913C21.177 33.4305 18.7746 35.494 16.8542 37.9529C14.0828 41.5113 12.3205 45.8868 12.0118 50.6577C11.9779 51.166 11.959 51.6781 11.959 52.194V55.5528H16.8542V52.194C16.8542 46.3349 19.6218 41.1121 23.9183 37.7608C24.2082 37.5349 24.5057 37.3203 24.8069 37.1132C25.7709 36.4504 26.347 35.3584 26.347 34.1874V30.7419C25.801 30.9641 25.2663 31.2089 24.7429 31.4762Z" fill="#884C42"/>
</svg>
