<svg width="30" height="30" viewBox="0 0 30 30" fill="none" xmlns="http://www.w3.org/2000/svg">
<path fill-rule="evenodd" clip-rule="evenodd" d="M0 2.72727C0 2.00396 0.287337 1.31026 0.7988 0.7988C1.31026 0.287337 2.00396 0 2.72727 0H11.5909C12.3142 0 13.0079 0.287337 13.5194 0.7988C14.0308 1.31026 14.3182 2.00396 14.3182 2.72727V11.5909C14.3182 12.3142 14.0308 13.0079 13.5194 13.5194C13.0079 14.0308 12.3142 14.3182 11.5909 14.3182H8.18182V19.8586C8.18182 20.9386 9.06 21.8182 10.1427 21.8182H15.6818V18.4091C15.6818 17.6858 15.9692 16.9921 16.4806 16.4806C16.9921 15.9692 17.6858 15.6818 18.4091 15.6818H27.2727C27.996 15.6818 28.6897 15.9692 29.2012 16.4806C29.7127 16.9921 30 17.6858 30 18.4091V27.2727C30 27.996 29.7127 28.6897 29.2012 29.2012C28.6897 29.7127 27.996 30 27.2727 30H18.4091C17.6858 30 16.9921 29.7127 16.4806 29.2012C15.9692 28.6897 15.6818 27.996 15.6818 27.2727V23.8636H10.1414C9.07905 23.8633 8.06036 23.441 7.30932 22.6897C6.55827 21.9384 6.13636 20.9196 6.13636 19.8573V14.3182H2.72727C2.00396 14.3182 1.31026 14.0308 0.7988 13.5194C0.287337 13.0079 0 12.3142 0 11.5909V2.72727ZM2.72727 2.04545C2.54644 2.04545 2.37302 2.11729 2.24515 2.24515C2.11729 2.37302 2.04545 2.54644 2.04545 2.72727V11.5909C2.04545 11.7717 2.11729 11.9452 2.24515 12.073C2.37302 12.2009 2.54644 12.2727 2.72727 12.2727H11.5909C11.7717 12.2727 11.9452 12.2009 12.073 12.073C12.2009 11.9452 12.2727 11.7717 12.2727 11.5909V2.72727C12.2727 2.54644 12.2009 2.37302 12.073 2.24515C11.9452 2.11729 11.7717 2.04545 11.5909 2.04545H2.72727ZM18.4091 17.7273C18.2283 17.7273 18.0548 17.7991 17.927 17.927C17.7991 18.0548 17.7273 18.2283 17.7273 18.4091V27.2727C17.7273 27.4536 17.7991 27.627 17.927 27.7548C18.0548 27.8827 18.2283 27.9545 18.4091 27.9545H27.2727C27.4536 27.9545 27.627 27.8827 27.7548 27.7548C27.8827 27.627 27.9545 27.4536 27.9545 27.2727V18.4091C27.9545 18.2283 27.8827 18.0548 27.7548 17.927C27.627 17.7991 27.4536 17.7273 27.2727 17.7273H18.4091Z" fill="#884C42"/>
</svg>
