<svg width="16" height="16" viewBox="0 0 16 16" fill="none" xmlns="http://www.w3.org/2000/svg">
<path d="M9.72803 13.1875H6.27197C6.01309 13.1875 5.80322 12.9776 5.80322 12.7188V10.1968H3.28125C3.02237 10.1968 2.8125 9.98691 2.8125 9.72803V6.27197C2.8125 6.01309 3.02237 5.80322 3.28125 5.80322H5.80322V3.28125C5.80322 3.02237 6.01309 2.8125 6.27197 2.8125H9.72803C9.98691 2.8125 10.1968 3.02237 10.1968 3.28125V5.80322H12.7188C12.9776 5.80322 13.1875 6.01309 13.1875 6.27197V9.72803C13.1875 9.98691 12.9776 10.1968 12.7188 10.1968H10.1968V12.7188C10.1968 12.9776 9.98691 13.1875 9.72803 13.1875ZM6.74072 12.25H9.25928V9.72803C9.25928 9.46916 9.46916 9.25928 9.72803 9.25928H12.25V6.74072H9.72803C9.46916 6.74072 9.25928 6.53084 9.25928 6.27197V3.75H6.74072V6.27197C6.74072 6.53084 6.53084 6.74072 6.27197 6.74072H3.75V9.25928H6.27197C6.53084 9.25928 6.74072 9.46916 6.74072 9.72803V12.25Z" fill="black"/>
<path d="M8 16C5.86312 16 3.85416 15.1678 2.34313 13.6568C0.832156 12.1458 0 10.1369 0 8C0 5.86312 0.832156 3.85416 2.34313 2.34316C3.85416 0.832156 5.86312 0 8 0C10.1369 0 12.1458 0.832156 13.6569 2.34316C15.1678 3.85416 16 5.86312 16 8C16 10.1369 15.1678 12.1458 13.6569 13.6568C12.1458 15.1678 10.1369 16 8 16ZM8 0.9375C6.11353 0.9375 4.34 1.67212 3.00606 3.00606C1.67212 4.34 0.9375 6.11353 0.9375 8C0.9375 9.88647 1.67212 11.66 3.00606 12.9939C4.33997 14.3279 6.11353 15.0625 8 15.0625C9.88647 15.0625 11.66 14.3279 12.9939 12.9939C14.3279 11.66 15.0625 9.88647 15.0625 8C15.0625 6.11353 14.3279 4.34 12.9939 3.00606C11.66 1.67212 9.88647 0.9375 8 0.9375Z" fill="black"/>
</svg>
