<svg width="16" height="17" viewBox="0 0 16 17" fill="none" xmlns="http://www.w3.org/2000/svg">
<path d="M6.85835 16.7959C6.85796 16.7959 6.85747 16.7959 6.85698 16.7959C6.3563 16.7955 5.8855 16.6002 5.53159 16.2457L0.546826 11.2538C-0.182275 10.5233 -0.182275 9.33477 0.546826 8.60439L7.26636 1.87197C7.95884 1.17812 8.88023 0.795898 9.86069 0.795898H14.1239C15.1577 0.795898 15.9989 1.63691 15.9989 2.6709V6.921C15.9989 7.90078 15.617 8.82178 14.9239 9.51416L8.18345 16.2476C7.82935 16.6012 7.35874 16.7959 6.85835 16.7959ZM9.86069 2.0459C9.2146 2.0459 8.60747 2.29775 8.15112 2.75498L1.43149 9.4874C1.18843 9.73096 1.18843 10.1271 1.43149 10.3706L6.41626 15.3625C6.53413 15.4806 6.69097 15.5458 6.85796 15.5459H6.85845C7.02524 15.5459 7.18208 15.481 7.30005 15.3632L14.0405 8.62988C14.4973 8.17363 14.7489 7.5666 14.7489 6.921V2.6709C14.7489 2.32627 14.4685 2.0459 14.1239 2.0459H9.86069ZM11.4675 7.13965C10.4336 7.13965 9.59253 6.29863 9.59253 5.26465C9.59253 4.23066 10.4336 3.38965 11.4675 3.38965C12.5014 3.38965 13.3425 4.23066 13.3425 5.26465C13.3425 6.29863 12.5014 7.13965 11.4675 7.13965ZM11.4675 4.63965C11.1229 4.63965 10.8425 4.92002 10.8425 5.26465C10.8425 5.60928 11.1229 5.88965 11.4675 5.88965C11.8123 5.88965 12.0925 5.60928 12.0925 5.26465C12.0925 4.92002 11.8123 4.63965 11.4675 4.63965Z" fill="#151515"/>
</svg>
