<svg width="16" height="17" viewBox="0 0 16 17" fill="none" xmlns="http://www.w3.org/2000/svg">
<path d="M15.3913 3.75696L8.32603 0.177049L8.32309 0.17558C8.0085 0.0189549 7.63469 0.0224549 7.32303 0.184955L4.29275 1.7932C4.26813 1.80364 4.24447 1.8163 4.22181 1.83086L0.5905 3.75811C0.22625 3.94883 0 4.32252 0 4.7338V11.3863C0 11.7976 0.22625 12.1713 0.5905 12.362L7.32003 15.9336L7.32306 15.9352C7.482 16.0181 7.65716 16.0596 7.83234 16.0596C8.00062 16.0596 8.16897 16.0213 8.32309 15.9445L15.3913 12.3632C15.7668 12.1754 16 11.7981 16 11.3782V4.74196C16 4.32199 15.7668 3.94471 15.3913 3.75696ZM7.75741 1.01536C7.80331 0.991799 7.85813 0.99133 7.90444 1.01405L14.5178 4.36499L11.944 5.64639L5.47837 2.22492L7.75741 1.01536ZM7.357 14.8923L1.02844 11.5334L1.02541 11.5318C0.971 11.5034 0.937156 11.4477 0.937156 11.3863V5.15667L7.357 8.5043V14.8923ZM7.83053 7.6943L1.446 4.36508L4.478 2.75592L10.9116 6.16039L7.83053 7.6943ZM15.0628 11.3781C15.0628 11.4409 15.0279 11.4972 14.9718 11.5251L8.29419 14.9086V8.51033L11.3687 6.97964V8.58449C11.3687 8.84327 11.5786 9.05308 11.8373 9.05308C12.0961 9.05308 12.3059 8.84327 12.3059 8.58449V6.51305L15.0628 5.14055V11.3781Z" fill="#151515"/>
</svg>
