<svg width="16" height="15" viewBox="0 0 16 15" fill="none" xmlns="http://www.w3.org/2000/svg">
<path d="M2.9375 10.5104H0.3125C0.139893 10.5104 0 10.6503 0 10.8229V14.4375C0 14.6101 0.139893 14.75 0.3125 14.75H2.9375C3.11011 14.75 3.25 14.6101 3.25 14.4375V10.8229C3.25 10.6504 3.11011 10.5104 2.9375 10.5104ZM2.625 14.125H0.625V11.1354H2.625V14.125Z" fill="#151515"/>
<path d="M7.17712 6.625H4.55212C4.37952 6.625 4.23962 6.76489 4.23962 6.9375V14.4375C4.23962 14.6101 4.37952 14.75 4.55212 14.75H7.17712C7.34973 14.75 7.48962 14.6101 7.48962 14.4375V6.9375C7.48962 6.76489 7.34961 6.625 7.17712 6.625ZM6.86462 14.125H4.86462V7.25H6.86462V14.125Z" fill="#151515"/>
<path d="M11.4357 7.625H8.81067C8.63818 7.625 8.49817 7.76489 8.49817 7.9375V14.4375C8.49817 14.6101 8.63818 14.75 8.81067 14.75H11.4357C11.6083 14.75 11.7482 14.6101 11.7482 14.4375V7.9375C11.7482 7.76489 11.6083 7.625 11.4357 7.625ZM11.1232 14.125H9.12317V8.25H11.1232V14.125Z" fill="#151515"/>
<path d="M1.625 9.3125C2.34875 9.3125 2.9375 8.72375 2.9375 8C2.9375 7.77161 2.87866 7.55664 2.77563 7.36938L5.13635 5.20593C5.34485 5.34546 5.59534 5.42712 5.86462 5.42712C6.37402 5.42712 6.81616 5.13525 7.03357 4.71008L8.81104 5.12744C8.81799 5.84534 9.40381 6.42712 10.1233 6.42712C10.8469 6.42712 11.4358 5.83838 11.4358 5.11462C11.4358 4.89185 11.3798 4.68201 11.2815 4.49805L13.6335 2.39478C13.8446 2.53979 14.1 2.625 14.375 2.625C15.0988 2.625 15.6875 2.03625 15.6875 1.3125C15.6875 0.588745 15.0988 0 14.375 0C13.6512 0 13.0625 0.588745 13.0625 1.3125C13.0625 1.53528 13.1184 1.74512 13.2168 1.92908L10.8646 4.03235C10.6536 3.88721 10.3982 3.80212 10.1232 3.80212C9.61389 3.80212 9.17163 4.09399 8.95422 4.51904L7.17676 4.10168C7.1698 3.38391 6.58398 2.80212 5.8645 2.80212C5.14087 2.80212 4.552 3.39087 4.552 4.11462C4.552 4.34302 4.61084 4.55798 4.71387 4.74524L2.35327 6.90869C2.14478 6.76904 1.89429 6.6875 1.625 6.6875C0.901245 6.6875 0.3125 7.27625 0.3125 8C0.3125 8.72375 0.901245 9.3125 1.625 9.3125ZM14.375 0.625C14.7542 0.625 15.0625 0.93335 15.0625 1.3125C15.0625 1.69165 14.7542 2 14.375 2C13.9958 2 13.6875 1.69165 13.6875 1.3125C13.6875 0.93335 13.9958 0.625 14.375 0.625ZM10.1232 4.42712C10.5023 4.42712 10.8107 4.73547 10.8107 5.11462C10.8107 5.49365 10.5023 5.80212 10.1232 5.80212C9.74414 5.80212 9.43567 5.49365 9.43567 5.11462C9.43567 4.73547 9.74414 4.42712 10.1232 4.42712ZM5.86462 3.42712C6.24365 3.42712 6.55212 3.73547 6.55212 4.11462C6.55212 4.49365 6.24365 4.80212 5.86462 4.80212C5.48547 4.80212 5.17712 4.49365 5.17712 4.11462C5.17712 3.73547 5.48547 3.42712 5.86462 3.42712ZM1.625 7.3125C2.00415 7.3125 2.3125 7.62085 2.3125 8C2.3125 8.37915 2.00415 8.6875 1.625 8.6875C1.24585 8.6875 0.9375 8.37915 0.9375 8C0.9375 7.62085 1.24585 7.3125 1.625 7.3125Z" fill="#151515"/>
<path d="M15.6875 3.82288H13.0625C12.8899 3.82288 12.75 3.96277 12.75 4.13538V7.88013C12.75 8.05273 12.8899 8.19263 13.0625 8.19263C13.2351 8.19263 13.375 8.05273 13.375 7.88013V4.44788H15.375V14.125H13.375V10.6927C13.375 10.5201 13.2351 10.3802 13.0625 10.3802C12.8899 10.3802 12.75 10.5201 12.75 10.6927V14.4375C12.75 14.6101 12.8899 14.75 13.0625 14.75H15.6875C15.8601 14.75 16 14.6101 16 14.4375V4.13538C16 3.96289 15.8601 3.82288 15.6875 3.82288Z" fill="#151515"/>
<path d="M13.0625 9.59912C13.1447 9.59912 13.2253 9.56567 13.2834 9.50745C13.3416 9.44934 13.375 9.36877 13.375 9.28662C13.375 9.2041 13.3416 9.12378 13.2834 9.06567C13.2253 9.0072 13.1447 8.97412 13.0625 8.97412C12.9803 8.97412 12.8997 9.0072 12.8416 9.06567C12.7834 9.12378 12.75 9.2041 12.75 9.28662C12.75 9.36877 12.7834 9.44934 12.8416 9.50745C12.8997 9.56567 12.9803 9.59912 13.0625 9.59912Z" fill="#151515"/>
</svg>
