<svg width="16" height="16" viewBox="0 0 16 16" fill="none" xmlns="http://www.w3.org/2000/svg">
<path d="M14.8862 8.92086C14.4199 8.92086 14.0076 9.22139 13.8638 9.66512C13.0863 12.067 10.8318 13.8097 8.17416 13.8097C4.87475 13.8097 2.19036 11.125 2.19036 7.82534C2.19036 5.17862 3.91864 2.93137 6.30577 2.14502C6.76669 1.99316 7.07898 1.5622 7.07898 1.07635C7.07898 0.732211 6.91431 0.408696 6.63623 0.206327C6.35815 0.00364878 5.99984 -0.053548 5.67261 0.0518145C2.38555 1.11042 0 4.19134 0 7.82545C0 12.3331 3.66678 16.0001 8.17413 16.0001C11.7937 16.0001 14.8642 13.6332 15.9343 10.3671C16.0444 10.0312 15.9867 9.66304 15.7792 9.37674C15.5722 9.09062 15.2402 8.92086 14.8862 8.92086Z" fill="#151515"/>
<path d="M10.0126 2.13555C11.8296 2.72378 13.2675 4.15845 13.86 5.97358C14.0076 6.42545 14.4285 6.73056 14.9039 6.73056H14.9264C15.2697 6.73056 15.5922 6.56643 15.7943 6.28914C15.996 6.01187 16.0536 5.65437 15.9483 5.32768C15.1468 2.83525 13.1795 0.863886 10.6891 0.0564634C10.3592 -0.0504464 9.99716 0.00700357 9.71646 0.210976C9.43571 0.41523 9.26941 0.741474 9.26941 1.08871V1.11254C9.2693 1.57832 9.56977 1.99195 10.0126 2.13555Z" fill="#151515"/>
</svg>
