<svg width="26" height="26" viewBox="0 0 26 26" fill="none" xmlns="http://www.w3.org/2000/svg">
<path fill-rule="evenodd" clip-rule="evenodd" d="M6.8218 6.77453C6.53534 6.77453 6.27947 6.78569 6.04516 6.81498C6.03371 6.81641 6.02223 6.81762 6.01072 6.8186C4.582 6.94076 3.63435 7.40959 3.03025 8.12017C2.41646 8.84214 2.04592 9.94412 2.04592 11.5504V16.279C2.04592 18.567 2.51138 19.6496 3.15959 20.2156C3.83759 20.8077 4.95083 21.0548 6.8218 21.0548H7.29465C7.60519 21.0548 7.8947 21.1537 8.11274 21.2639C8.33134 21.3744 8.57511 21.5453 8.7555 21.7812C8.75717 21.7834 8.75884 21.7856 8.7605 21.7878L10.1803 23.6808C10.3529 23.912 10.5154 23.9541 10.6047 23.9541C10.6939 23.9541 10.8564 23.912 11.029 23.6808L12.4488 21.7878C12.7936 21.3281 13.3401 21.0548 13.9147 21.0548H14.3875C15.9953 21.0548 17.097 20.6866 17.8184 20.0744C18.5279 19.4723 18.997 18.5255 19.1193 17.0903C19.1203 17.0787 19.1215 17.0672 19.1229 17.0556C19.1522 16.8213 19.1634 16.5655 19.1634 16.279V11.5504C19.1634 9.80225 18.7256 8.65163 18.006 7.93195C17.2863 7.21227 16.1357 6.77453 14.3875 6.77453H6.8218ZM5.84271 5.0533C6.17007 5.01338 6.49929 5.00131 6.8218 5.00131H14.3875C16.4104 5.00131 18.091 5.50929 19.2598 6.6781C20.4286 7.8469 20.9366 9.52751 20.9366 11.5504V16.279C20.9366 16.6014 20.9246 16.9306 20.8847 17.2579C20.7325 19.0068 20.1261 20.4418 18.9657 21.4265C17.8134 22.4043 16.2435 22.8281 14.3875 22.8281H13.9147C13.9086 22.8281 13.8991 22.8297 13.8885 22.8349C13.878 22.8402 13.871 22.8468 13.8674 22.8517L12.45 24.7415C12.4498 24.7418 12.4497 24.742 12.4495 24.7422C11.9956 25.3499 11.3368 25.7273 10.6047 25.7273C9.87268 25.7273 9.21397 25.35 8.76007 24.7426C8.75982 24.7422 8.75956 24.7419 8.75931 24.7415L7.35926 22.8748C7.34915 22.8672 7.33311 22.8567 7.31292 22.8465C7.29471 22.8373 7.27917 22.8314 7.26869 22.8281H6.8218C4.92173 22.8281 3.20373 22.6083 1.99325 21.5513C0.752971 20.4682 0.272705 18.7195 0.272705 16.279V11.5504C0.272705 9.693 0.700126 8.12334 1.67928 6.97162C2.66493 5.81225 4.09912 5.20549 5.84271 5.0533Z" fill="#884C42"/>
<path opacity="0.4" fill-rule="evenodd" clip-rule="evenodd" d="M6.97886 5.00132H14.3865C16.4094 5.00132 18.0901 5.5093 19.2589 6.6781C20.4277 7.8469 20.9356 9.52752 20.9356 11.5504V16.1214C21.8206 15.904 22.4588 15.5111 22.9071 14.9846C23.5202 14.2646 23.891 13.1633 23.891 11.5504V6.82183C23.891 5.07368 23.4533 3.92305 22.7336 3.20337C22.0139 2.4837 20.8633 2.04595 19.1151 2.04595H11.5494C9.94309 2.04595 8.84109 2.41649 8.11911 3.03029C7.59133 3.47898 7.19691 4.11721 6.97886 5.00132ZM6.97057 1.6793C8.1223 0.700155 9.69197 0.272736 11.5494 0.272736H19.1151C21.138 0.272736 22.8186 0.780716 23.9874 1.94952C25.1562 3.11833 25.6642 4.79894 25.6642 6.82183V11.5504C25.6642 13.413 25.2371 14.9834 24.2572 16.1342C23.2677 17.2962 21.827 17.8994 20.0773 18.049C19.8107 18.0718 19.5481 17.973 19.3627 17.7802C19.1772 17.5873 19.0888 17.3211 19.122 17.0556C19.1513 16.8213 19.1624 16.5655 19.1624 16.279V11.5504C19.1624 9.80226 18.7247 8.65163 18.005 7.93195C17.2853 7.21228 16.1347 6.77454 14.3865 6.77454H6.82077C6.53431 6.77454 6.27843 6.7857 6.04413 6.81499C5.77867 6.84817 5.51242 6.75971 5.3196 6.57428C5.12677 6.38884 5.02798 6.12625 5.05077 5.85969C5.20051 4.10845 5.80743 2.66815 6.97057 1.6793Z" fill="#884C42"/>
<path opacity="0.4" fill-rule="evenodd" clip-rule="evenodd" d="M13.5665 14.4585C13.5665 13.8056 14.0958 13.2763 14.7487 13.2763H14.7593C15.4122 13.2763 15.9415 13.8056 15.9415 14.4585C15.9415 15.1114 15.4122 15.6406 14.7593 15.6406H14.7487C14.0958 15.6406 13.5665 15.1114 13.5665 14.4585Z" fill="#884C42"/>
<path opacity="0.4" fill-rule="evenodd" clip-rule="evenodd" d="M9.42914 14.4585C9.42914 13.8056 9.9584 13.2763 10.6113 13.2763H10.6219C11.2748 13.2763 11.8041 13.8056 11.8041 14.4585C11.8041 15.1114 11.2748 15.6406 10.6219 15.6406H10.6113C9.9584 15.6406 9.42914 15.1114 9.42914 14.4585Z" fill="#884C42"/>
<path opacity="0.4" fill-rule="evenodd" clip-rule="evenodd" d="M5.29156 14.4585C5.29156 13.8056 5.82083 13.2763 6.47371 13.2763H6.48435C7.13723 13.2763 7.66649 13.8056 7.66649 14.4585C7.66649 15.1114 7.13723 15.6406 6.48435 15.6406H6.47371C5.82083 15.6406 5.29156 15.1114 5.29156 14.4585Z" fill="#884C42"/>
</svg>
