<svg width="16" height="20" viewBox="0 0 16 20" fill="none" xmlns="http://www.w3.org/2000/svg">
<path d="M13.1613 2.06452H11.871V0.774194C11.871 0.568867 11.7894 0.371943 11.6442 0.226756C11.499 0.0815691 11.3021 0 11.0968 0C10.8915 0 10.6945 0.0815691 10.5494 0.226756C10.4041 0.371943 10.3226 0.568867 10.3226 0.774194V2.06452H5.67742V0.774194C5.67742 0.568867 5.59585 0.371943 5.45066 0.226756C5.30548 0.0815691 5.10855 0 4.90323 0C4.6979 0 4.50098 0.0815691 4.35579 0.226756C4.2106 0.371943 4.12903 0.568867 4.12903 0.774194V2.06452H2.83871C2.08583 2.06452 1.3638 2.36359 0.831443 2.89596C0.299076 3.42832 0 4.15035 0 4.90323V16.2581C0 17.0109 0.299076 17.733 0.831443 18.2653C1.3638 18.7977 2.08583 19.0968 2.83871 19.0968H13.1613C13.9141 19.0968 14.6362 18.7977 15.1685 18.2653C15.701 17.733 16 17.0109 16 16.2581V4.90323C16 4.15035 15.701 3.42832 15.1685 2.89596C14.6362 2.36359 13.9141 2.06452 13.1613 2.06452ZM2.83871 3.6129H4.12903V4.90323C4.12903 5.10855 4.2106 5.30548 4.35579 5.45066C4.50098 5.59585 4.6979 5.67742 4.90323 5.67742C5.10855 5.67742 5.30548 5.59585 5.45066 5.45066C5.59585 5.30548 5.67742 5.10855 5.67742 4.90323V3.6129H10.3226V4.90323C10.3226 5.10855 10.4041 5.30548 10.5494 5.45066C10.6945 5.59585 10.8915 5.67742 11.0968 5.67742C11.3021 5.67742 11.499 5.59585 11.6442 5.45066C11.7894 5.30548 11.871 5.10855 11.871 4.90323V3.6129H13.1613C13.5035 3.6129 13.8317 3.74885 14.0737 3.99083C14.3157 4.23282 14.4516 4.56101 14.4516 4.90323V7.74194H1.54839V4.90323C1.54839 4.56101 1.68434 4.23282 1.92632 3.99083C2.1683 3.74885 2.4965 3.6129 2.83871 3.6129ZM13.1613 17.5484H2.83871C2.4965 17.5484 2.1683 17.4124 1.92632 17.1705C1.68434 16.9285 1.54839 16.6003 1.54839 16.2581V9.29032H14.4516V16.2581C14.4516 16.6003 14.3157 16.9285 14.0737 17.1705C13.8317 17.4124 13.5035 17.5484 13.1613 17.5484Z" fill="#151515"/>
</svg>
