<svg width="11" height="8" viewBox="0 0 11 8" fill="none" xmlns="http://www.w3.org/2000/svg">
<path d="M1.17713 5.524C0.984381 4.27115 0.791636 3.01832 0.598891 1.76546C0.556147 1.48773 0.87215 1.29832 1.09693 1.46692C1.69744 1.9173 2.29792 2.36765 2.89843 2.81803C3.09615 2.96632 3.37784 2.91806 3.51491 2.71242L5.01469 0.462728C5.17319 0.224989 5.52249 0.224989 5.68098 0.462728L7.18077 2.71242C7.31784 2.91806 7.59953 2.96629 7.79725 2.81803C8.39776 2.36765 8.99824 1.9173 9.59875 1.46692C9.82353 1.29832 10.1395 1.48773 10.0968 1.76546C9.90407 3.01832 9.71133 4.27115 9.51858 5.524H1.17713Z" fill="white"/>
<path d="M9.08378 7.60945H1.61213C1.37196 7.60945 1.17725 7.41475 1.17725 7.17457V6.21924H9.5187V7.17457C9.51867 7.41475 9.32396 7.60945 9.08378 7.60945Z" fill="white"/>
</svg>
