<svg width="16" height="16" viewBox="0 0 16 16" fill="none" xmlns="http://www.w3.org/2000/svg">
<path d="M15.8598 7.92069L9.05778 1.23537C8.4745 0.66203 7.52547 0.662062 6.94222 1.23534L0.14019 7.92069C-0.0444667 8.10219 -0.0470292 8.39897 0.13444 8.58359C0.315908 8.76819 0.612689 8.77081 0.797314 8.58934L1.32666 8.06906V13.4065C1.32666 14.5314 2.24191 15.4467 3.36688 15.4467H12.6331C13.7581 15.4467 14.6733 14.5314 14.6733 13.4065V8.06906L15.2027 8.58934C15.294 8.67903 15.4126 8.72378 15.5312 8.72378C15.6525 8.72378 15.7738 8.67697 15.8656 8.58362C16.047 8.39897 16.0445 8.10219 15.8598 7.92069ZM13.7358 13.4065C13.7358 14.0145 13.2411 14.5092 12.6331 14.5092H3.36688C2.75885 14.5092 2.26416 14.0145 2.26416 13.4065V7.14765L7.59937 1.90397C7.65459 1.84969 7.7185 1.80897 7.78672 1.78181C7.97431 1.70719 8.19462 1.73516 8.35766 1.86578C8.37247 1.87766 8.38681 1.89037 8.40063 1.90397L13.7358 7.14762V13.4065H13.7358Z" fill="#151515"/>
<path d="M6.59151 6.28166V7.79013H5.08295C4.82407 7.79013 4.6142 8.00001 4.6142 8.25888V10.1297C4.6142 10.3886 4.82407 10.5984 5.08295 10.5984H6.59151V12.1069C6.59151 12.3658 6.80138 12.5756 7.06026 12.5756H8.93107C9.18995 12.5756 9.39982 12.3658 9.39982 12.1069V10.5984H10.9081C11.167 10.5984 11.3769 10.3886 11.3769 10.1297V8.25888C11.3769 8.00001 11.167 7.79013 10.9081 7.79013H9.39982V6.28166C9.39982 6.02279 9.18995 5.81291 8.93107 5.81291H7.06026C6.80138 5.81291 6.59151 6.02279 6.59151 6.28166ZM7.52901 8.25888V6.75041H8.46232V8.25888C8.46232 8.51776 8.6722 8.72763 8.93107 8.72763H10.4394V9.66094H8.93107C8.6722 9.66094 8.46232 9.87082 8.46232 10.1297V11.6381H7.52901V10.1297C7.52901 9.87082 7.31913 9.66094 7.06026 9.66094H5.5517V8.72763H7.06026C7.31913 8.72763 7.52901 8.51776 7.52901 8.25888Z" fill="#151515"/>
</svg>
