<svg width="24" height="26" viewBox="0 0 24 26" fill="none" xmlns="http://www.w3.org/2000/svg">
<path d="M2 9.5H22M2 9.5V20.5002C2 21.9004 2 22.6001 2.27249 23.1349C2.51216 23.6052 2.89434 23.9881 3.36475 24.2277C3.899 24.5 4.59874 24.5 5.99614 24.5H18.0039C19.4013 24.5 20.1 24.5 20.6343 24.2277C21.1046 23.9881 21.4881 23.6052 21.7277 23.1349C22 22.6006 22 21.9019 22 20.5045V9.5M2 9.5V8.50025C2 7.10011 2 6.39953 2.27249 5.86475C2.51216 5.39434 2.89434 5.01216 3.36475 4.77249C3.89953 4.5 4.60011 4.5 6.00025 4.5H7M22 9.5V8.49614C22 7.09874 22 6.399 21.7277 5.86475C21.4881 5.39434 21.1046 5.01216 20.6343 4.77249C20.0995 4.5 19.4004 4.5 18.0002 4.5H17M7 4.5H17M7 4.5V2M17 4.5V2M17 14.5H7" stroke="#884C42" stroke-width="2.5" stroke-linecap="round" stroke-linejoin="round"/>
</svg>
