<svg width="16" height="16" viewBox="0 0 16 16" fill="none" xmlns="http://www.w3.org/2000/svg">
<path fill-rule="evenodd" clip-rule="evenodd" d="M8.88892 8.00001V14.2222H14.2223V8.00001H8.88892ZM7.11115 8.00001C7.11115 7.01815 7.90707 6.22223 8.88892 6.22223H14.2223C15.2041 6.22223 16 7.01815 16 8.00001V14.2222C16 15.2041 15.2041 16 14.2223 16H8.88892C7.90707 16 7.11115 15.2041 7.11115 14.2222V8.00001Z" fill="#151515"/>
<path fill-rule="evenodd" clip-rule="evenodd" d="M1.77778 1.77778C1.77778 1.77778 1.77778 1.77778 1.77778 1.77778C1.77778 1.77778 1.77778 1.77778 1.77778 1.77778V14.2222H4.44444L4.44444 1.77778L1.77778 1.77778ZM0 1.77778C0 0.795942 0.795942 0 1.77778 0H4.44444C5.42628 0 6.22222 0.795942 6.22222 1.77778V14.2222C6.22222 15.2041 5.42627 16 4.44444 16H1.77778C0.795954 16 0 15.2041 0 14.2222V1.77778Z" fill="#151515"/>
<path fill-rule="evenodd" clip-rule="evenodd" d="M8.88892 1.77778V3.55556H14.2223V1.77778H8.88892ZM14.2228 3.55495C14.2228 3.55489 14.2228 3.55489 14.2228 3.55494L14.2228 3.55495ZM7.11115 1.77778C7.11115 0.795954 7.90706 0 8.88892 0H14.2223C15.2041 0 16 0.795954 16 1.77778V3.55556C16 4.53738 15.2041 5.33333 14.2223 5.33333H8.88892C7.90706 5.33333 7.11115 4.53738 7.11115 3.55556V1.77778Z" fill="#151515"/>
</svg>
