<svg width="16" height="16" viewBox="0 0 16 16" fill="none" xmlns="http://www.w3.org/2000/svg">
<path fill-rule="evenodd" clip-rule="evenodd" d="M0.686596 0.686596C1.12622 0.246976 1.72247 0 2.34419 0H3.53488C3.84314 0 4.09302 0.249888 4.09302 0.55814C4.09302 0.866392 3.84314 1.11628 3.53488 1.11628H2.34419C2.01853 1.11628 1.7062 1.24565 1.47592 1.47592C1.24565 1.7062 1.11628 2.01853 1.11628 2.34419V3.53488C1.11628 3.84314 0.866392 4.09302 0.55814 4.09302C0.249888 4.09302 0 3.84314 0 3.53488V2.34419C0 1.72247 0.246976 1.12622 0.686596 0.686596ZM11.907 0.55814C11.907 0.249888 12.1569 0 12.4651 0H13.6558C14.2775 0 14.8738 0.246976 15.3134 0.686596C15.753 1.12622 16 1.72247 16 2.34419V3.53488C16 3.84314 15.7501 4.09302 15.4419 4.09302C15.1336 4.09302 14.8837 3.84314 14.8837 3.53488V2.34419C14.8837 2.01853 14.7544 1.7062 14.5241 1.47592C14.2938 1.24565 13.9815 1.11628 13.6558 1.11628H12.4651C12.1569 1.11628 11.907 0.866392 11.907 0.55814ZM0.55814 11.907C0.866392 11.907 1.11628 12.1569 1.11628 12.4651V13.6558C1.11628 13.9815 1.24565 14.2938 1.47592 14.5241C1.7062 14.7544 2.01853 14.8837 2.34419 14.8837H3.53488C3.84314 14.8837 4.09302 15.1336 4.09302 15.4419C4.09302 15.7501 3.84314 16 3.53488 16H2.34419C1.72247 16 1.12622 15.753 0.686596 15.3134C0.246976 14.8738 0 14.2775 0 13.6558V12.4651C0 12.1569 0.249888 11.907 0.55814 11.907ZM15.4419 11.907C15.7501 11.907 16 12.1569 16 12.4651V13.6558C16 14.2775 15.753 14.8738 15.3134 15.3134C14.8738 15.753 14.2775 16 13.6558 16H12.4651C12.1569 16 11.907 15.7501 11.907 15.4419C11.907 15.1336 12.1569 14.8837 12.4651 14.8837H13.6558C13.9815 14.8837 14.2938 14.7544 14.5241 14.5241C14.7544 14.2938 14.8837 13.9815 14.8837 13.6558V12.4651C14.8837 12.1569 15.1336 11.907 15.4419 11.907Z" fill="black"/>
<path fill-rule="evenodd" clip-rule="evenodd" d="M3.53489 5.2093C3.84314 5.2093 4.09302 5.45919 4.09302 5.76744V10.2326C4.09302 10.5408 3.84314 10.7907 3.53489 10.7907C3.22663 10.7907 2.97675 10.5408 2.97675 10.2326V5.76744C2.97675 5.45919 3.22663 5.2093 3.53489 5.2093ZM6.51163 5.2093C6.81988 5.2093 7.06977 5.45919 7.06977 5.76744V10.2326C7.06977 10.5408 6.81988 10.7907 6.51163 10.7907C6.20338 10.7907 5.95349 10.5408 5.95349 10.2326V5.76744C5.95349 5.45919 6.20338 5.2093 6.51163 5.2093ZM9.48837 5.2093C9.79663 5.2093 10.0465 5.45919 10.0465 5.76744V10.2326C10.0465 10.5408 9.79663 10.7907 9.48837 10.7907C9.18012 10.7907 8.93023 10.5408 8.93023 10.2326V5.76744C8.93023 5.45919 9.18012 5.2093 9.48837 5.2093ZM12.4651 5.2093C12.7734 5.2093 13.0233 5.45919 13.0233 5.76744V10.2326C13.0233 10.5408 12.7734 10.7907 12.4651 10.7907C12.1569 10.7907 11.907 10.5408 11.907 10.2326V5.76744C11.907 5.45919 12.1569 5.2093 12.4651 5.2093Z" fill="black"/>
</svg>
