<svg width="13" height="16" viewBox="0 0 13 16" fill="none" xmlns="http://www.w3.org/2000/svg">
<path d="M11.7761 0.413808C11.5083 0.290471 11.1928 0.338427 10.9737 0.535721L9.93388 1.45644L8.51918 0.190962C8.23497 -0.0636541 7.80467 -0.0636541 7.52046 0.190962L6.10692 1.45524L4.69304 0.190962C4.40875 -0.0636541 3.97842 -0.0636541 3.69413 0.190962L2.27905 1.45644L1.23826 0.535759C0.931151 0.262784 0.460883 0.290471 0.187908 0.597577C0.0656951 0.735076 -0.00125598 0.913 1.78484e-05 1.09696V14.903C-0.00241742 15.3145 0.329191 15.6501 0.740676 15.6525C0.92467 15.6536 1.10259 15.5865 1.24013 15.4643L2.27995 14.5436L3.69465 15.809C3.97887 16.0637 4.40916 16.0637 4.69338 15.809L6.10692 14.5446L7.52068 15.8089C7.80497 16.0635 8.2353 16.0635 8.51959 15.8089L9.93467 14.5434L10.9755 15.4641C11.2825 15.7372 11.7528 15.7096 12.0258 15.4025C12.1481 15.265 12.2151 15.087 12.2138 14.9029V1.09696C12.2175 0.802214 12.0454 0.533586 11.7761 0.413808ZM10.4296 13.9822C10.1453 13.7304 9.71744 13.7315 9.43454 13.9849L8.01987 15.2503L6.6063 13.986C6.32204 13.7314 5.89171 13.7314 5.60746 13.986L4.19373 15.2503L2.77847 13.9849C2.49665 13.7316 2.06954 13.7304 1.78634 13.9822L0.749331 14.9026V12.9055L0.745584 1.09714L1.78428 2.01764C2.06853 2.26944 2.49639 2.26832 2.77929 2.01498L4.19396 0.749538L5.60754 2.01382C5.89179 2.26843 6.32212 2.26843 6.60637 2.01382L8.0201 0.749538L9.43536 2.01498C9.71718 2.26828 10.1443 2.26944 10.4275 2.01767L11.4645 1.09696V10.5875L11.4682 14.9027L10.4296 13.9822Z" fill="#151515"/>
<path d="M9.6584 7.62526H2.55544C2.34852 7.62526 2.18079 7.79299 2.18079 7.99992C2.18079 8.20684 2.34852 8.37457 2.55544 8.37457H9.6584C9.86532 8.37457 10.0331 8.20684 10.0331 7.99992C10.0331 7.79299 9.86529 7.62526 9.6584 7.62526Z" fill="#151515"/>
<path d="M6.2865 5.37732H2.55544C2.34852 5.37732 2.18079 5.54505 2.18079 5.75198C2.18079 5.9589 2.34852 6.12663 2.55544 6.12663H6.2865C6.49342 6.12663 6.66115 5.9589 6.66115 5.75198C6.66115 5.54505 6.49338 5.37732 6.2865 5.37732Z" fill="#151515"/>
<path d="M9.6584 9.8732H2.55544C2.34852 9.8732 2.18079 10.0409 2.18079 10.2479C2.18079 10.4548 2.34852 10.6225 2.55544 10.6225H9.6584C9.86532 10.6225 10.0331 10.4548 10.0331 10.2479C10.0331 10.0409 9.86529 9.8732 9.6584 9.8732Z" fill="#151515"/>
</svg>
