<svg width="171" height="34" viewBox="0 0 171 34" fill="none" xmlns="http://www.w3.org/2000/svg">
<path d="M39.5404 27.8536V27.5563L40.0747 27.378C40.4704 27.2392 40.7395 27.049 40.878 26.8111C41.0166 26.5733 41.0878 26.2562 41.0878 25.8559C41.1076 24.6628 41.1195 23.4618 41.1195 22.249V13.8262C41.1195 12.6252 41.1076 11.4242 41.0878 10.2311C41.0878 9.83473 41.0324 9.51368 40.9255 9.27586C40.8187 9.03804 40.5733 8.84778 40.1974 8.70905L39.5404 8.47123V8.17395H53.9497L54.1595 13.1246H53.8627L52.1649 9.99328C51.967 9.61673 51.7375 9.31945 51.4803 9.09749C51.223 8.87948 50.8668 8.7685 50.4078 8.7685H45.6152C45.5954 10.1796 45.5835 11.6223 45.5835 13.0929V17.4767H48.6783C49.1334 17.4767 49.4738 17.3776 49.6915 17.1794C49.9091 16.9812 50.1189 16.6919 50.3167 16.3153L50.942 15.1817H51.2388V20.4019H50.942L50.289 19.2683C50.0912 18.9115 49.8854 18.6222 49.6796 18.4042C49.4698 18.1862 49.1374 18.0752 48.6823 18.0752H45.5875V22.0547C45.5875 23.3191 45.5954 24.5558 45.6192 25.7687C45.6192 26.5456 45.9951 27.0529 46.751 27.2907L47.6454 27.5603V27.8576H39.5404V27.8536Z" fill="#884C42"/>
<path d="M67.2589 27.8533V27.556L67.8841 27.3459C68.2799 27.2072 68.5371 27.0249 68.6598 26.795C68.7785 26.5651 68.8379 26.244 68.8379 25.8239V10.2268C68.8379 9.83046 68.7825 9.51733 68.6756 9.28744C68.5648 9.05754 68.3234 8.87521 67.9475 8.73649L67.2628 8.46695V8.16968H75.7794C78.1223 8.16968 79.919 8.61361 81.1695 9.49751C82.4201 10.3814 83.0454 11.6101 83.0454 13.1798C83.0454 14.0557 82.7169 14.9277 82.0639 15.8037C81.411 16.6797 80.378 17.3535 78.9692 17.8331L83.1087 26.0617C83.2868 26.3986 83.4887 26.6721 83.7182 26.8822C83.9477 27.0923 84.2485 27.2746 84.6245 27.4331L85.0123 27.5837V27.8533H79.6815L75.2768 18.4594H73.2505V25.8239C73.2505 26.2004 73.3099 26.5096 73.4286 26.7474C73.5474 26.9852 73.7967 27.1636 74.1726 27.2825L74.889 27.552V27.8493H67.2668L67.2589 27.8533ZM73.2426 17.8648H74.6713C76.1 17.8648 77.1329 17.4803 77.7661 16.7154C78.4032 15.9504 78.7198 14.8128 78.7198 13.3026C78.7198 11.7925 78.423 10.6351 77.8254 9.88991C77.2279 9.14474 76.2266 8.77216 74.8177 8.77216H73.2387V17.8688L73.2426 17.8648Z" fill="#884C42"/>
<path d="M97.8665 27.8536V27.5563L98.5512 27.2868C98.8875 27.1481 99.121 26.9618 99.2516 26.7358C99.3822 26.5059 99.4456 26.1928 99.4456 25.7964V10.2311C99.4456 9.83473 99.3902 9.5216 99.2833 9.29171C99.1725 9.06182 98.9311 8.87949 98.5551 8.74076L97.8705 8.47123V8.17395H112.133L112.311 12.7679H112.015L110.732 9.96553C110.554 9.6088 110.364 9.31946 110.166 9.10145C109.969 8.88345 109.672 8.77247 109.272 8.77247H103.914V17.3895H107.099C107.495 17.3895 107.8 17.2864 108.006 17.0764C108.215 16.8663 108.397 16.5849 108.556 16.2281L109.153 15.0351H109.45V20.4019H109.153L108.556 19.1494C108.378 18.7926 108.188 18.5072 107.99 18.3011C107.792 18.0911 107.495 17.988 107.095 17.988H103.91V27.263H109.925C110.321 27.263 110.63 27.1599 110.847 26.9499C111.065 26.7398 111.243 26.4465 111.381 26.0699L112.6 23.2676H112.897L112.719 27.8615H97.8625L97.8665 27.8536Z" fill="#884C42"/>
<path d="M130.199 27.8536V27.5563L131.094 27.3185C131.786 27.1203 132.135 26.6249 132.135 25.8282V20.1641L127.223 10.1439C127.045 9.74753 126.879 9.45026 126.733 9.24811C126.582 9.04992 126.361 8.87949 126.064 8.74076L125.529 8.47123V8.17395H133.508V8.47123L132.974 8.68131C132.538 8.85967 132.297 9.10542 132.257 9.41062C132.218 9.71979 132.297 10.1003 132.495 10.5601L136.009 18.3725L139.939 10.2628C140.097 9.94571 140.16 9.61673 140.133 9.27982C140.101 8.94291 139.891 8.7249 139.492 8.62185L139.076 8.47123V8.17395H142.65V8.47123L142.084 8.68131C141.708 8.82003 141.427 9.01425 141.249 9.26396C141.071 9.51367 140.893 9.82681 140.714 10.2034L136.634 18.7926V25.8282C136.634 26.2245 136.709 26.5495 136.856 26.7993C137.006 27.049 137.267 27.2234 137.643 27.3225L138.566 27.5603V27.8576H130.199V27.8536Z" fill="#884C42"/>
<path d="M152.144 27.8534V27.5561L152.888 27.2866C153.284 27.128 153.592 26.9338 153.81 26.7039C154.028 26.474 154.206 26.153 154.344 25.7328L160.478 8.11035H163.007L169.05 25.8517C169.209 26.2878 169.387 26.6207 169.585 26.8506C169.783 27.0805 170.091 27.2747 170.507 27.4333L170.863 27.5522V27.8494H163.3V27.5522L163.747 27.4015C164.163 27.243 164.416 27.0171 164.507 26.7317C164.598 26.4423 164.582 26.1015 164.464 25.7011L163.063 21.4085H156.454L155.025 25.6139C154.886 26.0499 154.843 26.3987 154.89 26.6564C154.938 26.914 155.171 27.1241 155.591 27.2826L156.244 27.5522V27.8494H152.136L152.144 27.8534ZM156.671 20.8179H162.892L159.885 11.5429L156.667 20.8179H156.671Z" fill="#884C42"/>
<path d="M20.9103 7.16289V15.3014C21.3871 14.9284 21.8154 14.5002 22.1884 14.0234C23.1839 12.7541 23.7799 11.1538 23.7799 9.41881V7.16289H20.9103ZM7.01058 31.1304V34H9.88015V31.1304H7.01058ZM14.3081 0C12.763 0 11.2752 0.247224 9.88015 0.701941C8.86918 1.03084 7.90898 1.4701 7.01058 2.00649C2.81659 4.50081 0 9.08329 0 14.3081V34H1.65331C2.32656 34 2.86957 33.457 2.86957 32.7859V14.3081C2.86957 10.7741 4.48094 7.60657 7.01058 5.50737C7.86924 4.79218 8.83607 4.20282 9.88015 3.76134C11.2443 3.18743 12.7387 2.86957 14.3081 2.86957H22.4445C23.1817 2.86957 23.7799 2.27137 23.7799 1.53412V0H14.3081Z" fill="#884C42"/>
<path d="M14.4849 7.1629C12.7477 7.1629 11.1495 7.75889 9.88031 8.75441C8.16078 10.1009 7.04606 12.1846 7.01074 14.5245V34H9.88031V14.6348C9.88031 14.6017 9.88031 14.5686 9.88252 14.5377V14.5245C9.88473 14.3545 9.89797 14.1867 9.92225 14.0234C10.2202 11.7719 12.1539 10.0325 14.4849 10.0325H20.9105V15.3014C21.3873 14.9284 21.8155 14.5002 22.1886 14.0234C23.1841 12.7541 23.7801 11.1538 23.7801 9.41883V7.1629H14.4849Z" fill="#884C42"/>
<path d="M13.5907 15.5818C12.306 15.5818 11.0611 15.7606 9.88236 16.0961H9.88015C8.86918 16.3831 7.91118 16.7848 7.01058 17.2859C5.40362 18.1755 3.99532 19.3851 2.86957 20.8265C1.07278 23.1332 0 26.0293 0 29.1747V34H1.65331C2.32656 34 2.86957 33.457 2.86957 32.786V27.6164C2.86957 24.1817 4.49198 21.1201 7.01058 19.1555V20.7139C7.87145 20.0429 8.83827 19.4999 9.88015 19.1136V17.5552C11.0368 17.127 12.2862 16.893 13.5907 16.893H16.3058C17.8708 16.893 19.3254 16.4096 20.5263 15.5818H13.5907Z" fill="#642723"/>
<path d="M14.4847 7.1629C12.7476 7.1629 11.1494 7.75889 9.88019 8.75441V14.0234H9.92213C10.2201 11.7719 12.1538 10.0325 14.4847 10.0325H20.9104V15.3014C21.3872 14.9284 21.8154 14.5002 22.1884 14.0234C23.184 12.7541 23.7799 11.1538 23.7799 9.41883V7.1629H14.4847Z" fill="#884C42"/>
<path d="M20.9104 7.1629V9.41883C20.9104 9.62632 20.8971 9.8316 20.8684 10.0325C20.5682 12.2818 18.6368 14.0234 16.3058 14.0234H13.5908C12.3061 14.0234 11.0611 14.2022 9.8824 14.5377C9.88019 14.5686 9.88019 14.6017 9.88019 14.6348V16.893H16.3058C17.8708 16.893 19.3255 16.4095 20.5263 15.5818C20.6565 15.4935 20.7846 15.3986 20.9104 15.3014C21.3872 14.9284 21.8154 14.5002 22.1884 14.0234C23.184 12.7541 23.7799 11.1538 23.7799 9.41883V7.1629H20.9104Z" fill="#884C42"/>
<path d="M7.01058 31.1303V33.9999H9.88015V31.1303H7.01058ZM13.5907 14.0233C12.306 14.0233 11.0611 14.2021 9.88236 14.5376C8.87139 14.8245 7.91118 15.2263 7.01058 15.7273C5.40362 16.6169 3.99532 17.8265 2.86957 19.2679C1.07278 21.5746 0 24.4707 0 27.6162V33.9999H1.60917C2.30449 33.9999 2.86957 33.4348 2.86957 32.7395V27.6162C2.86957 24.1815 4.49198 21.1199 7.01058 19.1554C7.87145 18.4843 8.83827 17.9413 9.88015 17.555C11.0368 17.1268 12.2862 16.8928 13.5907 16.8928H16.3058C17.8708 16.8928 19.3254 16.4094 20.5263 15.5817C20.6565 15.4934 20.7845 15.3984 20.9103 15.3013C21.3871 14.9283 21.8154 14.5 22.1884 14.0233H13.5907Z" fill="#884C42"/>
<path d="M14.5047 18.4514C14.3414 18.533 14.1803 18.6191 14.0213 18.7074C12.4144 19.597 11.0061 20.8066 9.88031 22.248C8.25569 24.334 7.22265 26.8989 7.04165 29.6957C7.02178 29.9937 7.01074 30.2939 7.01074 30.5963V32.5652H9.88031V30.5963C9.88031 27.1616 11.5027 24.1 14.0213 22.1355C14.1913 22.003 14.3657 21.8772 14.5423 21.7558C15.1073 21.3673 15.4451 20.7272 15.4451 20.0407V18.0209C15.125 18.1512 14.8116 18.2946 14.5047 18.4514Z" fill="#884C42"/>
</svg>
