<svg width="16" height="15" viewBox="0 0 16 15" fill="none" xmlns="http://www.w3.org/2000/svg">
<g opacity="0.8">
<path fill-rule="evenodd" clip-rule="evenodd" d="M0 2.25641C0 1.01023 1.01023 0 2.25641 0C3.50259 0 4.51282 1.01023 4.51282 2.25641C4.51282 3.28925 3.81887 4.16002 2.87179 4.42788V13.7436C2.87179 14.0835 2.59628 14.359 2.25641 14.359C1.91654 14.359 1.64103 14.0835 1.64103 13.7436V4.42788C0.693947 4.16002 0 3.28925 0 2.25641ZM2.25641 1.23077C1.68996 1.23077 1.23077 1.68996 1.23077 2.25641C1.23077 2.82286 1.68996 3.28205 2.25641 3.28205C2.82286 3.28205 3.28205 2.82286 3.28205 2.25641C3.28205 1.68996 2.82286 1.23077 2.25641 1.23077ZM8 0C8.33987 0 8.61539 0.275517 8.61539 0.615385V9.93109C9.56248 10.1989 10.2564 11.0697 10.2564 12.1026C10.2564 13.3488 9.24621 14.359 8 14.359C6.75379 14.359 5.74359 13.3488 5.74359 12.1026C5.74359 11.0697 6.43752 10.1989 7.38462 9.93109V0.615385C7.38462 0.275517 7.66013 0 8 0ZM13.7436 0C14.0835 0 14.359 0.275517 14.359 0.615385V5.00801C15.3061 5.27587 16 6.14662 16 7.17949C16 8.21235 15.3061 9.08311 14.359 9.35096V13.7436C14.359 14.0835 14.0835 14.359 13.7436 14.359C13.4037 14.359 13.1282 14.0835 13.1282 13.7436V9.35096C12.1811 9.08311 11.4872 8.21235 11.4872 7.17949C11.4872 6.14662 12.1811 5.27587 13.1282 5.00801V0.615385C13.1282 0.275517 13.4037 0 13.7436 0ZM13.7436 6.15385C13.1771 6.15385 12.7179 6.61302 12.7179 7.17949C12.7179 7.74596 13.1771 8.20513 13.7436 8.20513C14.3101 8.20513 14.7692 7.74596 14.7692 7.17949C14.7692 6.61302 14.3101 6.15385 13.7436 6.15385ZM8 11.0769C7.43353 11.0769 6.97436 11.5361 6.97436 12.1026C6.97436 12.669 7.43353 13.1282 8 13.1282C8.56647 13.1282 9.02564 12.669 9.02564 12.1026C9.02564 11.5361 8.56647 11.0769 8 11.0769Z" fill="#151515"/>
</g>
</svg>
