<svg width="15" height="16" viewBox="0 0 15 16" fill="none" xmlns="http://www.w3.org/2000/svg">
<path d="M10.184 6.875C10.184 6.52981 9.90421 6.25 9.55902 6.25H3.12152C2.77633 6.25 2.49652 6.52981 2.49652 6.875C2.49652 7.22019 2.77633 7.5 3.12152 7.5H9.55902C9.90421 7.5 10.184 7.22019 10.184 6.875Z" fill="#151515"/>
<path d="M3.12152 8.75C2.77633 8.75 2.49652 9.02981 2.49652 9.375C2.49652 9.72019 2.77633 10 3.12152 10H7.03124C7.37643 10 7.65624 9.72019 7.65624 9.375C7.65624 9.02981 7.37643 8.75 7.03124 8.75H3.12152Z" fill="#151515"/>
<path d="M4.59028 14.75H2.5C1.81075 14.75 1.25 14.1892 1.25 13.5V2.5C1.25 1.81075 1.81075 1.25 2.5 1.25H10.184C10.8733 1.25 11.434 1.81075 11.434 2.5V6.34375C11.434 6.68894 11.7138 6.96875 12.059 6.96875C12.4042 6.96875 12.684 6.68894 12.684 6.34375V2.5C12.684 1.1215 11.5625 0 10.184 0H2.5C1.1215 0 0 1.1215 0 2.5V13.5C0 14.8785 1.1215 16 2.5 16H4.59028C4.93547 16 5.21528 15.7202 5.21528 15.375C5.21528 15.0298 4.93547 14.75 4.59028 14.75Z" fill="#151515"/>
<path d="M13.7911 9.04913C13.06 8.31806 11.8705 8.31803 11.1399 9.04863L7.70855 12.4724C7.63568 12.5451 7.58193 12.6347 7.55199 12.7332L6.80471 15.1933C6.73846 15.4114 6.79618 15.6483 6.95537 15.8114C7.07462 15.9337 7.23662 16 7.40277 16C7.45837 16 7.51449 15.9926 7.56958 15.9773L10.0922 15.2785C10.1961 15.2498 10.2907 15.1947 10.3669 15.1185L13.7911 11.7008C14.5221 10.9698 14.5221 9.78025 13.7911 9.04913ZM9.60018 14.1178L8.33105 14.4693L8.70246 13.2465L11.0177 10.9364L11.9018 11.8204L9.60018 14.1178ZM12.9076 10.8166L12.7866 10.9374L11.9026 10.0535L12.0233 9.93306C12.267 9.68938 12.6635 9.68938 12.9072 9.93306C13.1509 10.1768 13.1509 10.5733 12.9076 10.8166Z" fill="#151515"/>
<path d="M9.55902 3.75H3.12152C2.77633 3.75 2.49652 4.02981 2.49652 4.375C2.49652 4.72019 2.77633 5 3.12152 5H9.55902C9.90421 5 10.184 4.72019 10.184 4.375C10.184 4.02981 9.90421 3.75 9.55902 3.75Z" fill="#151515"/>
</svg>
