<svg width="13" height="17" viewBox="0 0 13 17" fill="none" xmlns="http://www.w3.org/2000/svg">
<path d="M6.42827 16.2857C6.80715 16.2857 7.17051 16.1352 7.43842 15.8673C7.70633 15.5994 7.85684 15.236 7.85684 14.8571H4.99969C4.99969 15.236 5.1502 15.5994 5.41811 15.8673C5.68602 16.1352 6.04939 16.2857 6.42827 16.2857Z" fill="#151515"/>
<path d="M12.8027 12.9879C12.8568 12.8573 12.8709 12.7136 12.8433 12.5751C12.8157 12.4365 12.7477 12.3092 12.6477 12.2093L11.4284 10.99V7C11.427 5.79868 10.9931 4.63802 10.2061 3.73037C9.41917 2.82272 8.3317 2.22876 7.14271 2.05714V1.28571C7.14271 1.09627 7.06745 0.91459 6.9335 0.780636C6.79954 0.646681 6.61786 0.571426 6.42842 0.571426C6.23898 0.571426 6.0573 0.646681 5.92334 0.780636C5.78939 0.91459 5.71413 1.09627 5.71413 1.28571V2.05714C4.52514 2.22876 3.43767 2.82272 2.65069 3.73037C1.86371 4.63802 1.42983 5.79868 1.42842 7V10.99L0.209134 12.2093C0.10927 12.3092 0.041265 12.4364 0.0137168 12.575C-0.0138315 12.7135 0.000313536 12.8571 0.0543636 12.9876C0.108414 13.1181 0.199942 13.2297 0.317377 13.3081C0.434813 13.3866 0.572883 13.4285 0.714134 13.4286H12.1427C12.284 13.4286 12.4221 13.3868 12.5395 13.3083C12.657 13.2299 12.7486 13.1183 12.8027 12.9879ZM2.43842 12L2.6477 11.7907C2.78167 11.6568 2.85695 11.4751 2.85699 11.2857V7C2.85699 6.0528 3.23327 5.14439 3.90304 4.47462C4.57281 3.80484 5.48122 3.42857 6.42842 3.42857C7.37562 3.42857 8.28403 3.80484 8.9538 4.47462C9.62357 5.14439 9.99985 6.0528 9.99985 7V11.2857C9.99989 11.4751 10.0752 11.6568 10.2091 11.7907L10.4184 12H2.43842Z" fill="#151515"/>
</svg>
