<svg width="13" height="16" viewBox="0 0 13 16" fill="none" xmlns="http://www.w3.org/2000/svg">
<path d="M10.9975 0C11.9914 0 12.7971 0.805703 12.7971 1.79959V14.2004C12.7971 15.1943 11.9914 16 10.9975 16H1.79959C0.805702 16 0 15.1943 0 14.2004V1.79959C0 0.847114 0.739959 0.0674686 1.67638 0.00415173L1.79959 0H10.9975ZM11.5973 11.1974H1.19972V14.2004C1.19972 14.5317 1.46829 14.8003 1.79959 14.8003H10.9975C11.3288 14.8003 11.5973 14.5317 11.5973 14.2004V11.1974ZM3.00034 12.3972H9.79775C10.129 12.3972 10.3976 12.6657 10.3976 12.997C10.3976 13.3007 10.1719 13.5517 9.87915 13.5914L9.79775 13.5969H3.00034C2.66905 13.5969 2.40048 13.3283 2.40048 12.997C2.40048 12.6933 2.62615 12.4424 2.91894 12.4026L3.00034 12.3972ZM10.9975 1.19972H1.79959L1.71819 1.2052C1.4254 1.24492 1.19972 1.4959 1.19972 1.79959V9.99771H3.19927V8.19454C3.19927 7.67689 3.59267 7.25113 4.09681 7.19993L4.19904 7.19477H8.59803C9.11567 7.19477 9.54144 7.58818 9.59264 8.09232L9.5978 8.19454V9.99771H11.5973V1.79959C11.5973 1.46829 11.3288 1.19972 10.9975 1.19972ZM6.39853 2.39587C7.50285 2.39587 8.39807 3.29109 8.39807 4.39541C8.39807 5.49973 7.50285 6.39495 6.39853 6.39495C5.29422 6.39495 4.39899 5.49973 4.39899 4.39541C4.39899 3.29109 5.29422 2.39587 6.39853 2.39587Z" fill="#151515"/>
</svg>
