<svg width="40" height="40" viewBox="0 0 40 40" fill="none" xmlns="http://www.w3.org/2000/svg">
<g clip-path="url(#clip0_3184_8859)">
<path d="M33.75 1.40625H6.25C2.80365 1.40625 0 4.2099 0 7.65625V29.5312C0 32.9776 2.80365 35.7812 6.25 35.7812H27.5781C28.4412 35.7812 29.1406 35.0818 29.1406 34.2188C29.1406 33.3557 28.4412 32.6562 27.5781 32.6562H21.8231L18.2306 27.9956L29.6152 13.5153L37.2791 21.9858C37.7124 22.4652 38.3963 22.6279 38.9993 22.3956C39.6021 22.1631 40 21.5836 40 20.9375V7.65625C40 4.2099 37.1964 1.40625 33.75 1.40625ZM36.875 16.8817L30.69 10.0455C30.3812 9.70398 29.9368 9.51538 29.4772 9.53217C29.0173 9.54834 28.5876 9.76624 28.3029 10.1282L16.2625 25.4425L12.175 20.1398C11.8793 19.7562 11.4221 19.5312 10.9375 19.5312C10.9372 19.5312 10.9369 19.5312 10.9366 19.5312C10.452 19.5316 9.99451 19.7568 9.6991 20.141L6.26038 24.6112C5.73425 25.2954 5.86212 26.2762 6.54602 26.8024C7.23022 27.3288 8.21106 27.2006 8.73749 26.5167L10.9387 23.6548L17.8775 32.6562H6.25C4.52698 32.6562 3.125 31.2543 3.125 29.5312V7.65625C3.125 5.93323 4.52698 4.53125 6.25 4.53125H33.75C35.473 4.53125 36.875 5.93323 36.875 7.65625V16.8817Z" fill="#884C42"/>
<path d="M10.9375 7.03125C8.35266 7.03125 6.25 9.13391 6.25 11.7188C6.25 14.3036 8.35266 16.4062 10.9375 16.4062C13.5223 16.4062 15.625 14.3036 15.625 11.7188C15.625 9.13391 13.5223 7.03125 10.9375 7.03125ZM10.9375 13.2812C10.076 13.2812 9.375 12.5803 9.375 11.7188C9.375 10.8572 10.076 10.1562 10.9375 10.1562C11.799 10.1562 12.5 10.8572 12.5 11.7188C12.5 12.5803 11.799 13.2812 10.9375 13.2812Z" fill="#884C42"/>
<path d="M36.5997 25.0735C36.5952 25.069 36.5906 25.0641 36.586 25.0595C35.8475 24.3158 34.8651 23.9062 33.8196 23.9062C32.7771 23.9062 31.7975 24.3134 31.0599 25.0528L28.0432 28.0283C27.4289 28.634 27.4222 29.6234 28.0283 30.2377C28.634 30.8521 29.6234 30.8591 30.2377 30.253L32.2571 28.2614V37.0312C32.2571 37.8943 32.9566 38.5938 33.8196 38.5938C34.6826 38.5938 35.3821 37.8943 35.3821 37.0312V28.309L37.3148 30.3055C37.6212 30.6223 38.0292 30.7812 38.4375 30.7812C38.8291 30.7812 39.2209 30.6351 39.5242 30.3415C40.1444 29.7412 40.1602 28.7521 39.5599 28.132L36.5997 25.0735Z" fill="#884C42"/>
</g>
<defs>
<clipPath id="clip0_3184_8859">
<rect width="40" height="40" fill="white"/>
</clipPath>
</defs>
</svg>
