<svg width="17" height="16" viewBox="0 0 17 16" fill="none" xmlns="http://www.w3.org/2000/svg">
<path d="M16.0054 5.78699L16.0067 0.466977L13.8937 2.57996L13.657 2.34317C12.1459 0.832162 10.1369 2.04254e-10 8.00002 2.04254e-10C3.58876 -3.12629e-05 0 3.58879 0 7.99998C0 12.4112 3.58876 16 8.00002 16C12.4113 16 16 12.4112 16 7.99998H14.4516C14.4516 11.5574 11.5574 14.4516 7.99998 14.4516C4.44255 14.4516 1.5484 11.5574 1.5484 7.99998C1.5484 4.44255 4.44258 1.54837 8.00002 1.54837C9.72336 1.54837 11.3435 2.21949 12.5621 3.43807L12.7989 3.67486L10.6861 5.78762L16.0054 5.78699Z" fill="black"/>
</svg>
