<svg width="16" height="16" viewBox="0 0 16 16" fill="none" xmlns="http://www.w3.org/2000/svg">
<path d="M9.6162 14.5153C9.48427 14.5482 9.34975 14.5774 9.21623 14.602C8.86721 14.6669 8.63646 15.0026 8.70101 15.3519C8.7329 15.5238 8.83051 15.6669 8.96303 15.7604C9.0996 15.8565 9.27343 15.8999 9.45056 15.867C9.60956 15.8374 9.7698 15.8027 9.92705 15.7635C10.2717 15.6777 10.4817 15.3286 10.3957 14.9841C10.3099 14.6393 9.96107 14.4295 9.6162 14.5153Z" fill="#151515"/>
<path d="M14.3727 5.89392C14.4178 6.0297 14.5038 6.14056 14.6124 6.21715C14.7735 6.33062 14.9843 6.36879 15.1855 6.30228C15.5228 6.19029 15.7055 5.82661 15.5939 5.48952C15.5431 5.33584 15.4867 5.18169 15.4266 5.0316C15.2947 4.70176 14.9205 4.54117 14.5905 4.67311C14.2609 4.80497 14.1002 5.17921 14.2322 5.50915C14.2827 5.63531 14.33 5.7648 14.3727 5.89392Z" fill="#151515"/>
<path d="M11.7062 13.5969C11.5928 13.6718 11.4756 13.7443 11.3577 13.8123C11.0499 13.9898 10.9445 14.3832 11.1219 14.6909C11.1701 14.7746 11.2343 14.843 11.3082 14.8952C11.5066 15.0349 11.7761 15.0558 12.0005 14.9265C12.1407 14.8456 12.2802 14.7596 12.4153 14.6702C12.7116 14.4745 12.7931 14.0754 12.5973 13.779C12.4015 13.4825 12.0026 13.401 11.7062 13.5969Z" fill="#151515"/>
<path d="M15.9939 7.69024C15.9799 7.33522 15.6809 7.0589 15.3258 7.07277C14.9711 7.08676 14.6946 7.38589 14.7085 7.74076C14.7138 7.87645 14.7152 8.01416 14.7121 8.14971C14.7071 8.37234 14.816 8.57079 14.9852 8.69007C15.086 8.76106 15.2084 8.80401 15.341 8.80704C15.696 8.81492 15.9902 8.53333 15.9981 8.17815C16.0017 8.01619 16.0003 7.8521 15.9939 7.69024Z" fill="#151515"/>
<path d="M14.2678 11.9043C13.9831 11.6907 13.5804 11.7487 13.3672 12.0328C13.2855 12.1417 13.1995 12.2491 13.1115 12.3526C12.8814 12.623 12.9139 13.029 13.1842 13.2593C13.1996 13.2724 13.2152 13.2844 13.2314 13.2957C13.5001 13.4851 13.8737 13.4416 14.091 13.1866C14.1961 13.0631 14.2986 12.9347 14.3962 12.8047C14.6094 12.5206 14.5517 12.1176 14.2678 11.9043Z" fill="#151515"/>
<path d="M15.2132 9.57943C14.8743 9.47315 14.5133 9.66184 14.4071 10.0008C14.3664 10.1303 14.3214 10.2604 14.2728 10.3878C14.166 10.6683 14.2683 10.977 14.5028 11.1424C14.5459 11.1726 14.5933 11.1982 14.6448 11.2177C14.9766 11.3444 15.3482 11.1779 15.4747 10.8458C15.5325 10.6943 15.5861 10.5395 15.6345 10.3856C15.7406 10.0466 15.5521 9.68571 15.2132 9.57943Z" fill="#151515"/>
<path d="M6.80993 14.6076C6.23487 14.5043 5.68323 14.3285 5.16013 14.0833C5.15394 14.08 5.1484 14.0763 5.1419 14.0734C5.01863 14.0154 4.89557 13.9532 4.7763 13.8883C4.77588 13.8878 4.77513 13.8875 4.77447 13.8872C4.55562 13.7667 4.34204 13.6334 4.13454 13.4873C1.10884 11.3559 0.381346 7.16026 2.51287 4.1346C2.97636 3.47692 3.53726 2.92824 4.16257 2.49336C4.17028 2.48799 4.17798 2.48266 4.18562 2.47726C6.38913 0.958981 9.38115 0.856659 11.7209 2.41683L11.2184 3.14292C11.0787 3.34502 11.1646 3.49229 11.4092 3.47028L13.5921 3.27486C13.837 3.25284 13.9834 3.04101 13.9176 2.80452L13.3314 0.692532C13.2658 0.455765 13.0978 0.427424 12.9579 0.629488L12.4542 1.3573C10.7371 0.204655 8.67766 -0.234864 6.63353 0.119599C6.42765 0.155231 6.22465 0.198843 6.02445 0.249608C6.0229 0.249883 6.02166 0.250055 6.02042 0.25033C6.01269 0.252222 6.00484 0.254733 5.99731 0.256831C4.23463 0.709488 2.69671 1.73755 1.5993 3.20438C1.59005 3.21536 1.58052 3.22609 1.57179 3.23802C1.53529 3.28717 1.49908 3.33745 1.46362 3.38774C1.40563 3.47014 1.34847 3.55462 1.29378 3.63909C1.28694 3.64927 1.28171 3.65962 1.27572 3.6699C0.370134 5.07321 -0.0666683 6.69557 0.00824148 8.34723C0.00841345 8.35266 0.00810391 8.35813 0.00824148 8.3637C0.0154986 8.52504 0.0282931 8.68862 0.045662 8.84965C0.0465906 8.86004 0.048895 8.86988 0.0506491 8.88026C0.0686027 9.04219 0.0911307 9.20449 0.119368 9.36676C0.40635 11.0224 1.18737 12.5123 2.35769 13.6715C2.3604 13.6742 2.36322 13.6772 2.36597 13.68C2.36694 13.6811 2.368 13.6816 2.36893 13.6826C2.68336 13.9927 3.02537 14.2796 3.39363 14.5389C4.35734 15.218 5.43047 15.6669 6.58294 15.8737C6.93262 15.9365 7.26665 15.7038 7.32939 15.3543C7.39209 15.0045 7.15951 14.6702 6.80993 14.6076Z" fill="#151515"/>
<path d="M7.60534 2.80371C7.3177 2.80371 7.08472 3.0369 7.08472 3.32412V8.50889L11.8266 10.9602C11.9029 10.9997 11.9846 11.0183 12.065 11.0183C12.2534 11.0183 12.4353 10.9157 12.5278 10.7368C12.6597 10.4814 12.5599 10.1676 12.3045 10.0357L8.12537 7.87515V3.32412C8.12534 3.0369 7.89263 2.80371 7.60534 2.80371Z" fill="#151515"/>
</svg>
