<svg width="30" height="30" viewBox="0 0 30 30" fill="none" xmlns="http://www.w3.org/2000/svg">
<path d="M14.0625 26.25C14.0625 26.0014 14.1613 25.7629 14.3371 25.5871C14.5129 25.4113 14.7514 25.3125 15 25.3125C17.358 25.3126 19.6448 24.5045 21.4793 23.023C23.3138 21.5415 24.5852 19.4761 25.0816 17.171C25.578 14.8658 25.2694 12.4602 24.2073 10.3549C23.1452 8.24967 21.3937 6.57199 19.2446 5.60148C17.0956 4.63097 14.6789 4.42624 12.3973 5.02141C10.1156 5.61658 8.10685 6.9757 6.70571 8.87227C5.30458 10.7688 4.59572 13.0883 4.69727 15.4441C4.79881 17.7999 5.70463 20.0498 7.26377 21.8188V18.5225C7.26377 18.2739 7.36254 18.0354 7.53836 17.8596C7.71417 17.6838 7.95263 17.585 8.20127 17.585C8.44991 17.585 8.68837 17.6838 8.86418 17.8596C9.04 18.0354 9.13877 18.2739 9.13877 18.5225V23.8263C9.13877 23.9495 9.11448 24.0715 9.06729 24.1853C9.0201 24.2991 8.95093 24.4025 8.86374 24.4896C8.77656 24.5767 8.67306 24.6457 8.55917 24.6928C8.44528 24.7398 8.32324 24.7639 8.20002 24.7638H2.89752C2.64888 24.7638 2.41042 24.665 2.23461 24.4892C2.05879 24.3134 1.96002 24.0749 1.96002 23.8263C1.96002 23.5776 2.05879 23.3392 2.23461 23.1633C2.41042 22.9875 2.64888 22.8888 2.89752 22.8888H5.71002C3.9128 20.7717 2.89245 18.1044 2.8179 15.3284C2.74336 12.5524 3.61908 9.8342 5.30009 7.62378C6.9811 5.41335 9.36659 3.8433 12.0616 3.17353C14.7566 2.50377 17.5996 2.77448 20.1198 3.94083C22.64 5.10718 24.6863 7.09922 25.9199 9.58718C27.1536 12.0751 27.5006 14.9098 26.9034 17.6218C26.3063 20.3339 24.8009 22.7607 22.6365 24.5005C20.472 26.2403 17.7783 27.1887 15.0013 27.1888C14.8779 27.1889 14.7558 27.1648 14.6418 27.1176C14.5279 27.0705 14.4243 27.0014 14.3371 26.9142C14.2499 26.827 14.1808 26.7234 14.1336 26.6095C14.0865 26.4955 14.0624 26.3733 14.0625 26.25ZM17.6563 20.2325L14.335 16.9138C14.1593 16.7375 14.0605 16.4989 14.06 16.25V9.75001C14.06 9.50137 14.1588 9.26291 14.3346 9.0871C14.5104 8.91128 14.7489 8.81251 14.9975 8.81251C15.2462 8.81251 15.4846 8.91128 15.6604 9.0871C15.8363 9.26291 15.935 9.50137 15.935 9.75001V15.8613L18.98 18.9063C19.0695 18.9928 19.1409 19.0963 19.19 19.2107C19.239 19.3251 19.2649 19.4481 19.2659 19.5726C19.2669 19.6971 19.2431 19.8205 19.1959 19.9357C19.1487 20.0509 19.0791 20.1555 18.991 20.2435C18.9029 20.3315 18.7982 20.4011 18.683 20.4481C18.5678 20.4952 18.4443 20.5189 18.3198 20.5177C18.1953 20.5166 18.0723 20.4907 17.958 20.4415C17.8436 20.3923 17.7402 20.3208 17.6538 20.2313L17.6563 20.2325Z" fill="#884C42"/>
</svg>
