<svg width="16" height="17" viewBox="0 0 16 17" fill="none" xmlns="http://www.w3.org/2000/svg">
<path fill-rule="evenodd" clip-rule="evenodd" d="M8.00002 5.23721C6.34719 5.23721 5.00732 6.57708 5.00732 8.22988C5.00732 9.88274 6.34719 11.2226 8.00002 11.2226C9.6528 11.2226 10.9927 9.88274 10.9927 8.22988C10.9927 6.57708 9.6528 5.23721 8.00002 5.23721ZM6.50367 8.22988C6.50367 7.40353 7.17359 6.73354 8.00002 6.73354C8.82645 6.73354 9.49636 7.40353 9.49636 8.22988C9.49636 9.05631 8.82645 9.72622 8.00002 9.72622C7.17359 9.72622 6.50367 9.05631 6.50367 8.22988Z" fill="#151515"/>
<path fill-rule="evenodd" clip-rule="evenodd" d="M8.00002 5.23721C6.34719 5.23721 5.00732 6.57708 5.00732 8.22988C5.00732 9.88274 6.34719 11.2226 8.00002 11.2226C9.6528 11.2226 10.9927 9.88274 10.9927 8.22988C10.9927 6.57708 9.6528 5.23721 8.00002 5.23721ZM6.50367 8.22988C6.50367 7.40353 7.17359 6.73354 8.00002 6.73354C8.82645 6.73354 9.49636 7.40353 9.49636 8.22988C9.49636 9.05631 8.82645 9.72622 8.00002 9.72622C7.17359 9.72622 6.50367 9.05631 6.50367 8.22988Z" fill="#151515"/>
<path fill-rule="evenodd" clip-rule="evenodd" d="M7.07774 0.0127871C7.24622 -0.000127115 7.43544 -5.15114e-05 7.58971 8.34224e-06H8.4103C8.56458 -5.15114e-05 8.75379 -0.000127115 8.92228 0.0127871C9.12144 0.0280498 9.39744 0.0668574 9.69342 0.201536C10.0676 0.37176 10.3878 0.641453 10.6191 0.981205C10.8022 1.25001 10.8873 1.51542 10.9363 1.70905C10.9777 1.87293 11.0097 2.05933 11.0359 2.21137L11.1418 2.82536L11.1439 2.8265C11.1699 2.8409 11.1958 2.85546 11.2216 2.87021L11.2236 2.87129L11.9245 2.61759C12.0668 2.56606 12.2416 2.5027 12.4019 2.45806C12.5916 2.40522 12.8597 2.34843 13.1785 2.3719C13.5824 2.40161 13.9706 2.54002 14.3022 2.77245C14.564 2.95599 14.7357 3.16952 14.8492 3.33048C14.9452 3.46647 15.0405 3.62617 15.1181 3.75604L15.4935 4.38431C15.5757 4.52153 15.6758 4.68889 15.7531 4.84461C15.8441 5.02793 15.9552 5.29312 15.9888 5.62675C16.031 6.04688 15.9539 6.47042 15.7662 6.84868C15.6172 7.14907 15.4197 7.35804 15.2699 7.49757C15.1427 7.61601 14.99 7.73736 14.8649 7.83679L14.3595 8.22988L14.8649 8.62297C14.99 8.72248 15.1427 8.84376 15.2699 8.96227C15.4197 9.10173 15.6172 9.31069 15.7662 9.61108C15.9538 9.98936 16.031 10.4129 15.9887 10.8331C15.9552 11.1667 15.844 11.4318 15.753 11.6152C15.6757 11.7709 15.5756 11.9383 15.4935 12.0755L15.118 12.7039C15.0404 12.8338 14.9451 12.9933 14.8492 13.1293C14.7356 13.2903 14.564 13.5038 14.3022 13.6873C13.9706 13.9198 13.5823 14.0582 13.1785 14.0879C12.8597 14.1114 12.5916 14.0545 12.4019 14.0017C12.2415 13.9571 12.0667 13.8938 11.9245 13.8422L11.2235 13.5885L11.2216 13.5896C11.1958 13.6044 11.1699 13.6189 11.1439 13.6333L11.1418 13.6344L11.0359 14.2484C11.0097 14.4004 10.9777 14.5869 10.9363 14.7507C10.8873 14.9443 10.8022 15.2098 10.6191 15.4786C10.3878 15.8184 10.0676 16.0881 9.69342 16.2583C9.39744 16.393 9.12144 16.4318 8.92228 16.447C8.75371 16.4599 8.56458 16.4598 8.4103 16.4598H7.58971C7.43544 16.4598 7.24622 16.4599 7.07774 16.447C6.87857 16.4318 6.60257 16.393 6.30656 16.2583C5.93242 16.0881 5.61221 15.8184 5.38085 15.4786C5.19781 15.2098 5.11264 14.9443 5.06375 14.7507C5.02237 14.5869 4.99029 14.4004 4.96412 14.2484L4.8582 13.6344L4.85612 13.6333C4.83008 13.6189 4.80416 13.6044 4.77835 13.5896L4.77645 13.5885L4.07554 13.8422C3.93332 13.8937 3.75846 13.9571 3.59815 14.0017C3.40839 14.0545 3.14036 14.1113 2.82147 14.0879C2.41765 14.0582 2.02938 13.9198 1.69782 13.6873C1.436 13.5038 1.26433 13.2903 1.15079 13.1293C1.05487 12.9933 0.959523 12.8337 0.881982 12.7038L0.50646 12.0755C0.424378 11.9383 0.324273 11.7709 0.246987 11.6152C0.155994 11.4318 0.0448461 11.1667 0.0112981 10.8331C-0.0309511 10.4129 0.0461779 9.98936 0.233812 9.61108C0.382817 9.31069 0.580312 9.10173 0.730089 8.96227C0.857308 8.84376 1.00997 8.72248 1.13516 8.62297L1.62442 8.23392V8.22592L1.13513 7.83679C1.00993 7.73736 0.857278 7.61601 0.730059 7.49757C0.580282 7.35804 0.382787 7.14907 0.233782 6.84868C0.0461479 6.47042 -0.0309811 6.0469 0.0112607 5.62676C0.0448087 5.29313 0.155964 5.02795 0.24695 4.84462C0.324236 4.6889 0.424348 4.52155 0.50643 4.38432L0.881945 3.75601C0.959485 3.62615 1.05484 3.46647 1.15076 3.33049C1.2643 3.16953 1.43597 2.95599 1.69779 2.77246C2.02935 2.54003 2.41762 2.40162 2.82144 2.37191C3.14032 2.34843 3.40836 2.40523 3.59811 2.45807C3.75842 2.50272 3.93328 2.56608 4.07548 2.6176L4.77644 2.87129L4.77834 2.87021C4.80415 2.85547 4.83008 2.8409 4.85612 2.8265L4.8582 2.82536L4.96412 2.21138C4.99029 2.05934 5.02237 1.87293 5.06375 1.70905C5.11264 1.51542 5.19781 1.25001 5.38085 0.981205C5.61221 0.641453 5.93242 0.37176 6.30656 0.201536C6.60257 0.0668574 6.87857 0.0280498 7.07774 0.0127871ZM9.56653 2.49612C9.50458 2.13703 9.47361 1.95749 9.38233 1.82342C9.30519 1.71017 9.1985 1.62027 9.07378 1.56353C8.92609 1.49636 8.74391 1.49636 8.37955 1.49636H7.62046C7.2561 1.49636 7.07385 1.49636 6.92623 1.56353C6.80151 1.62027 6.69482 1.71017 6.61769 1.82342C6.52641 1.95749 6.4954 2.13703 6.43345 2.49612L6.31671 3.17272C6.27506 3.41415 6.25424 3.53486 6.21012 3.62765C6.1668 3.71876 6.13138 3.76856 6.05952 3.83936C5.98633 3.91147 5.85091 3.98633 5.58008 4.13605C5.5601 4.1471 5.54022 4.15827 5.52043 4.16957C5.26137 4.31753 5.13184 4.39151 5.03564 4.41656C4.94117 4.44116 4.88233 4.44622 4.78503 4.43812C4.68598 4.42988 4.575 4.38971 4.35306 4.30939L3.59473 4.03495C3.25863 3.91331 3.09058 3.85249 2.93126 3.86421C2.79666 3.87411 2.66723 3.92025 2.55671 3.99773C2.42591 4.08942 2.33422 4.24283 2.15085 4.54965L1.80716 5.12471C1.61357 5.44863 1.51678 5.61059 1.5001 5.77646C1.48602 5.91651 1.51173 6.05768 1.57427 6.18378C1.64835 6.33312 1.79602 6.45056 2.09137 6.68543L2.63371 7.11675C2.82212 7.26654 2.91632 7.3415 2.97537 7.42178C3.03921 7.50865 3.06644 7.56506 3.09465 7.66905C3.12076 7.76527 3.12076 7.92014 3.12076 8.22988C3.12076 8.53963 3.12076 8.6945 3.09465 8.79079C3.06643 8.89478 3.03921 8.95119 2.97539 9.03798C2.91632 9.11833 2.82212 9.19323 2.6337 9.34309L2.09141 9.77433C1.79606 10.0093 1.64839 10.1266 1.5743 10.2761C1.51176 10.4021 1.48605 10.5433 1.50013 10.6834C1.51681 10.8492 1.6136 11.0111 1.80719 11.3351L2.15088 11.9101C2.33426 12.217 2.42594 12.3704 2.55674 12.4621C2.66727 12.5396 2.79669 12.5857 2.9313 12.5956C3.09061 12.6073 3.25866 12.5465 3.59477 12.4249L4.35307 12.1504C4.575 12.0701 4.68598 12.0299 4.78504 12.0217C4.88233 12.0136 4.94118 12.0186 5.03565 12.0432C5.13185 12.0683 5.26137 12.1423 5.52043 12.2902C5.54023 12.3015 5.56011 12.3127 5.58008 12.3237C5.85091 12.4734 5.98633 12.5483 6.05951 12.6205C6.13138 12.6912 6.1668 12.7411 6.21012 12.8322C6.25424 12.925 6.27506 13.0456 6.31671 13.2871L6.43345 13.9636C6.4954 14.3228 6.52641 14.5023 6.61769 14.6364C6.69482 14.7496 6.80151 14.8395 6.92623 14.8962C7.07385 14.9634 7.2561 14.9634 7.62046 14.9634H8.37955C8.74391 14.9634 8.92609 14.9634 9.07378 14.8962C9.1985 14.8395 9.30519 14.7496 9.38233 14.6364C9.47361 14.5023 9.50458 14.3228 9.56653 13.9636L9.68332 13.2871C9.72492 13.0456 9.74579 12.925 9.78986 12.8322C9.83318 12.7411 9.86864 12.6912 9.94046 12.6205C10.0137 12.5483 10.1491 12.4734 10.4199 12.3237C10.4399 12.3127 10.4598 12.3015 10.4795 12.2902C10.7386 12.1423 10.8681 12.0683 10.9643 12.0432C11.0588 12.0186 11.1176 12.0136 11.215 12.0217C11.314 12.0299 11.425 12.0701 11.6469 12.1504L12.4052 12.4249C12.7413 12.5465 12.9094 12.6074 13.0687 12.5956C13.2033 12.5857 13.3327 12.5396 13.4433 12.4621C13.574 12.3704 13.6658 12.217 13.8491 11.9101L14.1928 11.3351C14.3864 11.0112 14.4832 10.8492 14.4999 10.6834C14.514 10.5433 14.4882 10.4021 14.4257 10.2761C14.3516 10.1267 14.2039 10.0093 13.9086 9.77433L13.3663 9.34309C13.1779 9.19323 13.0837 9.11833 13.0246 9.03798C12.9608 8.95119 12.9336 8.89478 12.9053 8.79079C12.8792 8.69457 12.8792 8.53963 12.8792 8.22988C12.8792 7.92014 12.8792 7.76527 12.9053 7.66905C12.9336 7.56506 12.9608 7.50865 13.0246 7.42178C13.0837 7.3415 13.1779 7.26654 13.3663 7.11675L13.9086 6.68543C14.204 6.45055 14.3517 6.33311 14.4257 6.18376C14.4883 6.05767 14.514 5.9165 14.4999 5.77645C14.4832 5.61058 14.3865 5.44862 14.1928 5.1247L13.8491 4.54964C13.6658 4.24283 13.5741 4.08941 13.4433 3.99772C13.3327 3.92024 13.2034 3.8741 13.0687 3.8642C12.9094 3.85248 12.7414 3.91329 12.4052 4.03494L11.647 4.30938C11.425 4.38971 11.314 4.42987 11.215 4.43811C11.1176 4.44622 11.0588 4.44115 10.9643 4.41655C10.8681 4.3915 10.7386 4.31752 10.4796 4.16957C10.4598 4.15827 10.4399 4.1471 10.42 4.13605C10.1491 3.98633 10.0137 3.91147 9.94046 3.83936C9.86864 3.76856 9.83318 3.71876 9.78986 3.62765C9.74579 3.53486 9.72492 3.41414 9.68332 3.17272L9.56653 2.49612Z" fill="#151515"/>
</svg>
