<svg width="16" height="16" viewBox="0 0 16 16" fill="none" xmlns="http://www.w3.org/2000/svg">
<path fill-rule="evenodd" clip-rule="evenodd" d="M12.9353 9.60122C12.9353 9.21799 12.783 8.85045 12.512 8.57946C12.241 8.30847 11.8735 8.15622 11.4903 8.15622H11.4886C11.1054 8.15622 10.7379 8.30847 10.4669 8.57946C10.1959 8.85045 10.0437 9.21799 10.0437 9.60122C10.0437 10.2473 10.0437 11.0912 10.0437 11.7373C10.0437 12.1205 10.1959 12.4881 10.4669 12.759C10.7379 13.03 11.1054 13.1823 11.4886 13.1823H11.4903C11.8735 13.1823 12.241 13.03 12.512 12.759C12.783 12.4881 12.9353 12.1205 12.9353 11.7373V9.60122ZM5.9563 9.60122C5.95631 9.21799 5.80406 8.85045 5.53307 8.57946C5.26209 8.30847 4.89456 8.15622 4.51131 8.15622H4.50969C4.12645 8.15622 3.75891 8.30847 3.48792 8.57946C3.21693 8.85045 3.0647 9.21799 3.0647 9.60122C3.0647 10.2473 3.0647 11.0912 3.0647 11.7373C3.0647 12.1205 3.21693 12.4881 3.48792 12.759C3.75891 13.03 4.12645 13.1823 4.50969 13.1823H4.51131C4.89456 13.1823 5.26209 13.03 5.53307 12.759C5.80406 12.4881 5.95631 12.1205 5.9563 11.7373V9.60122ZM11.9978 9.60122V11.7373C11.9978 11.8719 11.9443 12.001 11.8491 12.0961C11.7539 12.1913 11.6249 12.2448 11.4903 12.2448C11.4902 12.2448 11.4886 12.2448 11.4886 12.2448C11.354 12.2448 11.225 12.1913 11.1298 12.0961C11.0346 12.001 10.9811 11.8719 10.9811 11.7373V9.60122C10.9811 9.46663 11.0346 9.33754 11.1298 9.24237C11.225 9.14719 11.354 9.09373 11.4886 9.09372C11.4887 9.09372 11.4902 9.09372 11.4902 9.09372C11.6249 9.09373 11.7539 9.14719 11.8491 9.24237C11.9443 9.33754 11.9978 9.46663 11.9978 9.60122ZM5.0188 9.60122V11.7373C5.0188 11.8719 4.96534 12.001 4.87017 12.0961C4.77499 12.1913 4.64592 12.2448 4.51134 12.2448C4.51128 12.2448 4.5097 12.2448 4.5097 12.2448C4.37508 12.2448 4.246 12.1913 4.15084 12.0961C4.05567 12.001 4.00219 11.8719 4.00219 11.7373V9.60122C4.00219 9.46663 4.05567 9.33754 4.15084 9.24237C4.246 9.14719 4.37508 9.09373 4.50967 9.09372C4.50973 9.09372 4.51131 9.09372 4.51131 9.09372C4.64592 9.09373 4.77499 9.14719 4.87017 9.24237C4.96534 9.33754 5.0188 9.46663 5.0188 9.60122Z" fill="#151515"/>
<path fill-rule="evenodd" clip-rule="evenodd" d="M14.1778 10.697V7.37496C14.1778 4.35468 11.7294 1.90625 8.7091 1.90625C8.23854 1.90625 7.76143 1.90625 7.29087 1.90625C4.27057 1.90625 1.82214 4.35468 1.82214 7.37496C1.82214 9.14121 1.82214 10.697 1.82214 10.697C1.82214 10.9558 2.03217 11.1658 2.29089 11.1658C2.5496 11.1658 2.75964 10.9558 2.75964 10.697V7.37499C2.75966 4.87243 4.78835 2.84375 7.29087 2.84375C7.76143 2.84375 8.23854 2.84375 8.7091 2.84375C11.2116 2.84375 13.2403 4.87243 13.2403 7.37495C13.2403 7.37499 13.2403 10.697 13.2403 10.697C13.2403 10.9558 13.4504 11.1658 13.7091 11.1658C13.9678 11.1658 14.1778 10.9558 14.1778 10.697ZM6.6042 4.23954H9.11662C9.37532 4.23954 9.58537 4.02949 9.58537 3.77079C9.58537 3.51207 9.37532 3.30204 9.11662 3.30204H6.6042C6.34548 3.30204 6.13545 3.51207 6.13545 3.77079C6.13545 4.02949 6.34548 4.23954 6.6042 4.23954Z" fill="#151515"/>
</svg>
