<svg width="16" height="16" viewBox="0 0 16 16" fill="none" xmlns="http://www.w3.org/2000/svg">
<path d="M8 3.9375C8.17249 3.9375 8.3125 3.79749 8.3125 3.625C8.3125 3.45251 8.17249 3.3125 8 3.3125C7.82751 3.3125 7.6875 3.45251 7.6875 3.625C7.6875 3.79749 7.82751 3.9375 8 3.9375Z" fill="#151515"/>
<path d="M15.7559 6.72632L14.4398 6.4314C14.2811 5.7561 14.0173 5.11633 13.6534 4.52405L14.4465 3.31201C14.5276 3.18823 14.5106 3.02454 14.406 2.91992L13.0801 1.59399C12.9755 1.48938 12.8118 1.47253 12.688 1.55359L11.476 2.34656C10.8838 1.98279 10.2438 1.71899 9.5686 1.56018L9.27368 0.244141C9.2417 0.10144 9.11499 0 8.96875 0H7.09375C6.94751 0 6.8208 0.10144 6.78882 0.244141L6.4939 1.56018C5.81873 1.71887 5.17871 1.98279 4.58655 2.34656L3.37451 1.55347C3.25073 1.47253 3.08704 1.48938 2.98242 1.59399L1.65649 2.91992C1.55188 3.02454 1.53503 3.18823 1.61609 3.31201L2.40906 4.52393C2.04578 5.11548 1.78198 5.75488 1.6228 6.42957L0.246704 6.72571C0.102783 6.75671 0 6.88403 0 7.03125V8.90625C0 9.05347 0.102783 9.18066 0.246704 9.21167L1.63647 9.51123C1.79907 10.1805 2.06262 10.8114 2.42212 11.3918L1.61597 12.6256C1.53503 12.7494 1.552 12.913 1.65649 13.0176L2.98242 14.3435C3.08691 14.448 3.25049 14.465 3.37427 14.3842L4.62476 13.5677C5.20422 13.9183 5.82715 14.1738 6.48169 14.3293C6.57166 14.7395 6.77417 15.6774 6.78674 15.7441C6.81409 15.8925 6.94336 16 7.09412 16H8.96875C9.11597 16 9.24304 15.8973 9.27417 15.7535L9.58215 14.329C10.2363 14.1735 10.8588 13.9182 11.4377 13.5677L12.6882 14.3842C12.812 14.465 12.9755 14.448 13.0801 14.3435L14.406 13.0176C14.5105 12.913 14.5275 12.7494 14.4465 12.6256L13.6404 11.3918C14.0002 10.8104 14.2639 10.179 14.4264 9.50952L15.7559 9.21118C15.8986 9.1792 16 9.05249 16 8.90625V7.03125C16 6.88501 15.8986 6.7583 15.7559 6.72632ZM15.375 8.65613L14.0969 8.94287C13.9775 8.96973 13.8848 9.0636 13.8595 9.18335C13.705 9.91675 13.4185 10.6022 13.0078 11.2206C12.9387 11.3247 12.9382 11.4598 13.0066 11.5643L13.7845 12.755L12.8175 13.7222L11.6121 12.9352C11.5085 12.8677 11.375 12.8674 11.2714 12.9346C10.6516 13.3362 9.97375 13.6143 9.25635 13.761C9.13501 13.7859 9.03979 13.88 9.01355 14.0011L8.71655 15.375H7.34753C7.25183 14.927 7.06177 14.0515 7.04651 13.9907C7.01709 13.8744 6.92371 13.785 6.80615 13.761C6.08887 13.6143 5.41089 13.3362 4.79126 12.9346C4.6875 12.8674 4.55396 12.8677 4.45044 12.9352L3.24512 13.7222L2.27795 12.755L3.05603 11.5643C3.12439 11.4598 3.12378 11.3246 3.05469 11.2205C2.64429 10.6028 2.35767 9.91736 2.203 9.18335C2.17761 9.06274 2.08362 8.96826 1.96301 8.94238L0.625 8.65393V7.28369L1.95081 6.99829C2.07214 6.97217 2.1665 6.87671 2.19128 6.755C2.34094 6.01709 2.6272 5.32349 3.04199 4.69336C3.11035 4.58936 3.1106 4.45471 3.04248 4.35046L2.27808 3.18237L3.24487 2.21558L4.41296 2.97998C4.51721 3.0481 4.65186 3.04797 4.75586 2.97949C5.38623 2.56458 6.07983 2.27844 6.81738 2.12915C6.93823 2.10461 7.03333 2.01147 7.0603 1.89111L7.34399 0.625H8.71851L9.0022 1.89111C9.02917 2.01147 9.12427 2.10461 9.24512 2.12915C9.98267 2.27844 10.6763 2.56458 11.3066 2.97949C11.4106 3.04797 11.5454 3.0481 11.6495 2.97998L12.8176 2.21558L13.7844 3.18237L13.0201 4.35046C12.9519 4.45471 12.952 4.58936 13.0205 4.69336C13.4354 5.32373 13.7216 6.01733 13.871 6.75488C13.8954 6.87573 13.9886 6.97083 14.1089 6.9978L15.375 7.28149V8.65613Z" fill="#151515"/>
<path d="M9.32568 3.50268C9.16003 3.45398 8.98645 3.5487 8.93774 3.71423C8.88892 3.87988 8.98364 4.05359 9.14929 4.10229C10.8645 4.60718 12.0625 6.20996 12.0625 8C12.0625 10.2401 10.2401 12.0625 8 12.0625C5.75989 12.0625 3.9375 10.2401 3.9375 8C3.9375 6.20996 5.1355 4.60718 6.85071 4.10229C7.01636 4.05359 7.11108 3.87976 7.06226 3.71423C7.01355 3.5487 6.83984 3.45398 6.67432 3.50268C4.74023 4.07202 3.3125 5.86218 3.3125 8C3.3125 10.5847 5.41528 12.6875 8 12.6875C10.5847 12.6875 12.6875 10.5847 12.6875 8C12.6875 5.86767 11.2651 4.07361 9.32568 3.50268Z" fill="#151515"/>
<path d="M6.4375 6.4375C6.4375 6.90002 6.63965 7.31604 6.96008 7.60242C6.09949 7.9978 5.5 8.86743 5.5 9.875V10.1875C5.5 10.3601 5.63989 10.5 5.8125 10.5H10.1875C10.3601 10.5 10.5 10.3601 10.5 10.1875V9.875C10.5 8.84973 9.88879 7.98999 9.04114 7.60132C9.36084 7.31494 9.5625 6.89941 9.5625 6.4375C9.5625 5.57593 8.86157 4.875 8 4.875C7.13843 4.875 6.4375 5.57593 6.4375 6.4375ZM9.875 9.875H6.125C6.125 8.84106 6.96606 8 8 8C9.0343 8 9.875 8.83679 9.875 9.875ZM8 5.5C8.51697 5.5 8.9375 5.92053 8.9375 6.4375C8.9375 6.95447 8.51697 7.375 8 7.375C7.48303 7.375 7.0625 6.95447 7.0625 6.4375C7.0625 5.92053 7.48303 5.5 8 5.5Z" fill="#151515"/>
</svg>
