<svg width="133" height="117" viewBox="0 0 133 117" fill="none" xmlns="http://www.w3.org/2000/svg">
<path d="M44.8962 39.1483C42.9395 36.7802 42.6335 34.0225 41.7605 31.4035C40.1283 26.5118 36.2149 21.8091 29.9536 18.7972C23.6939 15.7853 14.9441 14.7066 7.75289 16.7001C4.90484 17.4894 2.2625 18.8139 1.13365 20.6602C-2.1074 25.9549 8.24958 31.0858 7.59067 36.7534C7.16589 40.4042 2.26417 43.2472 0.998189 46.8177C-0.593907 51.3047 4.1088 55.9271 10.3166 58.2718C18.5163 61.369 38.1064 64.3693 47.0067 60.6198C60.2803 55.0274 49.8916 45.1905 44.8979 39.1483H44.8962Z" fill="#F9E9D4"/>
<path d="M41.2064 65.1835C38.2397 66.0766 35.7261 67.6202 32.2342 67.7188C29.0048 67.8092 25.3641 66.6485 21.8705 65.8943C15.0439 64.4209 7.6353 64.8892 5.83082 69.2357C4.24206 73.0604 7.75906 78.6879 12.8113 82.5477C17.8635 86.4076 24.1014 88.8225 30.1287 90.7424C33.8614 91.9314 37.7547 93.0502 41.0877 95.2394C44.9843 97.7998 47.4394 101.374 50.4998 104.536C55.8731 110.087 64.7016 114.865 71.3358 113.921C77.2661 113.079 79.3816 108.04 79.0254 102.905C78.6575 97.6091 76.3279 91.9582 75.9248 86.6534C75.6907 83.5662 76.8864 80.2098 74.9883 76.85C69.1701 66.5582 49.7021 62.6248 41.2081 65.1819L41.2064 65.1835Z" fill="#FFA593"/>
<path d="M91.5448 6.85947C100.858 3.9278 109.484 12.6827 111.78 15.0139C112.27 15.5106 120.624 24.6552 122.244 35.7697C122.47 37.3217 122.614 38.9238 123.214 40.3236C124.999 44.4761 130.113 45.5029 132.31 49.3845C132.682 50.04 132.964 50.7943 132.938 51.592C132.876 53.3948 131.324 54.7461 129.862 55.6191C125.751 58.0741 121.025 59.116 116.532 58.5574C113.886 58.2296 111.317 57.3634 108.64 57.3516C103.133 57.3266 98.0051 60.8502 93.1536 64.0846C88.302 67.319 82.8953 70.5032 77.4768 69.6987C72.5216 68.9646 68.6417 65.0412 65.21 61.1563C62.8151 58.4454 60.4822 55.6659 58.2128 52.8212C55.7427 49.724 53.2843 46.4143 52.3344 42.3505C51.3845 38.285 52.3444 33.2545 55.5604 30.7242C61.4605 26.08 68.5129 32.9601 74.7742 27.8862C79.1358 24.3525 77.1457 19.3604 83.3351 12.6576C84.7332 11.1441 87.5194 8.12545 91.5431 6.85947H91.5448Z" fill="#C7F0B6"/>
<path d="M61.7817 114.846C58.4537 112.786 56.5405 109.005 57.1309 105.653C57.4519 103.829 58.432 102.213 59.3785 100.653C60.0023 99.6259 60.6044 98.6325 61.0258 97.599C55.4434 97.1023 49.443 93.3395 43.1498 86.3808C43.0629 86.2888 43.0328 86.15 43.0813 86.0262C43.0813 86.0262 43.0846 86.0162 43.088 86.0128C44.5178 82.842 46.5682 80.2348 49.1787 78.2631C51.2642 76.6894 53.4215 75.0622 56.0773 75.395C57.0439 75.5154 57.6928 75.8532 58.3216 76.181C59.0206 76.5439 59.7431 76.9202 60.974 77.0205C62.163 77.1175 62.8838 76.8867 63.72 76.6191C64.205 76.4636 64.705 76.3047 65.3405 76.1893C69.2003 75.4869 72.6437 77.4888 75.1556 78.9521C78.1191 80.6763 80.6711 83.1648 82.5375 86.1466C82.5676 86.1951 82.5843 86.247 82.5877 86.3022C82.591 86.3423 82.586 86.3841 82.5726 86.4242C82.5726 86.4242 82.5726 86.4259 82.5726 86.4276C82.5642 86.451 82.5542 86.4744 82.5425 86.4962C82.5174 86.5396 82.4823 86.5748 82.4422 86.6032C81.8568 87.2755 79.4185 89.5867 76.522 91.7307C73.2843 94.1272 68.4377 97.0856 63.7284 97.5823C63.0661 97.6525 62.3971 97.6726 61.7198 97.6458C61.2683 98.8215 60.601 99.9219 59.9455 101.001C59.0307 102.509 58.0841 104.069 57.7847 105.77C57.2412 108.859 59.029 112.358 62.1296 114.279C64.6732 115.855 68.028 116.524 72.1036 116.271C74.9533 116.094 77.0755 115.537 78.7847 114.517C80.8869 113.262 82.4756 111.18 83.8787 109.344C90.3943 100.813 97.1306 91.9916 103.25 82.9507C105.705 79.3217 108.203 75.4201 109.399 71.1371C110.555 66.9947 110.289 62.9459 108.693 59.7801C108.483 60.3921 108.269 61.0026 108.049 61.6096C106.705 65.3273 105.088 69.1988 102.389 72.3295C99.4334 75.7545 95.4164 77.7246 91.6536 77.6042C87.2636 77.462 83.3034 74.144 82.8251 70.2056C82.504 67.5582 83.6312 65.1216 84.6346 63.5429C87.7653 58.6144 93.1119 56.0273 97.0453 54.7245C98.5237 54.2345 100.275 53.7579 102.049 53.9418C104.461 54.191 106.859 55.7346 108.461 58.0692C108.484 58.1043 108.508 58.1378 108.531 58.1729C109.792 54.3449 110.862 50.4349 111.725 46.5098C112.051 45.0247 112.319 43.4678 111.71 42.1784C110.18 38.939 105.006 40.0695 102.852 40.705L87.2218 45.3224C83.0007 46.57 78.0606 48.5501 77.3197 52.8297C77.1157 54.0104 77.2796 55.1961 77.4518 56.452C77.5956 57.4956 77.7445 58.5759 77.6625 59.6546C77.5154 61.5645 76.5186 63.4375 74.9282 64.7905C73.3378 66.1434 71.3293 66.8274 69.4211 66.6652C69.2706 66.6518 69.1468 66.5398 69.1201 66.3909C69.0933 66.2421 69.1702 66.0932 69.3074 66.0297C69.8475 65.7772 70.2707 65.2671 70.4697 64.6316C70.6687 63.9961 70.6118 63.3355 70.3141 62.8204C70.0148 62.3053 69.4713 61.9274 68.819 61.7852C68.1685 61.6431 67.5146 61.7568 67.0279 62.0996C66.2202 62.6682 65.8874 63.4977 65.5362 64.3757C65.1231 65.4059 64.6967 66.4712 63.4691 67.0682C62.0359 67.7656 60.198 67.3124 59.0139 66.5532C57.6426 65.6752 57.1175 64.3256 56.696 63.2419C56.308 62.2435 56.0388 61.6247 55.4568 61.521C54.6273 61.3738 53.7042 62.2869 53.3312 62.792C52.6957 63.6516 52.6773 64.6149 52.6656 65.2537C52.6573 65.732 52.6489 66.1451 52.2726 66.2454C52.0803 66.2956 51.8646 66.222 51.6137 66.018C50.6103 65.2019 48.7272 62.1063 48.9179 58.6462C49.0633 56.0038 50.2792 54.4703 51.5652 52.8447C52.7894 51.3011 54.0537 49.704 54.6641 46.9312C55.1842 44.5699 55.1859 40.5679 53.0603 39.2283C51.8629 38.4724 50.1136 38.6313 48.6018 39.23C48.2355 39.6782 47.7071 39.8805 47.1953 39.9625C45.9293 40.8037 45.3005 41.7553 44.6349 42.762C43.9158 43.8491 43.1733 44.9712 41.6096 46.0583C40.3904 46.9045 39.1311 47.0851 38.2431 46.5399C36.6861 45.585 37.1527 43.2119 37.3049 42.4309L39.0559 33.5122C39.086 33.3566 39.2231 33.2429 39.382 33.2429H39.3837C39.5425 33.2429 39.678 33.3533 39.7115 33.5088C40.347 36.5508 43.0512 38.9925 46.1417 39.3169C46.3641 39.3404 46.6551 39.3537 46.9545 39.322C47.3274 39.0845 47.7372 38.8704 48.1703 38.6881C48.3476 38.4105 48.386 38.1195 48.289 37.8018C48.0265 36.9422 46.8291 36.0759 45.7805 35.6628C45.6383 35.6076 45.553 35.4638 45.5714 35.3116C45.5898 35.1611 45.7069 35.0407 45.8574 35.019C48.1084 34.7029 50.438 34.2196 52.2241 32.8365C53.756 31.6508 54.94 29.3847 54.2761 27.3863C53.2443 27.7559 52.0652 27.7308 51.0568 27.3093C49.5667 28.4031 48.0716 29.4767 46.5866 30.5437C45.5029 31.3213 43.8974 32.0572 42.6348 31.7879C42.0528 31.6642 41.6062 31.3414 41.3086 30.8313C40.6329 29.6741 41.1714 28.2258 42.8639 26.6404L48.8627 21.0246C49.2707 20.6416 49.8878 20.0646 50.6688 20.0479C51.2006 20.0362 51.6572 20.2653 52.0017 20.7102C52.5235 21.3825 52.7058 22.4979 52.4465 23.4227C52.3328 23.8275 52.174 24.2255 52.0218 24.6085C51.8144 25.1286 51.6137 25.6303 51.5284 26.1286C57.4118 21.7704 63.143 17.0728 67.7103 11.2864C68.421 10.385 69.0649 9.41331 68.9629 8.41156C68.891 7.70248 68.4561 7.22083 68.1049 6.93987C67.4243 6.39803 66.456 6.13212 65.578 6.24417C64.0511 6.43984 62.7199 7.42319 61.3787 8.50187C57.1359 11.9102 52.9884 15.5442 49.0516 19.2987C44.4025 23.7338 39.9205 28.669 38.6144 34.7112C38.5157 35.1678 38.4338 35.6411 38.3535 36.0993C38.1428 37.3001 37.927 38.5426 37.3936 39.6798C36.6778 41.2084 35.0389 42.747 33.1324 42.5162C32.9517 42.4944 32.823 42.3322 32.8397 42.1516C32.9534 40.9692 33.1926 39.8069 33.5488 38.6848C33.2143 39.1347 32.8765 39.5778 32.5387 40.011C31.6523 41.1549 30.6472 42.451 29.2658 43.2738C26.7322 44.7839 23.1884 44.4311 20.4491 42.3958C18.3085 40.8054 16.6578 38.342 15.3986 34.8668C14.7781 33.1509 14.4905 31.0103 15.1895 29.4717C14.5841 28.0853 14.3818 26.4648 14.6861 24.9613C14.9788 23.5114 15.6812 22.3591 16.7047 21.6216C15.4052 20.456 14.4604 18.914 14.8835 17.0059C15.0273 16.3587 15.3266 15.7767 15.6176 15.2148C15.8451 14.7749 16.0591 14.3602 16.203 13.9187C16.7381 12.2781 16.2464 10.5706 15.728 8.76276C15.5708 8.21422 15.4069 7.64729 15.2781 7.08872C14.6694 4.44804 15.3501 1.29061 17.8101 0.640059C18.7282 0.397565 19.6848 0.589887 20.5812 0.835726C32.4099 4.0634 40.9524 16.6062 39.6262 28.7961C39.6211 28.8379 39.6094 28.878 39.591 28.9131C39.6529 29.0737 39.6981 29.2426 39.7198 29.4182C39.7315 29.5135 39.7365 29.6072 39.7349 29.6992C41.8253 25.6269 45.1634 22.0832 48.5917 18.8154C52.5435 15.0458 56.7044 11.4018 60.9622 7.98009C62.3804 6.83953 63.7952 5.79765 65.496 5.58191C66.5463 5.44812 67.7069 5.76754 68.5247 6.41642C69.1736 6.93151 69.5566 7.59879 69.6318 8.34466C69.7572 9.58389 69.0365 10.691 68.2387 11.7011C63.5661 17.6246 57.7062 22.3993 51.709 26.831C52.5653 27.0785 53.5185 27.015 54.3296 26.6454C54.4116 26.6086 54.5036 26.6053 54.5889 26.637C54.6725 26.6688 54.7394 26.734 54.7762 26.816C55.8231 29.2192 54.4919 31.9318 52.6372 33.3667C51.0133 34.6243 49.0098 35.1795 47.0063 35.5207C47.886 36.0458 48.6837 36.7883 48.9346 37.6061C49.0165 37.872 49.0349 38.1363 48.9931 38.3921C50.5283 37.9239 52.2057 37.8954 53.4232 38.663C55.6859 40.0913 55.9936 44.0247 55.323 47.0751C54.6808 49.9984 53.3078 51.7309 52.0954 53.2595C50.8227 54.865 49.7239 56.2514 49.5918 58.6813C49.4062 62.0645 51.2909 64.834 51.9984 65.4644C52.0017 65.3909 52.0034 65.3122 52.0034 65.2403C52.0167 64.5614 52.0385 63.4258 52.7994 62.394C52.9349 62.21 54.1641 60.6112 55.5789 60.8621C56.5606 61.0377 56.9302 61.9893 57.3232 62.9977C57.7296 64.0429 58.1911 65.2286 59.3785 65.9896C60.3736 66.6267 61.9874 67.0482 63.1815 66.4662C64.1765 65.9812 64.5378 65.0815 64.9191 64.1265C65.292 63.1967 65.6767 62.2351 66.6466 61.5528C67.2872 61.1029 68.1334 60.949 68.9662 61.133C69.8007 61.317 70.5031 61.8086 70.8961 62.4859C71.2891 63.1633 71.3677 64.0178 71.1119 64.834C70.9714 65.2805 70.7423 65.6802 70.4463 66.0046C71.8761 65.8959 73.311 65.2939 74.4984 64.2837C75.955 63.0445 76.8665 61.3404 76.9986 59.6061C77.0755 58.5994 76.9317 57.5558 76.7929 56.5474C76.6206 55.2964 76.4417 54.002 76.6641 52.7193C77.4669 48.0768 82.6295 45.988 87.0362 44.6852L102.666 40.0678C104.986 39.3822 110.566 38.1898 112.319 41.8974C113.018 43.3775 112.734 45.0615 112.383 46.6586C111.476 50.7861 110.339 54.8984 108.994 58.9188C110.931 62.312 111.322 66.7689 110.051 71.3227C108.829 75.7027 106.299 79.6562 103.812 83.332C97.6825 92.3896 90.9395 101.218 84.4189 109.757C82.9807 111.642 81.3484 113.778 79.1359 115.099C77.3331 116.176 75.1138 116.763 72.1537 116.947C71.5818 116.982 71.0232 117 70.478 117C67.0062 117 64.0879 116.281 61.7867 114.856L61.7817 114.846ZM71.6336 86.7035C67.936 85.3757 63.6029 85.3255 62.2567 88.207C61.6563 89.4914 61.8536 90.9279 62.0627 92.4481C62.1965 93.4181 62.3336 94.4215 62.255 95.4049C62.2115 95.9484 62.1045 96.4718 61.9506 96.9819C62.5259 96.997 63.0962 96.9736 63.6615 96.915C70.0967 96.2377 76.7896 90.9229 80.0189 88.0113C77.5789 88.6753 74.5686 87.7588 71.632 86.7035H71.6336ZM71.8594 86.0747C75.3898 87.3424 79.0172 88.411 81.4153 86.5965C79.5038 86.4226 77.6542 86.058 75.9065 85.5061C74.1706 84.9576 72.9197 84.3522 71.9129 83.8655C70.4095 83.138 69.3224 82.6112 67.62 82.7183C66.4727 82.7902 65.9543 83.0494 65.3522 83.3488C64.7552 83.6464 64.0779 83.9843 62.7283 84.118C61.0994 84.2786 60.1662 83.8923 59.1795 83.4825C58.2748 83.1063 57.3399 82.7183 55.7127 82.7183H55.6909C54.2761 82.7216 52.9683 83.0946 50.3778 83.8722C48.2171 84.5211 46.0581 85.3255 43.9526 86.267C50.0868 92.9599 55.8966 96.5421 61.2683 96.9485C61.4339 96.4334 61.5493 95.9032 61.5927 95.353C61.6646 94.4399 61.5325 93.4733 61.4038 92.5401C61.1914 90.9898 60.9706 89.386 61.6546 87.9244C62.6062 85.8874 64.6699 85.1466 66.956 85.1466C68.5849 85.1466 70.3275 85.5228 71.8644 86.0747H71.8594ZM65.4643 76.8483C64.8706 76.957 64.3906 77.1091 63.9274 77.258C63.0611 77.5356 62.2433 77.7965 60.9221 77.6878C59.5575 77.5757 58.738 77.151 58.0155 76.7747C57.4118 76.4619 56.8432 76.1659 55.9953 76.0589C53.6072 75.7612 51.5602 77.3031 49.5818 78.7966C47.2873 80.5275 45.441 82.7718 44.0847 85.4743C46.0865 84.598 48.1335 83.8455 50.1822 83.23C52.8345 82.434 54.1775 82.051 55.6859 82.0477H55.7093C57.4703 82.0477 58.5139 82.4808 59.4337 82.8638C60.3803 83.2568 61.1981 83.5963 62.6597 83.4508C63.8872 83.3287 64.4792 83.0343 65.0529 82.7484C65.6633 82.444 66.2954 82.1296 67.5765 82.0477C69.4562 81.9289 70.6687 82.5159 72.2039 83.2601C73.2425 83.7635 74.4181 84.3321 76.1072 84.8656C77.8515 85.4158 79.6995 85.777 81.6127 85.9393C79.8416 83.2969 77.5053 81.0877 74.8228 79.5274C72.6304 78.2514 69.978 76.7078 66.9861 76.7078C66.4878 76.7078 65.9794 76.7513 65.4626 76.8449L65.4643 76.8483ZM107.907 58.4472C106.414 56.2714 104.198 54.8365 101.977 54.6057C100.331 54.4352 98.6658 54.89 97.2527 55.3583C93.4229 56.6276 88.2219 59.1379 85.1966 63.9008C84.2517 65.3875 83.1897 67.6736 83.4857 70.1237C83.9256 73.7477 87.5981 76.8014 91.672 76.9335C91.7757 76.9369 91.8793 76.9386 91.983 76.9386C95.4599 76.9386 99.1374 75.0689 101.88 71.8914C104.511 68.8426 106.096 65.038 107.419 61.3805C107.707 60.5878 107.984 59.7901 108.255 58.989C108.143 58.8051 108.028 58.6244 107.906 58.4472H107.907ZM39.4506 34.9437L37.9555 42.5547C37.5993 44.3692 37.805 45.4846 38.586 45.9646C39.5576 46.56 40.8487 45.7623 41.2216 45.503C42.6816 44.4896 43.3873 43.4209 44.0713 42.3874C44.6082 41.5763 45.1584 40.7435 46.0564 39.9759C43.1432 39.6665 40.546 37.6329 39.4506 34.9437ZM35.3917 34.7112C36.7296 32.3917 37.6578 29.9333 37.5825 27.3946C35.8199 25.6002 33.6826 24.1703 31.3479 23.2304C30.7877 23.0047 30.1973 22.8006 29.6287 22.6016C28.1587 22.0915 26.6402 21.5631 25.3642 20.6015C23.5447 19.2284 22.3556 16.5092 23.6116 14.5107C23.6918 14.3836 23.8474 14.3251 23.9895 14.3685C32.3698 16.8637 37.1092 20.7051 38.0759 25.7875C38.1612 26.2323 38.2147 26.6738 38.2381 27.1137C38.4254 27.311 38.6094 27.5117 38.79 27.7157C38.8686 27.8044 38.9455 27.8963 39.0208 27.9883C39.9021 16.3453 31.6841 4.55842 20.3973 1.47792C19.5912 1.25716 18.7383 1.08156 17.974 1.28392C15.7932 1.86089 15.4604 4.93638 15.922 6.93653C16.0474 7.47671 16.208 8.03528 16.3618 8.57545C16.887 10.4 17.4288 12.2864 16.8301 14.1227C16.6696 14.616 16.4321 15.0743 16.203 15.5191C15.9203 16.0677 15.6528 16.5861 15.5273 17.148C15.1828 18.7033 15.9839 20.1014 17.3034 21.2487C17.4405 21.1784 17.5827 21.1149 17.7282 21.058C19.3019 20.4426 21.0461 20.6717 22.5463 20.9761C27.9681 22.0782 33.0638 24.5516 37.2832 28.1288C37.3986 28.2275 37.4337 28.3914 37.3685 28.5285C37.3016 28.6656 37.1527 28.7409 37.0022 28.7125C31.5737 27.6505 26.1987 26.1119 21.0311 24.1402C20.2417 23.8392 18.6229 23.1435 17.2298 22.0648C16.2648 22.7003 15.6026 23.7489 15.3317 25.0918C15.0875 26.3076 15.2029 27.6037 15.6143 28.7576C15.8685 28.4382 16.1896 28.1639 16.5843 27.9515C17.3937 27.515 18.3887 27.418 19.7166 27.6488C23.2988 28.2693 26.5148 30.5253 28.3159 33.6844C28.3711 33.7797 28.3745 33.8968 28.326 33.9971C28.2775 34.0958 28.1821 34.166 28.0734 34.1811C24.5882 34.6828 19.7685 34.6343 16.6027 31.5622C16.218 31.1892 15.8819 30.7561 15.5976 30.2811C15.2413 31.5822 15.5206 33.2596 16.0207 34.6393C17.2331 37.9874 18.8085 40.3488 20.8404 41.8589C23.3256 43.7069 26.6469 44.0531 28.9163 42.7001C30.189 41.9426 31.1523 40.6983 32.0018 39.6012C33.0153 38.2935 34.0438 36.9121 34.9352 35.4738C35.0807 35.2163 35.2329 34.9621 35.3917 34.7112ZM38.1712 32.3047L38.1026 32.3733C37.2982 33.1877 36.5858 34.0824 35.9754 35.039C35.8232 35.3033 35.666 35.5658 35.5038 35.8267C34.4619 37.6814 33.7863 39.7367 33.5337 41.8673C34.9703 41.8539 36.2062 40.618 36.7798 39.3922C37.2748 38.3353 37.4755 37.1914 37.6862 35.9789C37.7682 35.514 37.8518 35.034 37.9521 34.5641C38.1762 33.5255 38.4906 32.5204 38.8803 31.5438C38.6512 31.8147 38.402 32.0656 38.1695 32.2997L38.1712 32.3047ZM19.6029 28.3077C18.4306 28.1054 17.5726 28.179 16.902 28.5402C16.4739 28.771 16.1528 29.0971 15.922 29.4884C16.2197 30.0905 16.6043 30.634 17.0659 31.0805C19.8905 33.8232 24.1902 33.9871 27.4747 33.5841C25.7321 30.823 22.8239 28.8646 19.6012 28.3061L19.6029 28.3077ZM37.3601 32.1793C37.4487 32.0856 37.5374 31.9936 37.626 31.9033L37.6946 31.8331C38.3769 31.1424 39.1512 30.3614 39.0459 29.4951C38.984 28.9884 38.6211 28.5369 38.2866 28.1539C38.2732 28.1388 38.2598 28.1238 38.2465 28.1087C38.1913 29.5001 37.8668 30.8581 37.3584 32.1776L37.3601 32.1793ZM51.393 24.3559C51.5401 23.988 51.6923 23.6084 51.796 23.2388C51.9984 22.5163 51.8595 21.6233 51.4665 21.1166C51.2541 20.8423 50.9882 20.7035 50.6755 20.7135C50.1905 20.7235 49.754 21.0965 49.3109 21.5096L43.3121 27.1254C42.4909 27.893 41.2132 29.353 41.8772 30.4902C42.0795 30.8364 42.3689 31.0454 42.7652 31.129C43.8138 31.3531 45.2637 30.6574 46.1869 29.9952C47.7238 28.8914 49.2707 27.7809 50.811 26.6487C50.7976 25.8443 51.0986 25.0901 51.393 24.3559ZM17.9723 21.6818C17.9439 21.6935 17.9155 21.7036 17.8887 21.7153C18.8821 22.4494 20.0762 23.0598 21.2719 23.5147C25.9813 25.3125 30.863 26.7474 35.8015 27.786C31.8848 24.7406 27.2824 22.6217 22.4141 21.6316C21.6449 21.4744 20.8087 21.339 19.9775 21.339C19.2935 21.339 18.6112 21.431 17.974 21.6801L17.9723 21.6818ZM25.7672 20.068C26.958 20.966 28.3628 21.4544 29.8478 21.9695C30.4248 22.1701 31.0218 22.3775 31.5971 22.6083C33.7729 23.4846 35.7831 24.7707 37.4956 26.3745C37.4738 26.2206 37.4487 26.0651 37.4186 25.9096C36.5122 21.1433 32.0152 17.5026 24.0531 15.0843C23.2152 16.74 24.2504 18.9224 25.7656 20.0663L25.7672 20.068Z" fill="#884C42"/>
<path d="M91.1585 34.6946C87.665 34.2464 84.3403 33.0139 81.1226 31.7763C80.2898 32.3349 79.4687 32.9068 78.6559 33.4755C78.5104 33.5775 78.3081 33.5474 78.1994 33.4052C78.0906 33.2631 78.1124 33.0607 78.2479 32.9453C79.4101 31.962 80.1527 30.6358 80.937 29.231C81.5993 28.0453 82.2849 26.8194 83.2482 25.821C85.0895 23.9078 87.9242 22.876 91.0281 22.993C93.4346 23.0817 95.9783 23.8092 99.0337 25.2792C99.5338 25.52 100.039 25.7759 100.527 26.0217C101.44 26.4833 102.37 26.9532 103.323 27.3546C103.459 27.1756 103.586 26.9749 103.711 26.7709C105.227 24.3025 106.942 21.5046 107.432 18.4659C107.543 17.7819 107.578 17.0494 107.529 16.3103C107.509 16.3504 107.483 16.3872 107.446 16.419C107.305 16.5394 107.095 16.5243 106.974 16.3838C105.921 15.163 104.666 14.2516 103.246 13.6729C100.51 12.5575 97.9835 13.0625 96.4717 13.3635C96.363 13.3853 96.2476 13.3987 96.1121 13.4154C95.3595 13.504 93.9598 13.6713 90.6769 15.6446C87.5295 17.5361 84.1396 18.986 80.5975 19.9527C79.4553 20.2654 78.1241 20.5781 76.7845 20.3474C75.2978 20.0915 74.1121 19.1349 73.7642 17.909C73.1003 15.5711 75.4132 13.6094 77.798 12.5541C84.6831 9.50705 92.2907 8.18254 99.7997 8.72438C101.529 8.84981 103.338 9.09398 104.847 10.0338C107.745 11.84 108.565 15.6246 108.091 18.573C107.581 21.7421 105.829 24.6002 104.28 27.1204C104.178 27.286 104.073 27.4532 103.961 27.6121C104.566 27.8429 105.181 28.0402 105.807 28.1857C105.872 28.2008 105.937 28.2158 106.002 28.2292C106.75 27.6723 107.645 27.1572 108.861 26.7141C109.672 26.4181 110.668 26.1354 111.463 25.9765C112.689 25.7324 113.261 25.7926 113.438 26.1856C113.612 26.5719 113.239 26.9432 112.991 27.1907L112.95 27.2325C111.388 28.8112 108.884 29.4367 106.173 28.945C105.604 29.3915 105.119 29.8665 104.619 30.3531C103.86 31.094 103.074 31.8599 101.949 32.5891C99.6257 34.0926 96.8145 34.8652 93.7122 34.8652C92.8794 34.8652 92.0265 34.81 91.1569 34.698L91.1585 34.6946ZM103.512 28.154C103.251 28.4115 102.95 28.6105 102.579 28.7059C101.755 28.9149 100.987 28.4951 100.31 28.1272L100.137 28.0336C98.7093 27.2643 97.057 26.8244 95.2843 26.7157C96.363 27.5536 97.0051 28.8212 96.9199 30.0772C96.8078 31.7161 95.4264 33.248 93.5617 33.8032C92.9513 33.9839 92.3242 34.0675 91.692 34.0859C94.428 34.3752 98.2243 34.2046 101.586 32.0272C102.656 31.3348 103.417 30.5923 104.153 29.8748C104.543 29.4952 104.925 29.1223 105.342 28.7627C104.718 28.6005 104.108 28.3931 103.511 28.1573L103.512 28.154ZM91.0799 27.0469L91.4562 27.0418C91.6419 27.0452 91.7924 27.1873 91.7957 27.3713C91.7974 27.5135 91.7104 27.6372 91.585 27.6874C91.9613 28.1707 92.1319 28.8028 92.0064 29.3581C91.7756 30.3816 90.8709 31.2361 89.4577 31.7663C89.0062 31.9352 88.4125 32.1158 87.8138 32.0121C87.1967 31.9051 86.6799 31.5071 86.3538 30.89C86.0177 30.2511 85.9408 29.4852 86.1297 28.8129C84.643 29.5404 83.2198 30.3983 81.8334 31.3064C84.0526 32.0723 86.3388 32.6761 88.6433 33.1059C90.212 33.3985 91.871 33.6076 93.3728 33.1627C94.6839 32.7731 96.1455 31.6275 96.2543 30.0337C96.3446 28.7259 95.4047 27.3412 94.02 26.7408C93.9882 26.7274 93.9564 26.7141 93.9263 26.7007C92.9965 26.7308 92.0432 26.8479 91.0799 27.0502V27.0469ZM80.4052 31.4435C80.4052 31.4435 80.3968 31.4569 80.3918 31.4619C80.3985 31.4586 80.4035 31.4536 80.4102 31.4502C80.4086 31.4485 80.4069 31.4452 80.4052 31.4435ZM89.7939 27.7359H89.7889C89.635 27.7359 89.4996 27.6305 89.4628 27.4783C89.4628 27.475 89.4628 27.4716 89.4611 27.4683C89.2637 27.5302 89.0647 27.5937 88.8674 27.6623C88.2553 27.8747 87.6549 28.1138 87.0646 28.3747C86.9927 28.4851 86.9274 28.6022 86.8706 28.7259C86.6164 29.2828 86.6448 30.0086 86.9458 30.5772C87.1716 31.0054 87.5211 31.2813 87.9275 31.3515C88.3657 31.4268 88.8273 31.2863 89.2219 31.1392C89.9143 30.8799 91.1117 30.2846 91.3542 29.2109C91.4579 28.7527 91.2305 28.1824 90.814 27.8529C90.7622 27.8111 90.6936 27.7643 90.6134 27.7242L89.7956 27.7359H89.7939ZM89.4995 26.0418C90.6836 25.6872 92.4078 25.4113 94.0434 26.0267C96.3947 25.9715 98.6006 26.4465 100.454 27.4449L100.629 27.5402C101.226 27.8663 101.843 28.2025 102.414 28.0586C102.561 28.0219 102.695 27.9566 102.818 27.868C101.932 27.4834 101.071 27.0469 100.223 26.6187C99.7378 26.3729 99.2361 26.1204 98.7411 25.8812C95.7709 24.4513 93.3126 23.7456 91.0013 23.6603C88.0847 23.5516 85.4374 24.5082 83.7282 26.2843C82.8268 27.2225 82.1612 28.4098 81.519 29.5571C81.2648 30.0103 81.0089 30.4685 80.7347 30.9184C80.7531 30.9217 80.7715 30.9268 80.7898 30.9335C80.8735 30.9652 80.9571 30.9953 81.0407 31.0254C82.8201 29.8414 84.6614 28.7242 86.6231 27.8396C87.3556 26.8579 88.5496 26.3244 89.4995 26.0401V26.0418ZM109.091 27.3412C108.242 27.6523 107.556 28.0001 106.967 28.3781C108.846 28.5687 111.023 28.2259 112.475 26.7609L112.52 26.7157C112.565 26.6706 112.655 26.5803 112.725 26.4983C112.17 26.4649 110.583 26.7977 109.091 27.3429V27.3412ZM89.6919 26.6823C89.5196 26.7341 89.3373 26.7943 89.1534 26.8646C89.6935 26.694 90.2337 26.5485 90.7722 26.4298C90.3792 26.495 90.0146 26.5853 89.6935 26.6806L89.6919 26.6823ZM103.497 13.0541C105.016 13.6729 106.355 14.6462 107.478 15.9473C107.484 15.9557 107.491 15.9641 107.498 15.9724C107.284 13.8719 106.369 11.7698 104.492 10.5991C103.106 9.73617 101.395 9.50705 99.7512 9.38831C92.3509 8.8565 84.852 10.1609 78.0672 13.1629C75.9383 14.1044 73.8579 15.7985 74.4047 17.7234C74.7208 18.8372 75.8831 19.5112 76.8949 19.6851C78.099 19.8925 79.3449 19.5965 80.4186 19.3038C83.9005 18.3522 87.2352 16.9274 90.329 15.0677C93.7357 13.0207 95.2291 12.8434 96.0301 12.7481C96.1506 12.7331 96.2559 12.7213 96.3379 12.7046C97.1757 12.5374 98.3129 12.3116 99.6308 12.3116C100.803 12.3116 102.119 12.4906 103.496 13.0525L103.497 13.0541Z" fill="#884C42"/>
<path d="M58.6289 57.0674C57.6272 56.2446 56.5017 54.4887 57.1388 53.1608C58.169 51.0151 62.8015 52.1825 62.9988 52.2343C63.917 52.4718 66.3569 53.1006 66.5158 54.6291C66.6596 56.0088 64.8217 57.126 63.7129 57.5692C63.4353 57.6795 62.5172 58.0107 61.4168 58.0107C60.5254 58.0107 59.5136 57.7933 58.6306 57.0674H58.6289ZM63.4637 56.9487C64.4354 56.5607 65.9439 55.6058 65.8485 54.6994C65.775 53.992 64.7598 53.3799 62.8299 52.8815C61.1726 52.4534 58.3262 52.231 57.7409 53.4501C57.3245 54.3181 58.0837 55.7546 59.052 56.5507C60.7378 57.9337 63.0222 57.1243 63.4621 56.9487H63.4637Z" fill="#884C42"/>
</svg>
