<svg width="74" height="131" viewBox="0 0 74 131" fill="none" xmlns="http://www.w3.org/2000/svg">
<path d="M55.264 95.5191C56.3119 90.1291 58.086 84.2897 55.6192 79.3877C54.4727 77.1094 52.521 75.3439 50.4638 73.8426C48.4119 72.3467 46.1683 71.041 43.6979 70.4507C38.9259 69.3089 33.8321 70.9952 29.8319 73.8391C25.8318 76.683 22.7284 80.5912 19.683 84.4448C15.442 89.8101 11.201 95.1755 6.95998 100.541C5.32476 102.611 3.64911 104.756 2.95458 107.304C1.91894 111.106 3.28514 115.245 5.6395 118.403C9.84183 124.038 16.8926 126.991 23.8783 127.681C30.8641 128.374 37.8814 127.063 44.7458 125.595C49.7675 124.52 54.9897 122.926 55.0881 117.113C55.213 109.719 53.8099 102.997 55.264 95.5191Z" fill="#FFA593"/>
<path d="M39.2424 63.4923C34.4264 62.458 29.192 63.6808 24.6292 61.8201C21.1952 60.4193 18.6035 57.4344 15.2064 55.9438C12.7888 54.883 10.037 54.6134 7.78291 53.2373C5.0681 51.581 3.48563 48.5697 2.39724 45.5777C-0.273617 38.2442 -0.727258 30.1159 1.11016 22.5286C2.30581 17.5897 4.89578 12.4498 9.62912 10.6244C12.3773 9.56539 15.4262 9.79269 18.3468 9.42971C24.005 8.7249 29.5577 5.76645 35.1333 6.96111C38.9804 7.78574 42.1453 10.4852 44.8338 13.3626C50.114 19.0152 54.2055 25.658 58.916 31.7951C63.3592 37.5852 80.849 56.5235 71.0219 63.9152C67.755 66.3715 61.6502 65.9362 57.8012 66.5758C50.3548 67.8128 46.251 64.9971 39.2406 63.4923H39.2424Z" fill="#F9E9D4"/>
<path d="M37.5751 63.6407C35.4406 63.2354 33.6612 62.0196 32.6941 60.3051C32.6572 60.2399 32.6203 60.173 32.5833 60.106C32.404 59.7765 32.2334 59.4647 31.9767 59.2796C31.5829 58.996 31.0272 59.0241 30.4382 59.0541C30.3556 59.0576 30.2712 59.0629 30.1903 59.0664C27.37 59.1792 24.7571 57.7449 23.6916 55.5036C23.3048 54.6913 23.1624 53.7522 23.2626 52.8218C22.3535 53.5583 21.3355 54.0041 20.1381 53.7063C19.4154 53.5266 18.8299 53.0896 18.2637 52.6685C18.1108 52.554 17.956 52.4394 17.8013 52.332C16.6092 51.502 15.2588 51.0069 13.8311 50.4818C12.7655 50.0907 11.6631 49.6872 10.6433 49.1321C8.34166 47.8793 6.49721 45.3332 6.98953 42.9721C6.35478 42.8434 5.73235 42.5791 5.37365 41.9994C5.02023 41.4303 5.05892 40.7924 5.09584 40.1775C5.12222 39.7317 5.14859 39.3106 5.02375 38.9476C4.83561 38.3978 4.32571 38.0243 3.78767 37.6296C3.45887 37.3882 3.11776 37.138 2.82939 36.8331C1.91332 35.864 1.66716 34.4949 1.53529 33.1611C1.12033 28.9533 1.67243 25.7376 3.22149 23.3307C4.58242 21.218 7.20756 19.6304 9.77116 19.6956C9.72896 19.6058 9.69203 19.5142 9.6639 19.4208C9.40719 18.612 9.5039 17.6675 9.9593 16.5328C11.5681 12.5207 15.8619 9.77189 20.1715 9.9992C20.444 10.0133 20.7183 10.038 20.9838 10.0626C21.7188 10.1296 22.4151 10.193 23.085 10.0485C24.5971 9.71903 25.6908 8.4028 26.7493 7.13061L26.8091 7.05837C28.8346 4.62324 31.6233 1.67361 35.2384 0.477187C38.5 -0.601175 43.0645 0.0560623 45.1059 3.39687C45.3187 3.74399 45.5068 4.12106 45.6879 4.4858C46.1767 5.46549 46.6392 6.39232 47.5254 6.75882C48.2199 7.0478 49.0041 6.90683 49.8322 6.75706C50.4916 6.639 51.1738 6.51566 51.8596 6.602C54.7397 6.96674 55.7313 10.5472 55.9652 11.6361C56.0478 12.0202 56.1234 12.4185 56.1955 12.8026C56.4751 14.2862 56.7635 15.8139 57.5828 16.9768C60.2044 17.6411 62.6256 19.204 64.4965 21.396C66.1334 22.7915 67.4539 24.6223 68.3331 26.7455C69.6377 29.896 69.796 33.2827 68.7814 36.2799C68.7375 36.4103 68.6918 36.5424 68.6443 36.6763C68.1766 38.0243 67.693 39.418 68.4157 40.4171C68.6953 40.803 69.1225 41.0655 69.5762 41.3422C70.0263 41.6171 70.4923 41.9025 70.8492 42.3342C72.0695 43.8073 71.3398 46.0397 69.9894 47.4811C69.5709 47.9269 69.1067 48.3357 68.6548 48.7304C67.7915 49.488 66.9757 50.2034 66.4781 51.1567C65.9646 52.1434 65.8486 53.2764 65.7273 54.4764C65.5901 55.8278 65.4477 57.2269 64.6811 58.3986C63.5329 60.1536 61.3526 60.8108 59.8124 61.1527C56.4663 61.8963 53.8711 61.5527 52.0987 60.1325C51.5694 59.7078 51.1475 59.1334 50.8609 58.4814C50.2402 58.6858 49.5966 58.8127 48.9689 58.9343C47.9403 59.1352 46.9697 59.3255 46.1293 59.8312C45.5156 60.1994 45.011 60.7139 44.4782 61.2566C44.1195 61.6214 43.7485 62.0002 43.3388 62.3332C42.1678 63.2847 40.661 63.7869 39.0591 63.7869C38.5721 63.7869 38.0763 63.7411 37.5787 63.646L37.5751 63.6407ZM50.4881 55.775C50.6762 54.5028 51.3883 53.5319 52.4416 53.1108C52.5418 53.0703 52.6561 53.0791 52.7493 53.1337C53.4209 53.5284 53.7656 54.2068 53.7216 55.0455C53.6548 56.3177 52.7088 57.6815 51.5202 58.2189C51.7611 58.7581 52.1075 59.2321 52.5365 59.5739C54.1348 60.8549 56.5314 61.1509 59.6594 60.4549C61.0801 60.1395 63.0863 59.5422 64.0938 58.0022C64.7672 56.9731 64.8938 55.7203 65.0292 54.3935C65.1523 53.1813 65.2789 51.9267 65.8556 50.8201C66.413 49.7488 67.3185 48.9559 68.1924 48.1894C68.6302 47.8053 69.0821 47.4088 69.476 46.9895C70.5872 45.8019 71.2571 43.9218 70.3076 42.7747C70.0263 42.4346 69.6289 42.1915 69.2105 41.9342C68.7181 41.6329 68.2082 41.321 67.846 40.8206C66.9088 39.5238 67.4785 37.8833 67.9797 36.4349C68.0254 36.3028 68.0711 36.1724 68.115 36.0438C69.2017 32.8369 68.7814 29.2053 67.2623 26.1394C68.2434 28.8476 68.4087 31.7268 67.6948 34.3399C67.6596 34.4667 67.5577 34.5654 67.4275 34.5918C67.2992 34.6183 67.1656 34.5707 67.0829 34.4685L66.2794 33.473C65.082 35.8552 62.1878 37.2701 59.5785 36.7486C59.5627 36.7997 59.5433 36.8508 59.5257 36.9019C58.8172 38.7943 56.6404 39.5837 54.8381 39.6929C54.075 39.7387 53.3049 39.7017 52.5611 39.6647C51.5061 39.6136 50.5092 39.5643 49.5158 39.7299C48.9777 39.8198 48.1882 40.151 48.2164 40.6973C48.2287 40.9334 48.3219 41.0268 48.3904 41.0744C48.9144 41.4461 50.467 40.9827 51.2125 40.7607C52.8266 40.2797 54.5023 40.7871 56.1199 41.277C57.8888 41.8126 59.5592 42.3183 61.0062 41.5272C61.481 41.2682 61.9645 40.8647 62.434 40.4753C63.5171 39.5731 64.7444 38.5511 66.0526 39.3211C66.6134 39.6524 67.002 40.2726 67.2394 41.2188C67.8495 43.6469 67.2798 46.3322 65.6763 48.5894C64.0727 50.8466 61.7254 52.265 59.2374 52.48C56.8637 52.6861 54.4284 51.7928 52.5013 50.0202C51.4727 52.1293 49.4226 53.8367 46.9258 54.5398C44.1863 55.3116 40.944 54.938 37.7949 53.4896C36.1298 52.7249 32.1912 50.5083 31.5618 46.4714C31.5125 46.1613 31.4862 45.8442 31.4598 45.5393C31.3965 44.8169 31.3385 44.135 31.022 43.5553C30.8356 43.2117 30.563 42.9174 30.2747 42.6038C30.0479 42.3571 29.814 42.1034 29.6136 41.8162C29.9969 42.8558 30.3028 43.9288 30.5789 44.9913C30.614 45.127 30.5648 45.2715 30.454 45.3578C30.3433 45.4442 30.192 45.4565 30.069 45.3878C28.0399 44.2601 27.1256 42.0505 26.2411 39.9114C26.097 39.5643 25.9545 39.2189 25.8086 38.8824C25.3303 37.7829 24.7747 36.7221 24.1488 35.7107C24.0591 35.6438 23.9677 35.5786 23.878 35.5134C23.1079 34.9531 22.3096 34.3734 21.6098 33.6862C20.8344 32.9267 20.1926 32.0492 19.5702 31.1999L17.8734 28.8846C15.9533 32.7153 16.152 37.508 18.3552 41.1765L19.0673 41.1184C19.2449 41.1043 19.4066 41.2259 19.4418 41.4021C19.4752 41.5783 19.3715 41.7527 19.2009 41.8056C19.0814 41.8426 18.96 41.8796 18.8387 41.9148C21.5412 45.7367 26.4486 47.8265 31.0677 47.1181C31.1995 47.097 31.3297 47.1534 31.407 47.2608C31.4844 47.3683 31.4932 47.511 31.4334 47.6291C30.7969 48.8484 29.4412 49.0193 28.1278 49.185C27.8482 49.2202 27.5651 49.2555 27.2873 49.3013C27.2152 49.4757 27.0693 49.6378 26.8724 49.6748C26.7018 49.7083 26.5383 49.6413 26.4293 49.5021C26.4258 49.5021 26.4205 49.5057 26.4152 49.5057C26.3765 49.518 26.3396 49.5321 26.3009 49.5462C25.9528 49.9127 25.6099 50.3162 25.2495 50.7408C24.8978 51.1549 24.5356 51.5831 24.1558 51.9831C23.8129 53.0614 23.871 54.235 24.3281 55.1953C25.26 57.1546 27.6619 58.455 30.1639 58.3581C30.243 58.3546 30.3239 58.3511 30.4048 58.3475C31.0571 58.3158 31.7956 58.2771 32.3899 58.7052C32.7785 58.9836 33.0036 59.3995 33.204 59.766C33.2392 59.8294 33.2743 59.8928 33.3095 59.9563C34.1746 61.4892 35.7782 62.5782 37.7105 62.9464C39.6411 63.3129 41.5331 62.8883 42.8975 61.7782C43.2773 61.4698 43.6342 61.1069 43.9789 60.7545C44.5204 60.2029 45.0796 59.632 45.7706 59.218C46.7165 58.6488 47.7944 58.4392 48.837 58.2348C49.4612 58.1132 50.0591 57.9951 50.627 57.8101C50.4441 57.1546 50.3896 56.4533 50.4916 55.7732L50.4881 55.775ZM51.1844 55.8789C51.1017 56.4322 51.1439 57.0084 51.2864 57.5529C52.2112 57.1053 52.9673 56.0023 53.02 55.0102C53.0394 54.649 52.9655 54.1698 52.5383 53.8385C51.5554 54.3195 51.2688 55.3116 51.1844 55.8772V55.8789ZM49.4226 42.7694C49.4296 42.6707 49.4771 42.5809 49.5544 42.5192C49.6318 42.4575 49.7303 42.4311 49.827 42.447C52.2235 42.8135 53.5001 45.6609 53.1466 47.9868C53.0763 48.4449 52.9603 48.896 52.7985 49.3312C54.6078 51.0827 56.9287 51.9743 59.1794 51.7787C61.4616 51.5796 63.6226 50.2686 65.1066 48.1806C66.5906 46.0926 67.1198 43.6187 66.5607 41.3915C66.3708 40.6374 66.0895 40.1599 65.6991 39.929C64.8763 39.4445 64.0885 40.0171 62.8876 41.018C62.3935 41.4303 61.8819 41.8549 61.3473 42.1474C59.64 43.0795 57.7499 42.5069 55.9195 41.9536C54.4003 41.4937 52.8284 41.018 51.4147 41.4373C50.0872 41.8338 48.728 42.1756 47.986 41.6523C47.7856 41.5113 47.5412 41.2365 47.5148 40.736C47.5148 40.7272 47.5148 40.7202 47.5148 40.7114C45.3767 41.9518 42.8483 42.4963 40.3884 42.2408L40.7577 42.8135C40.8473 42.9527 40.828 43.1359 40.7102 43.254C40.5924 43.372 40.4095 43.3914 40.2706 43.3016L37.7088 41.6435C37.0055 41.4127 36.318 41.1413 35.6428 40.8752C34.7285 40.5158 33.8423 40.1669 32.9455 39.9167C32.8875 39.9872 32.8014 40.033 32.7082 40.0418C31.8026 40.1246 30.9358 40.003 30.1217 39.7299C30.0039 39.8268 29.923 39.966 29.8843 40.1422C29.8052 40.4982 29.9072 40.9774 30.1375 41.3334C30.3186 41.6135 30.549 41.8637 30.7934 42.128C31.0976 42.4593 31.4123 42.8011 31.6409 43.2205C32.0277 43.9288 32.0963 44.7182 32.1613 45.4812C32.1877 45.7895 32.2141 46.0785 32.258 46.3657C32.8365 50.0642 36.529 52.1346 38.0903 52.8518C41.0882 54.2314 44.16 54.5909 46.7376 53.8649C49.1289 53.1918 51.0718 51.5302 51.9739 49.5004C50.1734 47.5903 49.2467 45.157 49.4226 42.7712V42.7694ZM23.66 51.2959C24.1294 50.1929 24.9171 49.37 25.8983 48.9524C25.9123 48.9383 25.9282 48.9224 25.9422 48.9083C26.3238 48.5225 26.7335 48.4062 27.0675 48.5894C27.0834 48.5982 27.0992 48.6088 27.115 48.6194C27.421 48.5665 27.7322 48.5277 28.0381 48.489C28.868 48.385 29.6663 48.2846 30.2307 47.9269C25.6205 48.2775 20.8906 46.0838 18.2286 42.2761C18.1934 42.225 18.1565 42.1721 18.1213 42.121C14.7753 43.0232 11.2253 43.3527 7.78428 43.076C7.75263 43.0743 7.72098 43.0707 7.68933 43.0672C7.22338 45.1147 8.90256 47.3807 10.9791 48.5119C11.9532 49.0423 13.031 49.4369 14.0737 49.8193C15.4821 50.3356 16.938 50.8695 18.204 51.7523C18.3657 51.865 18.524 51.9831 18.684 52.1011C19.2185 52.4994 19.7231 52.8747 20.3086 53.0209C21.5377 53.3275 22.5522 52.6333 23.5334 51.6183C23.572 51.5091 23.6142 51.4016 23.6582 51.2941L23.66 51.2959ZM52.2517 48.7568C52.3396 48.4696 52.4064 48.1771 52.4521 47.8811C52.7352 46.0186 51.842 43.772 50.1065 43.2328C50.0766 45.1834 50.8415 47.1463 52.2517 48.7568ZM26.4539 38.6022C26.6016 38.9441 26.7458 39.2912 26.8917 39.6436C27.6038 41.3651 28.337 43.1359 29.6522 44.2478C28.9384 41.6963 27.966 39.1678 26.1163 37.3248C25.9563 37.1644 25.7875 37.0093 25.6152 36.8596C25.9159 37.4287 26.1954 38.0102 26.4521 38.6022H26.4539ZM11.6859 42.4276C12.2873 42.3976 12.8886 42.3483 13.4864 42.2813L11.6859 42.4276ZM17.4092 28.2538L13.2579 22.5889C13.024 22.27 12.602 21.6462 12.2908 20.9132C12.2539 20.9432 12.2099 20.9678 12.1607 20.9802C11.4767 21.1687 10.7998 20.9044 10.311 20.4375C7.8423 20.0974 5.15738 21.6268 3.8158 23.7113C2.35465 25.979 1.83947 29.0467 2.23685 33.0906C2.35641 34.3011 2.57268 35.5328 3.34282 36.3468C3.58722 36.6058 3.88789 36.8261 4.20438 37.0587C4.80748 37.501 5.42992 37.9591 5.69015 38.7168C5.85894 39.2119 5.82905 39.7229 5.79916 40.218C5.76751 40.7466 5.73762 41.247 5.97323 41.6259C6.21588 42.017 6.69765 42.2003 7.20228 42.2937C7.2058 42.2866 7.20756 42.2813 7.21107 42.2743C7.26207 42.1527 7.37636 42.0717 7.50647 42.0611L17.5798 41.2417C15.3643 37.3071 15.2658 32.2448 17.411 28.2538H17.4092ZM41.6773 36.7503C41.5876 36.708 41.5208 36.6287 41.4926 36.5336C41.4135 36.2693 41.4117 36.0068 41.4821 35.7565C41.2799 35.4024 41.1709 35.0077 41.0636 34.62C41.0249 34.4826 40.988 34.3452 40.9458 34.2112C40.4447 32.6272 38.966 31.3761 37.0846 30.9462C35.2032 30.5163 33.3288 31.0026 32.193 32.2131C32.0769 32.3364 31.8906 32.3594 31.7481 32.2695C31.6057 32.1796 31.5477 31.9999 31.6092 31.8431C31.7833 31.4008 31.9978 30.9726 32.2457 30.5621C31.9714 30.2555 31.7446 29.9013 31.567 29.5119L30.2518 27.8891C30.3327 28.6115 30.3028 29.3621 30.2747 30.1004C30.2641 30.3965 30.2518 30.6907 30.2483 30.9814C30.2307 32.3417 30.4136 33.6985 30.7846 35.0024C31.0519 35.5803 31.393 36.1213 31.8255 36.6147C32.5904 37.4886 33.5979 38.1406 34.5737 38.7714L38.0165 41.0003C38.3171 41.0973 38.6196 41.1871 38.9238 41.2647L35.8678 36.5248C35.5988 36.1072 34.7408 34.65 35.0115 33.4395C35.1153 32.9725 35.372 32.6096 35.7711 32.3611C35.8028 32.3417 35.8379 32.3276 35.8731 32.3188C36.4604 32.1761 37.1057 32.4069 37.554 32.9232C37.8231 33.2333 37.9831 33.5998 38.0182 33.9646C38.2714 33.917 38.544 33.9328 38.8095 34.0174C39.3352 34.1866 39.7291 34.5918 39.8363 35.0764C39.9436 35.561 39.7589 36.0949 39.3545 36.4719C38.9501 36.8472 38.4033 36.9917 37.9303 36.8472C37.7439 36.7909 37.6402 36.5935 37.6965 36.4085C37.7527 36.2217 37.9497 36.116 38.1343 36.1741C38.3699 36.2464 38.6547 36.1618 38.8763 35.9557C39.0978 35.7495 39.2033 35.4711 39.1506 35.2315C39.0978 34.9901 38.8851 34.7839 38.5967 34.6905C38.3083 34.5989 38.0147 34.6429 37.8319 34.8086C37.7105 34.9178 37.5312 34.9284 37.3958 34.8368C37.2622 34.7434 37.2094 34.5707 37.2692 34.4174C37.4187 34.0368 37.2411 33.6351 37.0248 33.3884C36.8191 33.1505 36.4692 32.9302 36.0947 32.9937C35.8872 33.1382 35.7571 33.3355 35.699 33.5963C35.5302 34.3469 35.9821 35.4059 36.4586 36.146L39.8908 41.469C42.625 41.906 45.5033 41.2664 47.7944 39.7123L41.6773 36.7539V36.7503ZM28.1067 38.6939C28.5181 39.337 28.8698 40.0189 29.1793 40.7255C29.1423 40.4717 29.1476 40.2198 29.2004 39.9872C29.2443 39.7863 29.3217 39.6066 29.4289 39.4533C28.9683 39.2436 28.5269 38.9863 28.1085 38.6939H28.1067ZM32.7117 39.1273C33.4678 39.3123 34.2062 39.5678 34.9289 39.8409L34.1922 39.3634C33.3763 38.8348 32.5376 38.2921 31.8079 37.6067C32.0769 38.1318 32.3776 38.6392 32.7117 39.1255V39.1273ZM52.5981 38.9634C53.3242 38.9987 54.075 39.0357 54.7994 38.9916C56.3802 38.8965 58.2791 38.234 58.8699 36.6569C58.8822 36.6252 58.8928 36.5917 58.9051 36.56C58.8418 36.5213 58.7925 36.4614 58.7644 36.3909C58.7257 36.294 58.731 36.1847 58.782 36.0913L59.0932 35.5134C59.1108 35.2773 59.1178 35.0376 59.1249 34.8033L59.2954 28.9763C59.3464 27.2336 59.1758 23.1193 56.4997 22.5554C56.1586 22.4832 55.7876 22.4726 55.3937 22.4603C54.548 22.4338 53.6724 22.4074 53.0517 21.7466C52.7528 21.4277 52.6033 21.0418 52.4574 20.6683C52.3378 20.3617 52.2253 20.071 52.0407 19.8542C51.7189 19.4754 51.2793 19.4296 50.9663 19.456C50.787 19.4719 50.6041 19.5159 50.423 19.5829C50.3211 19.6921 50.2226 19.8049 50.1294 19.9212C50.0538 20.0163 49.9342 20.0657 49.8111 20.0516C49.7619 20.0463 49.7144 20.0287 49.674 20.004C49.4173 20.2049 49.1975 20.448 49.0445 20.7141C48.6683 21.3608 48.4836 22.092 48.2867 22.8673C48.1249 23.5016 47.9597 24.1571 47.6783 24.7721C47.244 25.7218 46.3754 26.5077 45.4664 26.7737C45.2396 26.8407 45.0198 26.8671 44.8018 26.8706C44.7367 27.0045 44.6593 27.1367 44.5697 27.2636C44.4712 27.4045 44.2866 27.4539 44.1318 27.3799C42.0799 26.4125 39.5673 26.3896 37.2393 27.3147C35.5707 27.9789 34.1676 29.0626 33.1987 30.4017L33.3376 30.5744C34.4911 30.0705 35.8678 29.9454 37.2428 30.259C39.3668 30.7436 41.0425 32.1761 41.6192 33.998C41.6632 34.139 41.7036 34.2853 41.7441 34.4297C41.8021 34.6412 41.8601 34.8491 41.9304 35.0412C41.9463 35.0271 41.9621 35.0112 41.9779 34.9971C42.6496 34.4051 43.7573 34.2236 44.5573 34.5777C45.011 34.7786 45.3978 35.0676 45.7547 35.3883C46.2242 35.0394 46.6233 34.5918 46.9082 34.0844C46.4932 33.8166 46.1504 33.4518 45.906 32.9673C45.5772 32.3153 45.5033 31.5559 45.4295 30.8211C45.3275 29.7921 45.2396 28.9023 44.5134 28.5146C44.3551 28.43 44.2866 28.238 44.3534 28.0723C44.4202 27.9049 44.6031 27.8168 44.7754 27.8662C46.8238 28.4529 48.2726 30.5779 48.0704 32.7047C48.0353 33.0677 47.9544 33.4236 47.8313 33.7619C49.0058 34.1883 50.6463 33.9646 52.0811 33.4888C54.4865 32.6924 57.1503 32.1162 58.6765 33.8923C58.8013 34.0386 58.7873 34.2588 58.6431 34.3857C57.1415 35.7143 55.4412 37.219 53.4227 38.0366C51.1439 38.9599 48.7157 38.7908 47.0858 37.5961C46.6603 37.2842 46.2893 36.9089 45.9306 36.5459C45.8444 36.4578 45.7583 36.3715 45.6739 36.2869C45.1393 36.5865 44.545 36.7803 43.9261 36.8349C43.7802 36.8472 43.6378 36.8525 43.5006 36.849L48.5592 39.2947C48.8212 39.1714 49.1113 39.085 49.4015 39.0374C49.9606 38.9441 50.525 38.9141 51.0842 38.9141C51.5923 38.9141 52.0987 38.9388 52.5963 38.9634H52.5981ZM31.1345 38.8612C31.3402 38.8789 31.5459 38.9035 31.7481 38.9335C31.0448 37.7899 30.4997 36.5512 30.1287 35.2632C29.0316 32.8668 29.1195 29.9401 29.3727 27.0697C29.2689 26.735 29.123 26.4195 28.9173 26.1323C28.7432 25.8874 28.5269 25.6654 28.2984 25.4311C27.9115 25.0346 27.5124 24.624 27.2944 24.0708C26.9339 23.1563 27.1994 22.1361 27.3946 21.3925C28.1682 18.4376 29.1019 15.4315 31.1714 13.5039C29.3129 13.2501 27.326 13.8986 25.8754 14.8818C23.6055 16.4218 21.9843 18.8675 20.553 21.026C20.1592 21.6215 19.8357 22.1607 19.8849 22.7175C19.9236 23.1527 20.1891 23.5545 20.4704 23.9791L20.553 24.106C21.7047 25.8592 22.4503 27.8415 23.1729 29.7586C23.6811 31.1065 24.2068 32.5003 24.8644 33.7919C25.9071 35.8341 27.7568 38.0683 30.0619 38.9617C30.294 38.8736 30.5384 38.8471 30.7758 38.8471C30.8971 38.8471 31.0167 38.8542 31.1292 38.863L31.1345 38.8612ZM52.3044 34.1566C50.7202 34.6817 48.9021 34.9072 47.5447 34.3998C47.23 34.976 46.7921 35.4852 46.2752 35.8869C46.328 35.9398 46.3807 35.9944 46.4335 36.0473C46.7886 36.4067 47.1245 36.7468 47.5043 37.0252C49.2204 38.2833 51.5519 38.0348 53.1625 37.3811C54.9524 36.6552 56.4575 35.3759 57.9028 34.102C56.5964 32.9567 54.3546 33.4765 52.3062 34.1566H52.3044ZM66.4658 32.5814L67.1849 33.473C67.8267 30.3876 67.2201 26.9711 65.4829 23.9897C65.0556 23.2567 64.5721 22.5695 64.0411 21.9369C63.3008 21.2991 62.4867 20.7493 61.6076 20.3176C61.328 20.1802 61.0344 20.0463 60.7443 19.9194C61.1645 20.5467 61.4792 21.2357 61.7834 21.9017C62.1579 22.7246 62.5131 23.5034 63.0494 24.1677C63.1426 24.284 63.241 24.3967 63.3413 24.5095C63.6824 24.8989 64.034 25.3007 64.2011 25.8328C64.5105 26.8231 64.0569 27.7939 63.5663 28.7049L59.7807 35.7231C59.7701 35.8376 59.7561 35.9521 59.7403 36.0667C62.2177 36.5547 64.98 35.0764 65.8644 32.6836C65.9084 32.5655 66.0121 32.4792 66.137 32.458C66.1563 32.4545 66.1756 32.4527 66.1932 32.4527C66.2987 32.4527 66.3989 32.5003 66.4658 32.5831V32.5814ZM44.2725 35.2226C43.7169 34.9777 42.9133 35.1099 42.4421 35.5257C42.3858 35.5768 42.3366 35.6279 42.2944 35.6808C42.305 35.6931 42.3173 35.7037 42.3278 35.716C42.7744 36.1565 43.4813 36.1653 43.8646 36.1319C44.3024 36.0931 44.7279 35.9662 45.1235 35.7724C44.858 35.5504 44.582 35.3601 44.2725 35.2226ZM31.8818 12.9206C31.9925 12.8396 32.1068 12.7621 32.2246 12.6881C32.6273 12.4308 33.044 12.2194 33.473 12.0467C33.8141 11.0687 34.4137 10.149 35.2436 9.35782C36.9597 7.72265 39.4847 6.7923 41.8302 6.92798C46.2858 7.18523 50.0098 10.223 52.424 12.4872C53.1537 13.1708 53.8834 14.0078 53.7761 15.0351C53.6548 16.1874 52.5682 16.9275 51.6099 17.5812C50.8626 18.0904 50.3703 18.4622 50.1786 18.8323C51.4622 17.6376 53.2996 16.9821 55.2566 17.0561C55.4078 17.0614 55.559 17.072 55.7067 17.0861C55.5045 16.9733 55.3146 16.8341 55.1476 16.6614C54.5832 16.0817 54.4284 15.3064 54.2772 14.5576C54.235 14.3496 54.1963 14.1541 54.1489 13.962C53.7005 12.1559 52.3413 10.6318 50.6024 9.97981C50.3527 9.88643 50.0977 9.81066 49.827 9.7296C49.3434 9.58512 48.8441 9.43711 48.3781 9.17985C47.7029 8.8063 47.1807 8.25126 46.6761 7.71384C46.5407 7.56936 46.4053 7.42663 46.2682 7.28743C43.3283 4.30255 38.8112 3.06385 34.7654 4.12987C30.7178 5.1959 27.3946 8.50147 26.3009 12.5506C26.271 12.6616 26.1884 12.7515 26.0794 12.7903C25.9704 12.829 25.8508 12.8114 25.7559 12.7444C24.0837 11.5463 21.6907 12.4872 20.1486 13.6554C19.6528 14.0325 19.164 14.4554 18.691 14.8659C17.5042 15.8949 16.2769 16.9592 14.7401 17.4579C14.5994 17.5037 14.457 17.5442 14.3128 17.5847C13.8557 17.7151 13.4231 17.8385 13.1084 18.1116C11.795 19.2463 13.4759 21.6885 13.8258 22.166L18.3763 28.3736C20.8854 30.252 23.0182 32.5743 24.6745 35.2174C24.8064 35.3143 24.9365 35.4112 25.0684 35.5081C24.7554 35.0429 24.4793 34.5707 24.2437 34.1073C23.5668 32.7822 23.034 31.3691 22.5188 30.0018C21.8102 28.1199 21.077 26.1746 19.9693 24.4884L19.8884 24.365C19.586 23.9087 19.2414 23.3906 19.1886 22.7757C19.12 21.9916 19.5209 21.3132 19.9728 20.6313C21.4392 18.4182 23.1008 15.9108 25.4868 14.2933C26.8267 13.3841 28.5955 12.7427 30.3538 12.7427C30.869 12.7427 31.3824 12.7973 31.8853 12.9171L31.8818 12.9206ZM58.0839 18.4922C57.2382 18.057 56.2623 17.7997 55.2285 17.7609C53.8148 17.7081 52.475 18.0693 51.4094 18.7618C51.8736 18.8252 52.278 19.0419 52.577 19.3943C52.8389 19.7027 52.9778 20.0621 53.1132 20.411C53.2398 20.737 53.3576 21.0436 53.5634 21.2621C53.9853 21.7114 54.6781 21.7326 55.4131 21.7537C55.8193 21.766 56.2395 21.7784 56.6421 21.8629C59.7244 22.5131 60.0673 26.6098 59.997 28.9939L59.8475 34.1108L62.9492 28.3631C63.3694 27.5843 63.7597 26.7649 63.5329 26.0372C63.4116 25.6478 63.1215 25.3183 62.8155 24.9694C62.71 24.8496 62.6045 24.7298 62.5061 24.6064C61.9135 23.8734 61.5249 23.0171 61.1469 22.1907C60.8533 21.544 60.5473 20.8762 60.1552 20.2947C59.8563 19.8507 59.4853 19.456 59.0598 19.1177C58.7205 18.9327 58.3916 18.7265 58.0857 18.4904L58.0839 18.4922ZM22.1021 33.1805C22.3588 33.4324 22.6331 33.6721 22.9162 33.9029C22.081 32.7893 21.1526 31.7462 20.1398 30.7859C20.7447 31.6105 21.3689 32.4615 22.1004 33.1805H22.1021ZM46.1293 30.7489C46.1961 31.4184 46.2647 32.1127 46.5337 32.6483C46.6972 32.9743 46.924 33.2316 47.2001 33.4289C47.288 33.1716 47.346 32.9056 47.3724 32.6342C47.4937 31.3585 46.8765 30.0458 45.8831 29.2317C46.0273 29.704 46.08 30.2308 46.131 30.7489H46.1293ZM43.6043 26.4055C43.5868 26.3667 43.5745 26.3262 43.5709 26.2821C43.5621 26.1729 43.6043 26.0671 43.6852 25.9931C43.9191 25.7782 44.1547 25.5632 44.3903 25.3465C44.334 24.4126 43.8259 23.4646 43.1243 22.9043C41.8056 21.8488 39.9594 21.7431 38.6407 21.8365C36.0261 22.025 33.8599 23.0699 32.6941 24.7016C31.989 25.6901 31.6971 27.0151 31.9134 28.2468C31.9679 28.5622 32.0576 28.8617 32.1754 29.1384L32.7398 29.8344C33.7807 28.4582 35.2472 27.3464 36.9773 26.6574C38.1976 26.1729 39.4653 25.9297 40.7049 25.9297C41.7054 25.9297 42.6865 26.0883 43.6061 26.4037L43.6043 26.4055ZM43.5621 22.3528C44.2795 22.9272 44.8228 23.8117 45.0198 24.7491C46.1504 23.6585 47.2018 22.4832 47.9087 21.0824C48.9619 18.9926 48.932 16.6544 47.8348 15.1267C46.4985 13.266 43.9595 12.7779 41.4733 12.4378C38.8024 12.0713 36.2213 11.8229 34.0322 12.5876C33.9144 13.0158 33.8458 13.481 33.8493 13.9814C33.8493 14.1118 33.7807 14.2298 33.6664 14.2933C33.5539 14.3549 33.415 14.3514 33.306 14.2809C32.9016 14.0184 32.4726 13.8228 32.0295 13.6889C29.8316 15.4403 28.8997 18.4146 28.0751 21.5687C27.8553 22.4109 27.6935 23.1616 27.9485 23.81C28.1155 24.2311 28.4478 24.5747 28.8012 24.9377C29.0368 25.1808 29.2812 25.4328 29.487 25.72C29.6382 25.9332 29.763 26.1535 29.865 26.3825C29.9265 26.4037 29.9846 26.4407 30.0268 26.4953L31.1556 27.8891C31.0519 26.6187 31.3982 25.3042 32.1191 24.2945C33.4062 22.492 35.7623 21.3414 38.5862 21.137C38.871 21.1158 39.1471 21.1053 39.4143 21.1053C41.1287 21.1053 42.5212 21.5246 43.5586 22.3545L43.5621 22.3528ZM45.0989 25.646C45.0919 25.8134 45.0725 25.9808 45.0409 26.1447C45.1147 26.1323 45.1903 26.1165 45.2677 26.0936C45.9781 25.8857 46.6884 25.2355 47.0366 24.476C47.2458 24.0197 47.3847 23.5369 47.5166 23.0294C46.7957 23.9915 45.9446 24.8513 45.0989 25.646ZM25.7506 11.9163C27.0271 7.83542 30.4488 4.53867 34.5843 3.44973C38.34 2.45947 42.4773 3.34401 45.5385 5.70513C45.3679 5.40911 45.2132 5.09899 45.0602 4.79064C44.8844 4.43999 44.7033 4.07701 44.5064 3.75456C42.6549 0.723871 38.4648 0.144164 35.4599 1.13795C32.0136 2.27798 29.3164 5.13776 27.3506 7.50064L27.2909 7.57288C26.2095 8.87502 24.984 10.3498 23.2345 10.7287C22.459 10.8978 21.6766 10.8256 20.9205 10.7569C20.6621 10.734 20.393 10.7093 20.1346 10.6952C16.1169 10.4838 12.1115 13.0475 10.6116 16.7865C10.2195 17.7627 10.1299 18.5521 10.3338 19.1988C10.3989 19.4031 10.5114 19.604 10.6556 19.7767C11.1303 19.863 11.598 20.011 12.0464 20.2313C11.7844 19.2992 11.8108 18.2984 12.646 17.5777C13.0785 17.2041 13.6078 17.0526 14.1177 16.9064C14.2531 16.8676 14.3885 16.8288 14.5203 16.7865C15.9217 16.3319 17.0417 15.3611 18.2268 14.332C18.7086 13.9144 19.2062 13.4827 19.7214 13.0933C20.8625 12.2282 22.4344 11.4863 23.9413 11.4863C24.5672 11.4863 25.1809 11.615 25.7488 11.9145L25.7506 11.9163ZM51.2143 16.9962C52.0864 16.4024 52.9884 15.7875 53.0763 14.9593C53.1519 14.2386 52.5471 13.5638 51.944 12.9999C49.6107 10.8115 46.0185 7.87419 41.7898 7.63103C39.6306 7.50592 37.3079 8.36403 35.7289 9.8688C35.2489 10.3269 34.7179 10.956 34.3451 11.7524C36.5413 11.1463 39.0205 11.3912 41.5718 11.7401C44.2092 12.1013 46.9082 12.6299 48.408 14.7162C49.3171 15.983 49.5931 17.7186 49.2239 19.4631C49.2766 19.4208 49.3311 19.3802 49.3874 19.3397C49.2661 18.323 50.2947 17.6235 51.216 16.9962H51.2143ZM59.4484 18.5292C59.8897 18.7671 60.3627 18.975 60.8462 19.1899C60.9359 19.2287 61.0256 19.2692 61.117 19.3098C60.3996 18.834 59.6436 18.4358 58.8611 18.1222C59.0651 18.2473 59.262 18.3847 59.4484 18.5292ZM49.9588 7.44073C49.1131 7.59226 48.241 7.75085 47.397 7.45306C47.812 7.89005 48.2216 8.29003 48.7175 8.56314C49.1166 8.78339 49.5579 8.91555 50.0274 9.05475C50.2964 9.1358 50.576 9.21862 50.8485 9.32081C52.802 10.0521 54.3282 11.7647 54.8311 13.7928C54.8821 14.0008 54.926 14.214 54.9665 14.4201C55.1019 15.0985 55.2302 15.7399 55.6505 16.1716C55.9001 16.4271 56.236 16.5874 56.6035 16.7072C56.0039 15.5584 55.7524 14.2263 55.5063 12.9242C55.4342 12.5436 55.3603 12.1506 55.2795 11.7753C55.0685 10.8009 54.1946 7.59931 51.7734 7.29272C51.6415 7.27686 51.5097 7.26805 51.376 7.26805C50.9206 7.26805 50.4512 7.35263 49.9588 7.44073ZM32.7416 13.1938C32.8875 13.2537 33.0335 13.3189 33.1759 13.3911C33.1917 13.2325 33.2128 13.0757 33.2427 12.9189C33.0739 13.0017 32.9069 13.0933 32.7416 13.192V13.1938Z" fill="#884C42"/>
<path d="M36.8805 129.095C35.9715 126.935 35.4791 124.616 35.0044 122.373C34.6369 120.639 34.2571 118.847 33.6874 117.154C33.0984 115.404 32.2878 113.7 31.5054 112.052L27.1202 102.832C26.6701 101.886 26.2041 100.908 25.5114 100.125C23.906 98.3157 21.3248 97.7571 18.5977 97.3043C17.228 97.077 15.8126 96.8408 14.413 96.8356C13.8011 96.8338 13.0169 96.8708 12.3171 97.1756C11.7632 97.417 11.241 97.8311 10.6695 98.476C8.38728 101.059 7.58549 104.62 6.95954 108.047C5.87291 113.991 5.09047 120.061 4.63155 126.085C4.61397 126.323 4.58056 126.765 4.25176 127.031C4.05483 127.192 3.8157 127.25 3.56075 127.199C3.09128 127.104 2.70621 126.661 2.51983 126.313C1.56156 124.517 1.38573 122.447 1.28023 120.306C1.10792 116.815 1.02 113.074 1.54398 109.378C2.11718 105.344 3.36206 101.88 5.24695 99.0804C5.87115 98.1518 6.60612 97.2796 7.31471 96.4356C8.48222 95.0471 9.58819 93.7326 10.281 92.1662L10.1719 92.1116C10.084 92.0675 10.0172 91.9865 9.99084 91.8913C9.96447 91.7962 9.9803 91.6922 10.033 91.6094C11.5188 89.2641 14.0789 88.0166 16.5546 86.8114C19.0232 85.6079 21.353 84.4732 22.7491 82.3446C23.1552 81.7262 23.4928 81.0002 23.8128 80.061C24.5707 77.8356 24.7799 75.7423 24.4353 73.8393C24.3597 73.42 24.2542 73.0112 24.1241 72.6182C23.9131 72.4121 23.7144 72.1936 23.5297 71.9575C23.0937 71.4042 22.7526 70.7892 22.4238 70.1937C22.2128 69.8113 22.0106 69.4448 21.7855 69.0959C21.6906 69.0184 21.5956 68.9426 21.4972 68.8704C21.1596 69.1312 20.676 69.1682 20.3033 69.0466C19.8672 68.9021 19.5472 68.6008 19.2307 68.2766C18.29 67.3145 17.3968 66.289 16.5757 65.2265C15.9796 64.4565 15.3255 63.542 15.1022 62.4566C15.0055 61.9826 15.0055 61.5404 15.1057 61.1421C15.2534 60.5554 15.6614 60.0303 16.2258 59.7008C16.7902 59.3713 17.4478 59.2761 18.0298 59.4365C18.6118 59.5986 19.127 60.0197 19.4417 60.5924C19.7564 61.165 19.8373 61.8258 19.6632 62.4055C19.5999 62.6152 19.512 62.8055 19.4259 62.9905C19.3274 63.2037 19.2342 63.4046 19.1938 63.6072C19.1569 63.7887 19.1938 64.0001 19.2852 64.1341C19.3538 64.2327 19.4224 64.2451 19.4452 64.2486C19.5138 64.2609 19.614 64.2486 19.7195 64.2345C19.9569 64.2045 20.2804 64.1623 20.5477 64.3966C20.6831 64.5147 20.7059 64.7173 20.6022 64.8635C20.2593 65.3534 20.4316 66.0547 20.6848 66.5075C20.8941 66.8811 21.1789 67.2088 21.4813 67.5542C21.6431 67.7409 21.8119 67.933 21.9684 68.1339C22.0915 68.2942 22.2075 68.4581 22.3183 68.6255C23.3908 69.5435 24.226 70.791 24.7342 72.2271C26.016 73.4164 27.7778 74.1212 29.6258 74.7873C31.312 75.3952 32.7221 75.8657 34.2308 75.9379C35.5354 75.9996 36.8401 75.7423 38.1148 75.441C37.9707 74.3803 38.0216 73.2948 38.0709 72.2359C38.0955 71.7125 38.1184 71.1998 38.1219 70.6976C37.4695 70.7188 36.8242 70.6166 36.2581 70.5144C34.5666 70.2113 32.6659 69.7162 31.3981 68.3435C31.3049 68.2431 31.2786 68.0969 31.3313 67.97C31.3718 67.8696 31.4562 67.7956 31.5581 67.7656C31.5687 67.7321 31.5863 67.7022 31.6074 67.6722L33.9776 64.4301C34.2009 64.1235 34.5086 63.7041 35.0027 63.5561C35.4704 63.4169 35.9258 63.572 36.3302 63.7076C36.7012 63.8328 37.0194 63.9402 37.2585 63.8151C37.35 63.7676 37.4397 63.6759 37.5346 63.579C37.6471 63.4645 37.7737 63.3359 37.9408 63.2389C38.5034 62.9094 39.2067 63.0592 40.0314 63.683C40.6696 64.1658 41.278 64.6926 41.8495 65.2565C41.9497 65.2265 42.0464 65.2389 42.1202 65.2706C42.2803 65.341 42.3734 65.5032 42.3682 65.7076C42.3682 65.7322 42.3646 65.7569 42.3611 65.7833C42.4016 65.8256 42.442 65.8697 42.4807 65.9137C42.5405 65.9807 42.5739 66.067 42.5739 66.1569C42.5493 68.2554 40.8701 70.2148 38.8252 70.6183C38.8252 71.1698 38.8006 71.7214 38.7742 72.2676C38.725 73.3089 38.6793 74.3098 38.8023 75.2736C38.8287 75.2666 38.8551 75.2613 38.8815 75.2542C40.3408 74.8965 42.1554 74.4507 43.3036 73.2508C43.4319 73.1169 43.6429 73.1045 43.7854 73.2261C43.9278 73.3477 43.9506 73.5574 43.8381 73.7072C42.6196 75.3282 40.7839 76.5053 38.8058 76.937C38.6283 76.9757 38.4524 76.8735 38.3962 76.7009C38.3364 76.5141 38.2854 76.3238 38.2414 76.1335C36.9297 76.4436 35.5811 76.7044 34.1991 76.6392C32.4654 76.5581 30.7599 75.9432 29.3884 75.4481C27.8253 74.8842 26.3167 74.2904 25.0683 73.4006C25.0911 73.5045 25.1105 73.6085 25.1298 73.7125C25.4973 75.7353 25.2793 77.9484 24.481 80.2883C24.1416 81.2857 23.7794 82.0609 23.3399 82.7305C21.8383 85.0212 19.3098 86.2528 16.864 87.4439C14.4938 88.5998 12.2485 89.6941 10.8471 91.664L10.8929 91.6869C11.0564 91.7697 11.1285 91.9636 11.0599 92.1327C10.3372 93.937 9.07477 95.44 7.85275 96.8919C7.15471 97.7219 6.43381 98.58 5.82895 99.4769C4.00559 102.187 2.79764 105.552 2.24026 109.48C1.72332 113.118 1.81124 116.817 1.98179 120.274C2.08377 122.332 2.24905 124.316 3.13875 125.983C3.27766 126.244 3.52382 126.476 3.69965 126.512C3.7524 126.522 3.77877 126.512 3.80691 126.487C3.9001 126.411 3.91768 126.166 3.92823 126.034C4.3889 119.985 5.17486 113.89 6.26677 107.922C6.9103 104.398 7.74022 100.73 10.1421 98.0108C10.7821 97.2867 11.3834 96.8162 12.034 96.5325C12.8534 96.1748 13.736 96.129 14.413 96.1343C15.8688 96.1396 17.3124 96.3792 18.7103 96.6118C21.5675 97.0875 24.2788 97.6778 26.0353 99.6601C26.7949 100.516 27.282 101.54 27.7532 102.53L32.1384 111.751C32.9314 113.418 33.7507 115.14 34.3521 116.932C34.9341 118.664 35.3191 120.475 35.6901 122.228C36.1596 124.44 36.6431 126.725 37.5276 128.823C37.6436 129.097 38.2608 130.455 39.1223 130.268C39.7553 130.131 39.9997 129.245 40.0929 128.524C40.7699 123.299 40.0296 117.987 39.3158 112.849C39.2173 112.139 39.1048 111.334 38.7232 110.706C38.4683 110.287 38.1008 109.945 37.7122 109.584C37.5416 109.425 37.3658 109.261 37.1988 109.09C36.4321 108.301 35.8677 107.362 35.3244 106.453L28.555 95.1528C28.2191 94.5925 27.9062 93.9916 28.0609 93.3344C28.1928 92.7811 28.6183 92.4093 29.1159 92.2331C29.1633 92.1574 29.2231 92.0887 29.304 92.0288C29.5607 91.8385 29.8684 91.8649 30.0759 91.9019C31.7674 92.1979 32.7995 93.6234 33.7982 94.9995C33.9776 95.248 34.1569 95.4947 34.338 95.7308C34.804 96.3422 35.3297 96.9149 35.9011 97.4399C35.924 96.7933 36.0348 96.1589 36.1368 95.5722C36.2176 95.1035 36.2159 94.5855 36.2124 94.0833C36.2071 93.0542 36.2001 91.99 36.8788 91.146C36.9966 90.9997 37.1249 90.8658 37.248 90.7389C37.4186 90.561 37.5803 90.3936 37.6999 90.2068C37.8687 89.9407 37.9654 89.6183 38.0638 89.2536C38.2731 88.4818 38.47 87.6765 38.6617 86.8995C39.3791 83.9816 40.1158 80.9896 41.6596 78.4911C41.6068 78.4999 41.5523 78.4946 41.4996 78.4787C41.3378 78.4259 41.2358 78.2655 41.2587 78.0964C41.4046 76.9793 41.8952 75.8974 42.6354 75.0516C42.7128 74.9635 42.8288 74.9194 42.9449 74.9353C43.0609 74.9512 43.1629 75.0234 43.2139 75.1274C43.2684 75.2384 43.3159 75.3511 43.3546 75.4657C43.4108 75.3247 43.4987 75.189 43.6271 75.0622C43.7062 74.9829 43.8188 74.9476 43.9295 74.9653C44.0403 74.9829 44.1353 75.0516 44.1862 75.152C44.4043 75.5749 44.3287 76.0366 44.0931 76.4436C44.1546 76.6145 44.2372 76.8031 44.3322 77.0127C44.4219 77.2118 44.515 77.418 44.5871 77.6189C44.9546 78.6426 44.6786 79.7386 44.4553 80.6196L42.5106 88.3162C42.1695 89.6659 41.8161 91.0632 41.9655 92.4481C41.9866 92.6419 41.8459 92.8146 41.6525 92.8358C41.4591 92.8569 41.2868 92.7159 41.2657 92.5221C41.1039 91.0121 41.489 89.4861 41.8284 88.1417L43.6869 80.787C43.5849 80.7888 43.4917 80.7465 43.4249 80.6725C42.7655 79.9483 42.7356 79.0162 42.7814 78.084C40.9281 80.6267 40.1246 83.8952 39.3439 87.0704C39.1522 87.851 38.9535 88.658 38.7425 89.4386C38.6283 89.8597 38.5157 90.2368 38.2924 90.5874C38.1359 90.8341 37.9425 91.035 37.7544 91.2288C37.6366 91.3504 37.5258 91.4667 37.4273 91.5882C36.9069 92.2367 36.9122 93.1318 36.9174 94.0798C36.921 94.6119 36.9245 95.1634 36.8313 95.6938C36.6959 96.4726 36.557 97.2725 36.615 98.0514C37.1109 98.4478 37.6348 98.809 38.1781 99.128L38.2098 99.1456C38.4894 99.3095 38.8059 99.4945 39.0028 99.824C39.1452 100.064 39.1856 100.363 39.11 100.629C39.0467 100.849 38.9061 101.026 38.7144 101.123C38.4876 101.239 38.2115 101.241 37.8933 101.126C36.7434 100.719 36.1508 99.5614 35.9803 98.6152C35.968 98.5483 35.9574 98.4795 35.9486 98.4126C35.1451 97.743 34.4154 96.9818 33.7859 96.159C33.6013 95.9176 33.4202 95.6673 33.2356 95.4136C33.0703 95.1863 32.905 94.959 32.7362 94.7352C32.7063 94.9431 32.6254 95.1475 32.4953 95.3361C32.2316 95.7202 31.8113 95.9757 31.3718 96.0215C30.6491 96.0955 29.8772 95.6638 29.4499 94.9502C29.1616 94.4674 29.0104 93.8824 28.9787 93.1212C28.8679 93.2234 28.7871 93.3485 28.7519 93.4965C28.6569 93.8965 28.9031 94.3529 29.1651 94.7881L35.9345 106.088C36.4585 106.962 37.0001 107.866 37.7104 108.595C37.8652 108.754 38.0269 108.905 38.1992 109.064C38.6072 109.443 39.0274 109.834 39.3333 110.336C39.7905 111.089 39.9136 111.97 40.0208 112.748C40.7435 117.932 41.489 123.292 40.7998 128.612C40.5782 130.325 39.8503 130.832 39.2788 130.956C39.1751 130.978 39.0714 130.989 38.9676 130.989C38.1588 130.989 37.3974 130.305 36.8875 129.095H36.8805ZM38.1219 100.462C38.303 100.527 38.3733 100.502 38.3909 100.494C38.412 100.483 38.4243 100.455 38.4296 100.432C38.4507 100.356 38.4366 100.254 38.3944 100.183C38.2907 100.009 38.0762 99.8839 37.8493 99.7517L37.8177 99.7323C37.4854 99.5368 37.1583 99.3253 36.8418 99.1015C37.1038 99.757 37.5698 100.264 38.1219 100.46V100.462ZM29.6715 92.8252C29.6715 92.8499 29.6715 92.8763 29.6715 92.9062C29.6803 93.6392 29.7998 94.1731 30.0478 94.5872C30.2886 94.9907 30.7704 95.3713 31.2962 95.3202C31.53 95.2973 31.7656 95.1493 31.9116 94.9379C31.9784 94.8392 32.0839 94.6418 32.0241 94.4198C31.9643 94.1996 31.7762 94.0022 31.5898 93.819C31.1555 93.3926 30.628 92.9415 30.0126 92.8375C29.9475 92.8269 29.879 92.8199 29.8104 92.8199C29.7647 92.8199 29.7207 92.8217 29.675 92.8269L29.6715 92.8252ZM43.5023 77.7334C43.4601 78.4206 43.4214 79.0814 43.6078 79.6241C43.817 78.8488 43.7889 78.0065 43.5286 77.2471C43.5216 77.4092 43.5111 77.5713 43.5023 77.7334ZM42.7708 76.0242C42.5528 76.3502 42.3699 76.7044 42.231 77.0726C42.333 77.0092 42.4367 76.9493 42.537 76.8912C42.6407 76.8312 42.7392 76.7731 42.8341 76.715C42.8306 76.4753 42.813 76.2445 42.7691 76.0242H42.7708ZM39.0467 75.9344C39.0045 75.9449 38.9641 75.9538 38.9219 75.9643C38.9377 76.033 38.9535 76.1 38.9711 76.167C39.5566 76.0119 40.1263 75.7864 40.6626 75.4992C40.107 75.6718 39.5549 75.8075 39.045 75.9326L39.0467 75.9344ZM37.7597 67.9559C37.7139 67.8185 37.6419 67.6317 37.5364 67.5788C37.4291 67.5242 37.2181 67.5824 37.0651 67.6229C35.5776 68.0211 34.0514 68.2819 32.5164 68.4017C33.6136 69.2246 35.0642 69.5805 36.3829 69.8166C36.9385 69.917 37.5258 70.0087 38.1078 69.9893C38.0744 69.2915 37.9795 68.6149 37.7597 67.9559ZM40.2986 66.1093C39.9224 65.9842 39.5672 65.8661 39.2384 65.8943C38.9096 65.9225 38.5931 66.0987 38.2573 66.2855C37.9074 66.4793 37.5452 66.682 37.1179 66.7489C36.9333 66.7789 36.7574 66.7789 36.5851 66.7806C36.397 66.7806 36.2176 66.7824 36.0629 66.8247C35.8537 66.8793 35.6532 67.015 35.4405 67.1577C35.3895 67.1912 35.3385 67.2264 35.2892 67.2599C35.2506 67.2863 35.2101 67.311 35.1697 67.3357C35.7464 67.2247 36.3179 67.0943 36.884 66.9427C37.132 66.8758 37.5047 66.7771 37.8511 66.9498C38.1852 67.1172 38.3346 67.4572 38.4278 67.7339C38.6634 68.4405 38.7689 69.1682 38.8076 69.9012C40.4376 69.5241 41.7686 67.9823 41.8653 66.3049C41.3185 66.4529 40.7804 66.2732 40.3004 66.1128L40.2986 66.1093ZM20.9521 68.0105C20.6391 67.6511 20.3156 67.281 20.0712 66.8441C19.7758 66.3155 19.5859 65.586 19.7916 64.927C19.6509 64.9446 19.4927 64.964 19.3257 64.9358C19.0742 64.8917 18.8597 64.7508 18.705 64.5252C18.508 64.2363 18.4307 63.8292 18.5045 63.461C18.5608 63.1755 18.6768 62.9271 18.7894 62.6857C18.8685 62.5165 18.9423 62.3562 18.9916 62.1958C19.1111 61.7976 19.0514 61.3342 18.8281 60.9272C18.603 60.5201 18.2461 60.2224 17.8452 60.1113C17.4443 60.0003 16.9836 60.0708 16.5827 60.3052C16.1818 60.5395 15.8935 60.906 15.7915 61.3095C15.7176 61.6038 15.7194 61.9403 15.795 62.3104C15.9884 63.2478 16.588 64.083 17.1366 64.7913C17.9419 65.8327 18.8175 66.8388 19.7389 67.7815C20.0026 68.0511 20.2435 68.2819 20.5301 68.3753C20.7428 68.4457 21.0382 68.4105 21.1455 68.2308C21.084 68.1585 21.0207 68.0881 20.9574 68.014L20.9521 68.0105ZM40.5219 65.4397C40.7769 65.5243 41.0125 65.6036 41.2323 65.6353C40.7189 65.1384 40.1738 64.6715 39.6059 64.2415C39.2085 63.942 38.6599 63.6284 38.2924 63.8433C38.2063 63.8944 38.1219 63.979 38.0322 64.0706C37.9091 64.194 37.772 64.3349 37.5838 64.4336C37.0774 64.7014 36.5587 64.5252 36.1016 64.3702C35.7675 64.2574 35.4528 64.1517 35.2013 64.2257C34.9552 64.2997 34.7582 64.5481 34.5437 64.8406L32.6078 67.4907C33.4219 67.3973 34.2184 67.1137 34.9042 66.6661C34.9517 66.6344 34.9991 66.6027 35.0466 66.5709C35.2857 66.4088 35.5583 66.2256 35.8818 66.141C36.1227 66.0776 36.3548 66.0758 36.5798 66.0741C36.7311 66.0741 36.8752 66.0723 37.0054 66.0512C37.3095 66.0018 37.6032 65.8397 37.9144 65.667C38.2995 65.4538 38.6986 65.2318 39.1768 65.1913C39.2314 65.186 39.2859 65.1842 39.3404 65.1842C39.7536 65.1842 40.1439 65.3146 40.5202 65.4397H40.5219Z" fill="#884C42"/>
<path d="M50.7465 126.358C50.0695 126.323 49.6985 125.705 49.4524 125.171C48.0475 122.126 46.5934 118.979 46.2452 115.539C46.1784 114.873 46.1538 114.199 46.1292 113.545C46.0905 112.509 46.0518 111.439 45.8391 110.424C45.6316 109.441 45.2535 108.472 44.8878 107.536C44.5291 106.62 44.1581 105.672 43.9348 104.684C43.4425 102.511 43.6658 100.337 44.2425 98.1429C43.2368 94.8127 42.871 92.4956 42.8658 92.4621C42.5792 90.605 42.4543 88.6861 42.4948 86.7584C42.4983 86.5664 42.6548 86.4131 42.8464 86.4131C42.8482 86.4131 42.8517 86.4131 42.8535 86.4131C43.0469 86.4166 43.2016 86.5787 43.1981 86.7725C43.1576 88.6597 43.2807 90.538 43.5603 92.3529C43.5656 92.3811 43.8504 94.1819 44.6082 96.8831C45.0021 95.6391 45.4856 94.3898 45.9938 93.1317C46.4615 91.9758 46.989 90.6649 46.8255 89.3927C46.676 88.2456 45.7072 87.0598 44.5537 87.1954C44.3603 87.2183 44.1862 87.0791 44.1634 86.8853C44.1405 86.6915 44.2794 86.517 44.4728 86.4941C46.0571 86.3109 47.3283 87.7963 47.5235 89.301C47.7116 90.7582 47.1455 92.1591 46.6461 93.396C46.0026 94.9906 45.3977 96.5677 44.974 98.1306C45.3995 99.5243 45.9393 101.091 46.6092 102.738L46.6233 102.772C46.7516 103.085 47.1402 104.039 47.5921 105.358C47.622 105.445 47.6589 105.547 47.6993 105.663C47.8875 106.194 48.1723 106.997 48.3165 107.69C48.4994 108.564 48.538 109.459 48.575 110.322C48.5996 110.889 48.6242 111.478 48.691 112.044C48.8827 113.67 49.4277 115.27 49.9552 116.815C50.4212 118.182 50.9047 119.597 51.1544 121.053C51.441 122.72 51.4269 124.408 51.1104 126.069C51.0788 126.237 50.9328 126.357 50.7658 126.357C50.7588 126.357 50.7535 126.357 50.7465 126.357V126.358ZM44.617 104.527C44.8298 105.462 45.1902 106.386 45.5401 107.277C45.9164 108.241 46.3068 109.237 46.5248 110.278C46.7516 111.351 46.7903 112.454 46.8307 113.518C46.8536 114.16 46.8782 114.824 46.9433 115.467C47.2809 118.789 48.7086 121.883 50.0906 124.875C50.1891 125.09 50.3262 125.352 50.495 125.511C50.7201 124.071 50.7095 122.616 50.4616 121.176C50.2207 119.775 49.7477 118.389 49.2888 117.046C48.749 115.465 48.1917 113.83 47.9912 112.128C47.9209 111.536 47.8963 110.935 47.8699 110.354C47.833 109.478 47.796 108.652 47.6255 107.834C47.4901 107.189 47.2158 106.414 47.0329 105.901C46.9907 105.783 46.9538 105.677 46.9239 105.589C46.4773 104.287 46.094 103.348 45.9692 103.04L45.9551 103.006C45.4505 101.767 45.0197 100.575 44.654 99.4627C44.3128 101.17 44.2372 102.858 44.6153 104.527H44.617Z" fill="#884C42"/>
</svg>
