<svg width="127" height="20" viewBox="0 0 127 20" fill="none" xmlns="http://www.w3.org/2000/svg">
<path d="M0.617432 19.1718V18.887L1.12916 18.7162C1.50821 18.5833 1.76597 18.4011 1.89864 18.1733C2.03131 17.9455 2.09954 17.6418 2.09954 17.2583C2.11849 16.1156 2.12986 14.9653 2.12986 13.8036V5.73613C2.12986 4.5858 2.11849 3.43548 2.09954 2.29274C2.09954 1.9131 2.04647 1.60559 1.94413 1.37781C1.84178 1.15002 1.60677 0.967786 1.24666 0.83491L0.617432 0.607121V0.322388H14.4189L14.6198 5.06415H14.3355L12.7093 2.06496C12.5198 1.7043 12.2999 1.41956 12.0535 1.20696C11.8072 0.998156 11.466 0.891855 11.0263 0.891855H6.43594C6.41699 2.24339 6.40561 3.6253 6.40561 5.03378V9.23265H9.36983C9.80575 9.23265 10.1317 9.13774 10.3402 8.94792C10.5487 8.75809 10.7496 8.48096 10.9391 8.12029L11.538 7.03451H11.8223V12.0344H11.538L10.9126 10.9486C10.7231 10.607 10.526 10.3298 10.3288 10.121C10.1279 9.91222 9.80954 9.80592 9.37362 9.80592H6.4094V13.6175C6.4094 14.8286 6.41699 16.0131 6.43973 17.1748C6.43973 17.9189 6.79983 18.4049 7.52383 18.6327L8.38049 18.8908V19.1755H0.617432V19.1718Z" fill="#884C42"/>
<path d="M27.1665 19.1718V18.887L27.7654 18.6858C28.1445 18.5529 28.3909 18.3783 28.5084 18.1581C28.6221 17.9379 28.679 17.6304 28.679 17.228V2.28896C28.679 1.90932 28.6259 1.6094 28.5236 1.3892C28.4174 1.16901 28.1862 0.994374 27.8261 0.861499L27.1703 0.603337V0.318604H35.3276C37.5716 0.318604 39.2925 0.743808 40.4903 1.59042C41.6882 2.43702 42.2871 3.61392 42.2871 5.11731C42.2871 5.95633 41.9725 6.79154 41.347 7.63056C40.7216 8.46957 39.7322 9.11497 38.3828 9.57435L42.3477 17.4558C42.5183 17.7785 42.7116 18.0404 42.9315 18.2416C43.1513 18.4428 43.4394 18.6175 43.7995 18.7693L44.171 18.9136V19.1718H39.0651L34.8462 10.1742H32.9054V17.228C32.9054 17.5886 32.9623 17.8848 33.076 18.1126C33.1897 18.3403 33.4285 18.5112 33.7886 18.6251L34.4747 18.8832V19.168H27.1741L27.1665 19.1718ZM32.8979 9.60472H34.2662C35.6346 9.60472 36.624 9.23646 37.2305 8.50374C37.8407 7.77103 38.144 6.68145 38.144 5.235C38.144 3.78856 37.8597 2.67999 37.2873 1.96626C36.715 1.25253 35.7559 0.895665 34.4065 0.895665H32.8941V9.60851L32.8979 9.60472Z" fill="#884C42"/>
<path d="M56.4827 19.1718V18.887L57.1385 18.6289C57.4607 18.496 57.6843 18.3175 57.8094 18.1012C57.9345 17.881 57.9951 17.581 57.9951 17.2014V2.29274C57.9951 1.9131 57.9421 1.61318 57.8397 1.39299C57.7336 1.17279 57.5024 0.998158 57.1423 0.865283L56.4865 0.607121V0.322388H70.1477L70.3182 4.72247H70.034L68.8058 2.03838C68.6352 1.6967 68.4533 1.41957 68.2638 1.21076C68.0742 1.00196 67.7899 0.895655 67.4071 0.895655H62.2747V9.14913H65.3261C65.7051 9.14913 65.997 9.05042 66.1941 8.84921C66.395 8.648 66.5694 8.37845 66.721 8.03677L67.2934 6.89404H67.5777V12.0344H67.2934L66.721 10.8348C66.5504 10.4931 66.3685 10.2197 66.179 10.0223C65.9894 9.8211 65.7051 9.7224 65.3223 9.7224H62.2709V18.6061H68.0325C68.4116 18.6061 68.7073 18.5074 68.9157 18.3062C69.1242 18.105 69.2948 17.824 69.4275 17.4634L70.595 14.7793H70.8792L70.7087 19.1793H56.4789L56.4827 19.1718Z" fill="#884C42"/>
<path d="M87.4516 19.1718V18.887L88.3082 18.6592C88.9716 18.4694 89.3051 17.9949 89.3051 17.2318V11.8066L84.6011 2.20922C84.4305 1.82958 84.2713 1.54485 84.131 1.35123C83.987 1.16141 83.7747 0.998158 83.4904 0.865283L82.9787 0.607121V0.322388H90.6205V0.607121L90.1087 0.808338C89.6918 0.979178 89.4606 1.21456 89.4226 1.50688C89.3847 1.80301 89.4606 2.16746 89.6501 2.60785L93.0161 10.0907L96.7801 2.32312C96.9317 2.0194 96.9924 1.7043 96.9659 1.3816C96.9355 1.0589 96.7346 0.850096 96.3518 0.751388L95.9538 0.607121V0.322388H99.3767V0.607121L98.8346 0.808338C98.4745 0.941214 98.2054 1.12723 98.0348 1.36641C97.8642 1.60559 97.6936 1.90551 97.5231 2.26617L93.615 10.4931V17.2318C93.615 17.6114 93.687 17.9227 93.8273 18.1619C93.9713 18.4011 94.2215 18.5681 94.5816 18.663L95.4648 18.8908V19.1755H87.4516V19.1718Z" fill="#884C42"/>
<path d="M108.47 19.1718V18.8871L109.183 18.6289C109.562 18.4771 109.858 18.291 110.066 18.0709C110.275 17.8507 110.445 17.5431 110.578 17.1407L116.453 0.261719H118.875L124.663 17.2546C124.815 17.6722 124.986 17.9911 125.175 18.2113C125.365 18.4315 125.66 18.6175 126.058 18.7694L126.4 18.8833V19.168H119.156V18.8833L119.584 18.739C119.982 18.5872 120.225 18.3708 120.312 18.0974C120.399 17.8203 120.384 17.4938 120.27 17.1103L118.928 12.9988H112.598L111.23 17.0268C111.097 17.4444 111.055 17.7785 111.101 18.0253C111.146 18.2721 111.37 18.4733 111.772 18.6251L112.397 18.8833V19.168H108.463L108.47 19.1718ZM112.807 12.4331H118.765L115.885 3.54944L112.803 12.4331H112.807Z" fill="#884C42"/>
</svg>
