<svg width="69" height="69" viewBox="0 0 69 69" fill="none" xmlns="http://www.w3.org/2000/svg">
<mask id="mask0_1075_7442" style="mask-type:alpha" maskUnits="userSpaceOnUse" x="0" y="0" width="69" height="69">
<circle cx="34.5" cy="34.5" r="34.5" fill="#D9D9D9"/>
</mask>
<g mask="url(#mask0_1075_7442)">
<rect x="-15" y="-15" width="100" height="100" fill="#FFA593"/>
<path d="M44.1924 25.8076C41.737 23.3522 38.4724 22 35 22C31.5276 22 28.263 23.3522 25.8076 25.8076C23.3522 28.263 22 31.5276 22 35C22 38.4724 23.3522 41.737 25.8076 44.1924C28.263 46.6478 31.5276 48 35 48C38.4724 48 41.737 46.6478 44.1924 44.1924C46.6478 41.737 48 38.4724 48 35C48 31.5276 46.6478 28.263 44.1924 25.8076ZM27.6421 43.8002C28.0713 40.1067 31.2469 37.255 35 37.255C36.9785 37.255 38.8389 38.0258 40.2384 39.4251C41.4207 40.6076 42.1663 42.1514 42.3581 43.8C40.3646 45.4697 37.7977 46.4766 35 46.4766C32.2023 46.4766 29.6356 45.4699 27.6421 43.8002ZM35 35.6859C32.823 35.6859 31.0516 33.9146 31.0516 31.7375C31.0516 29.5603 32.823 27.7891 35 27.7891C37.177 27.7891 38.9484 29.5603 38.9484 31.7375C38.9484 33.9146 37.177 35.6859 35 35.6859ZM43.6693 42.5123C43.2811 40.9472 42.4716 39.5041 41.3155 38.348C40.3792 37.4117 39.2716 36.7093 38.0635 36.2691C39.5158 35.2843 40.4719 33.6204 40.4719 31.7375C40.4719 28.7204 38.0171 26.2656 35 26.2656C31.9829 26.2656 29.5281 28.7204 29.5281 31.7375C29.5281 33.6214 30.485 35.2858 31.9384 36.2705C30.827 36.6756 29.7985 37.3018 28.9136 38.1262C27.6322 39.3196 26.7423 40.8412 26.3297 42.5111C24.5823 40.4967 23.5234 37.8697 23.5234 35C23.5234 28.6718 28.6718 23.5234 35 23.5234C41.3282 23.5234 46.4766 28.6718 46.4766 35C46.4766 37.8703 45.4173 40.4979 43.6693 42.5123Z" fill="#F9E9D4"/>
</g>
</svg>
