<svg width="343" height="445" viewBox="0 0 343 445" fill="none" xmlns="http://www.w3.org/2000/svg">
<rect width="343" height="445" rx="6" fill="white"/>
<path d="M132.919 51V48.76H133.639C134.119 48.76 134.503 48.6267 134.791 48.36C135.089 48.0827 135.239 47.72 135.239 47.272V39.08H137.719V47.16C137.719 47.928 137.553 48.6 137.223 49.176C136.892 49.752 136.417 50.2 135.799 50.52C135.191 50.84 134.471 51 133.639 51H132.919ZM142.75 51.192C142.046 51.192 141.444 51.0427 140.942 50.744C140.452 50.4347 140.078 50.008 139.822 49.464C139.566 48.92 139.438 48.2853 139.438 47.56V42.264H141.838V47.368C141.838 47.6987 141.902 47.992 142.03 48.248C142.169 48.4933 142.361 48.6853 142.606 48.824C142.852 48.9627 143.129 49.032 143.438 49.032C143.758 49.032 144.036 48.9627 144.27 48.824C144.516 48.6853 144.702 48.4933 144.83 48.248C144.969 47.992 145.038 47.6987 145.038 47.368V42.264H147.438V51H145.198V49.272L145.326 49.656C145.124 50.1787 144.793 50.568 144.334 50.824C143.886 51.0693 143.358 51.192 142.75 51.192ZM149.193 51V42.264H151.433V43.992L151.305 43.608C151.507 43.0853 151.833 42.7013 152.281 42.456C152.739 42.2 153.273 42.072 153.881 42.072C154.542 42.072 155.118 42.2107 155.609 42.488C156.11 42.7653 156.499 43.1547 156.777 43.656C157.054 44.1467 157.193 44.7227 157.193 45.384V51H154.793V45.896C154.793 45.5547 154.723 45.2613 154.585 45.016C154.457 44.7707 154.27 44.5787 154.025 44.44C153.79 44.3013 153.513 44.232 153.193 44.232C152.883 44.232 152.606 44.3013 152.361 44.44C152.115 44.5787 151.923 44.7707 151.785 45.016C151.657 45.2613 151.593 45.5547 151.593 45.896V51H149.193ZM162.979 51.192C162.051 51.192 161.245 50.9893 160.563 50.584C159.88 50.168 159.352 49.6133 158.979 48.92C158.605 48.2267 158.419 47.4587 158.419 46.616C158.419 45.7413 158.611 44.9627 158.995 44.28C159.389 43.5973 159.917 43.0587 160.579 42.664C161.24 42.2693 161.987 42.072 162.819 42.072C163.512 42.072 164.125 42.184 164.659 42.408C165.192 42.6213 165.64 42.9253 166.003 43.32C166.376 43.7147 166.659 44.1733 166.851 44.696C167.043 45.208 167.139 45.768 167.139 46.376C167.139 46.5467 167.128 46.7173 167.107 46.888C167.096 47.048 167.069 47.1867 167.027 47.304H160.483V45.544H165.667L164.531 46.376C164.637 45.9173 164.632 45.512 164.515 45.16C164.397 44.7973 164.189 44.5147 163.891 44.312C163.603 44.0987 163.245 43.992 162.819 43.992C162.403 43.992 162.045 44.0933 161.747 44.296C161.448 44.4987 161.224 44.7973 161.075 45.192C160.925 45.5867 160.867 46.0667 160.899 46.632C160.856 47.1227 160.915 47.5547 161.075 47.928C161.235 48.3013 161.48 48.5947 161.811 48.808C162.141 49.0107 162.541 49.112 163.011 49.112C163.437 49.112 163.8 49.0267 164.099 48.856C164.408 48.6853 164.648 48.4507 164.819 48.152L166.739 49.064C166.568 49.4907 166.296 49.864 165.923 50.184C165.56 50.504 165.128 50.7547 164.627 50.936C164.125 51.1067 163.576 51.192 162.979 51.192ZM171.219 51V49.08L174.419 45.784C175.048 45.1333 175.523 44.6213 175.843 44.248C176.174 43.864 176.398 43.544 176.515 43.288C176.643 43.032 176.707 42.7813 176.707 42.536C176.707 42.0987 176.563 41.7573 176.275 41.512C175.998 41.256 175.646 41.128 175.219 41.128C174.782 41.128 174.392 41.256 174.051 41.512C173.71 41.7573 173.459 42.136 173.299 42.648L171.139 41.944C171.267 41.3253 171.534 40.7867 171.939 40.328C172.344 39.8693 172.835 39.5173 173.411 39.272C173.987 39.016 174.59 38.888 175.219 38.888C176.008 38.888 176.702 39.0267 177.299 39.304C177.896 39.5813 178.36 39.9707 178.691 40.472C179.022 40.9733 179.187 41.56 179.187 42.232C179.187 42.6587 179.112 43.08 178.963 43.496C178.814 43.9013 178.584 44.3173 178.275 44.744C177.976 45.16 177.587 45.6133 177.107 46.104L174.371 48.92H179.299V51H171.219ZM185.678 51.192C184.729 51.192 183.891 50.936 183.166 50.424C182.451 49.912 181.891 49.192 181.486 48.264C181.081 47.336 180.878 46.2587 180.878 45.032C180.878 43.7947 181.075 42.7173 181.47 41.8C181.875 40.8827 182.435 40.168 183.15 39.656C183.875 39.144 184.713 38.888 185.662 38.888C186.633 38.888 187.475 39.144 188.19 39.656C188.915 40.168 189.475 40.888 189.87 41.816C190.275 42.7333 190.478 43.8053 190.478 45.032C190.478 46.2587 190.275 47.336 189.87 48.264C189.475 49.1813 188.915 49.9013 188.19 50.424C187.475 50.936 186.638 51.192 185.678 51.192ZM185.694 48.952C186.185 48.952 186.601 48.7973 186.942 48.488C187.283 48.1787 187.545 47.7307 187.726 47.144C187.907 46.5573 187.998 45.8533 187.998 45.032C187.998 44.2107 187.907 43.512 187.726 42.936C187.545 42.3493 187.278 41.9013 186.926 41.592C186.585 41.2827 186.163 41.128 185.662 41.128C185.171 41.128 184.755 41.2827 184.414 41.592C184.073 41.9013 183.811 42.3493 183.63 42.936C183.449 43.512 183.358 44.2107 183.358 45.032C183.358 45.8427 183.449 46.5413 183.63 47.128C183.811 47.7147 184.073 48.168 184.414 48.488C184.766 48.7973 185.193 48.952 185.694 48.952ZM191.953 51V49.08L195.153 45.784C195.783 45.1333 196.257 44.6213 196.577 44.248C196.908 43.864 197.132 43.544 197.249 43.288C197.377 43.032 197.441 42.7813 197.441 42.536C197.441 42.0987 197.297 41.7573 197.009 41.512C196.732 41.256 196.38 41.128 195.953 41.128C195.516 41.128 195.127 41.256 194.785 41.512C194.444 41.7573 194.193 42.136 194.033 42.648L191.873 41.944C192.001 41.3253 192.268 40.7867 192.673 40.328C193.079 39.8693 193.569 39.5173 194.145 39.272C194.721 39.016 195.324 38.888 195.953 38.888C196.743 38.888 197.436 39.0267 198.033 39.304C198.631 39.5813 199.095 39.9707 199.425 40.472C199.756 40.9733 199.921 41.56 199.921 42.232C199.921 42.6587 199.847 43.08 199.697 43.496C199.548 43.9013 199.319 44.3173 199.009 44.744C198.711 45.16 198.321 45.6133 197.841 46.104L195.105 48.92H200.033V51H191.953ZM205.485 51.192C204.823 51.192 204.194 51.0693 203.597 50.824C202.999 50.568 202.493 50.2107 202.077 49.752C201.661 49.2933 201.383 48.7547 201.245 48.136L203.437 47.4C203.618 47.912 203.885 48.3013 204.237 48.568C204.589 48.824 205.005 48.952 205.485 48.952C205.879 48.952 206.215 48.8773 206.493 48.728C206.781 48.5787 207.005 48.3707 207.165 48.104C207.325 47.8267 207.405 47.5067 207.405 47.144C207.405 46.7813 207.325 46.472 207.165 46.216C207.015 45.9493 206.797 45.7467 206.509 45.608C206.231 45.4587 205.89 45.384 205.485 45.384C205.25 45.384 205.015 45.4107 204.781 45.464C204.546 45.5173 204.333 45.592 204.141 45.688L203.565 44.488L206.621 41.16H201.965V39.08H209.405V41L206.269 44.568L206.349 43.56C207.063 43.56 207.682 43.7093 208.205 44.008C208.738 44.296 209.149 44.7013 209.437 45.224C209.735 45.7467 209.885 46.3547 209.885 47.048C209.885 47.8373 209.693 48.5467 209.309 49.176C208.925 49.8053 208.402 50.3013 207.741 50.664C207.079 51.016 206.327 51.192 205.485 51.192Z" fill="#884C42"/>
<g opacity="0.6">
<path fill-rule="evenodd" clip-rule="evenodd" d="M301.793 49.7071C301.402 49.3166 301.402 48.6834 301.793 48.2929L306.086 44L301.793 39.7071C301.402 39.3166 301.402 38.6834 301.793 38.2929C302.183 37.9024 302.817 37.9024 303.207 38.2929L308.207 43.2929C308.598 43.6834 308.598 44.3166 308.207 44.7071L303.207 49.7071C302.817 50.0976 302.183 50.0976 301.793 49.7071Z" fill="#151515"/>
</g>
<g opacity="0.6">
<path fill-rule="evenodd" clip-rule="evenodd" d="M41.2071 38.2929C41.5976 38.6834 41.5976 39.3166 41.2071 39.7071L36.9142 44L41.2071 48.2929C41.5976 48.6834 41.5976 49.3166 41.2071 49.7071C40.8166 50.0976 40.1834 50.0976 39.7929 49.7071L34.7929 44.7071C34.4024 44.3166 34.4024 43.6834 34.7929 43.2929L39.7929 38.2929C40.1834 37.9024 40.8166 37.9024 41.2071 38.2929Z" fill="#151515"/>
</g>
<path opacity="0.5" d="M29.9255 93.156C29.3188 93.156 28.7555 93.0433 28.2355 92.818C27.7155 92.584 27.2735 92.2677 26.9095 91.869C26.5455 91.4703 26.2768 91.011 26.1035 90.491L27.4035 89.945C27.6375 90.543 27.9798 91.0023 28.4305 91.323C28.8811 91.6437 29.4011 91.804 29.9905 91.804C30.3371 91.804 30.6405 91.752 30.9005 91.648C31.1605 91.5353 31.3598 91.3793 31.4985 91.18C31.6458 90.9807 31.7195 90.751 31.7195 90.491C31.7195 90.1357 31.6198 89.854 31.4205 89.646C31.2211 89.438 30.9265 89.2733 30.5365 89.152L28.7165 88.58C27.9885 88.3547 27.4338 88.0123 27.0525 87.553C26.6711 87.085 26.4805 86.539 26.4805 85.915C26.4805 85.369 26.6148 84.8923 26.8835 84.485C27.1521 84.069 27.5205 83.744 27.9885 83.51C28.4651 83.276 29.0068 83.159 29.6135 83.159C30.1941 83.159 30.7228 83.263 31.1995 83.471C31.6761 83.6703 32.0835 83.9477 32.4215 84.303C32.7681 84.6583 33.0195 85.07 33.1755 85.538L31.9015 86.097C31.7108 85.5857 31.4118 85.1913 31.0045 84.914C30.6058 84.6367 30.1421 84.498 29.6135 84.498C29.2928 84.498 29.0111 84.5543 28.7685 84.667C28.5258 84.771 28.3351 84.927 28.1965 85.135C28.0665 85.3343 28.0015 85.5683 28.0015 85.837C28.0015 86.149 28.1011 86.4263 28.3005 86.669C28.4998 86.9117 28.8031 87.0937 29.2105 87.215L30.9005 87.748C31.6718 87.982 32.2525 88.32 32.6425 88.762C33.0325 89.1953 33.2275 89.737 33.2275 90.387C33.2275 90.9243 33.0845 91.401 32.7985 91.817C32.5211 92.233 32.1355 92.5623 31.6415 92.805C31.1475 93.039 30.5755 93.156 29.9255 93.156ZM37.3155 93.156C36.7868 93.156 36.3231 93.039 35.9245 92.805C35.5258 92.5623 35.2138 92.2287 34.9885 91.804C34.7718 91.3707 34.6635 90.8723 34.6635 90.309V85.967H36.1325V90.179C36.1325 90.4997 36.1975 90.7813 36.3275 91.024C36.4575 91.2667 36.6395 91.4573 36.8735 91.596C37.1075 91.726 37.3761 91.791 37.6795 91.791C37.9915 91.791 38.2645 91.7217 38.4985 91.583C38.7325 91.4443 38.9145 91.2493 39.0445 90.998C39.1831 90.7467 39.2525 90.452 39.2525 90.114V85.967H40.7085V93H39.3175V91.622L39.4735 91.804C39.3088 92.2373 39.0358 92.571 38.6545 92.805C38.2731 93.039 37.8268 93.156 37.3155 93.156ZM42.4236 93V85.967H43.8276V87.345L43.6586 87.163C43.832 86.721 44.1093 86.3873 44.4906 86.162C44.872 85.928 45.314 85.811 45.8166 85.811C46.3366 85.811 46.796 85.9237 47.1946 86.149C47.5933 86.3743 47.9053 86.6863 48.1306 87.085C48.356 87.4837 48.4686 87.943 48.4686 88.463V93H47.0126V88.853C47.0126 88.4977 46.9476 88.1987 46.8176 87.956C46.6876 87.7047 46.5013 87.514 46.2586 87.384C46.0246 87.2453 45.756 87.176 45.4526 87.176C45.1493 87.176 44.8763 87.2453 44.6336 87.384C44.3996 87.514 44.2176 87.7047 44.0876 87.956C43.9576 88.2073 43.8926 88.5063 43.8926 88.853V93H42.4236Z" fill="#151515"/>
<path opacity="0.5" d="M69.336 93V83.315H70.766L74.406 88.359H73.691L77.266 83.315H78.696V93H77.175V85.122L77.747 85.278L74.094 90.27H73.938L70.363 85.278L70.87 85.122V93H69.336ZM83.9484 93.156C83.2724 93.156 82.6527 92.9957 82.0894 92.675C81.5347 92.3543 81.0927 91.9167 80.7634 91.362C80.434 90.8073 80.2694 90.179 80.2694 89.477C80.2694 88.7663 80.434 88.138 80.7634 87.592C81.0927 87.0373 81.5347 86.604 82.0894 86.292C82.644 85.9713 83.2637 85.811 83.9484 85.811C84.6417 85.811 85.2614 85.9713 85.8074 86.292C86.362 86.604 86.7997 87.0373 87.1204 87.592C87.4497 88.138 87.6144 88.7663 87.6144 89.477C87.6144 90.1877 87.4497 90.8203 87.1204 91.375C86.791 91.9297 86.349 92.3673 85.7944 92.688C85.2397 93 84.6244 93.156 83.9484 93.156ZM83.9484 91.791C84.3644 91.791 84.7327 91.6913 85.0534 91.492C85.374 91.2927 85.6254 91.0197 85.8074 90.673C85.998 90.3177 86.0934 89.919 86.0934 89.477C86.0934 89.035 85.998 88.6407 85.8074 88.294C85.6254 87.9473 85.374 87.6743 85.0534 87.475C84.7327 87.2757 84.3644 87.176 83.9484 87.176C83.541 87.176 83.1727 87.2757 82.8434 87.475C82.5227 87.6743 82.267 87.9473 82.0764 88.294C81.8944 88.6407 81.8034 89.035 81.8034 89.477C81.8034 89.919 81.8944 90.3177 82.0764 90.673C82.267 91.0197 82.5227 91.2927 82.8434 91.492C83.1727 91.6913 83.541 91.791 83.9484 91.791ZM89.0485 93V85.967H90.4525V87.345L90.2835 87.163C90.4569 86.721 90.7342 86.3873 91.1155 86.162C91.4969 85.928 91.9389 85.811 92.4415 85.811C92.9615 85.811 93.4209 85.9237 93.8195 86.149C94.2182 86.3743 94.5302 86.6863 94.7555 87.085C94.9809 87.4837 95.0935 87.943 95.0935 88.463V93H93.6375V88.853C93.6375 88.4977 93.5725 88.1987 93.4425 87.956C93.3125 87.7047 93.1262 87.514 92.8835 87.384C92.6495 87.2453 92.3809 87.176 92.0775 87.176C91.7742 87.176 91.5012 87.2453 91.2585 87.384C91.0245 87.514 90.8425 87.7047 90.7125 87.956C90.5825 88.2073 90.5175 88.5063 90.5175 88.853V93H89.0485Z" fill="#151515"/>
<path opacity="0.5" d="M118.509 93V84.68H115.935V83.315H122.565V84.68H120.03V93H118.509ZM125.557 93.156C125.028 93.156 124.565 93.039 124.166 92.805C123.767 92.5623 123.455 92.2287 123.23 91.804C123.013 91.3707 122.905 90.8723 122.905 90.309V85.967H124.374V90.179C124.374 90.4997 124.439 90.7813 124.569 91.024C124.699 91.2667 124.881 91.4573 125.115 91.596C125.349 91.726 125.618 91.791 125.921 91.791C126.233 91.791 126.506 91.7217 126.74 91.583C126.974 91.4443 127.156 91.2493 127.286 90.998C127.425 90.7467 127.494 90.452 127.494 90.114V85.967H128.95V93H127.559V91.622L127.715 91.804C127.55 92.2373 127.277 92.571 126.896 92.805C126.515 93.039 126.068 93.156 125.557 93.156ZM133.967 93.156C133.265 93.156 132.641 92.9957 132.095 92.675C131.558 92.3457 131.138 91.9037 130.834 91.349C130.531 90.7857 130.379 90.1573 130.379 89.464C130.379 88.7533 130.531 88.125 130.834 87.579C131.146 87.033 131.562 86.604 132.082 86.292C132.602 85.9713 133.192 85.811 133.85 85.811C134.379 85.811 134.851 85.902 135.267 86.084C135.683 86.266 136.034 86.5173 136.32 86.838C136.606 87.15 136.823 87.5097 136.97 87.917C137.126 88.3243 137.204 88.7577 137.204 89.217C137.204 89.3297 137.2 89.4467 137.191 89.568C137.183 89.6893 137.165 89.802 137.139 89.906H131.536V88.736H136.307L135.605 89.269C135.692 88.8443 135.662 88.4673 135.514 88.138C135.376 87.8 135.159 87.5357 134.864 87.345C134.578 87.1457 134.24 87.046 133.85 87.046C133.46 87.046 133.114 87.1457 132.81 87.345C132.507 87.5357 132.273 87.813 132.108 88.177C131.944 88.5323 131.879 88.9657 131.913 89.477C131.87 89.9537 131.935 90.3697 132.108 90.725C132.29 91.0803 132.542 91.3577 132.862 91.557C133.192 91.7563 133.564 91.856 133.98 91.856C134.405 91.856 134.765 91.7607 135.059 91.57C135.363 91.3793 135.601 91.1323 135.774 90.829L136.97 91.414C136.832 91.7433 136.615 92.0423 136.32 92.311C136.034 92.571 135.688 92.779 135.28 92.935C134.882 93.0823 134.444 93.156 133.967 93.156Z" fill="#151515"/>
<path opacity="0.5" d="M159.645 93L156.98 83.315H158.605L160.763 91.7H160.36L162.596 83.315H164.195L166.431 91.7H166.015L168.186 83.315H169.798L167.146 93H165.417L163.168 84.745H163.623L161.361 93H159.645ZM173.641 93.156C172.939 93.156 172.315 92.9957 171.769 92.675C171.232 92.3457 170.812 91.9037 170.508 91.349C170.205 90.7857 170.053 90.1573 170.053 89.464C170.053 88.7533 170.205 88.125 170.508 87.579C170.82 87.033 171.236 86.604 171.756 86.292C172.276 85.9713 172.866 85.811 173.524 85.811C174.053 85.811 174.525 85.902 174.941 86.084C175.357 86.266 175.708 86.5173 175.994 86.838C176.28 87.15 176.497 87.5097 176.644 87.917C176.8 88.3243 176.878 88.7577 176.878 89.217C176.878 89.3297 176.874 89.4467 176.865 89.568C176.857 89.6893 176.839 89.802 176.813 89.906H171.21V88.736H175.981L175.279 89.269C175.366 88.8443 175.336 88.4673 175.188 88.138C175.05 87.8 174.833 87.5357 174.538 87.345C174.252 87.1457 173.914 87.046 173.524 87.046C173.134 87.046 172.788 87.1457 172.484 87.345C172.181 87.5357 171.947 87.813 171.782 88.177C171.618 88.5323 171.553 88.9657 171.587 89.477C171.544 89.9537 171.609 90.3697 171.782 90.725C171.964 91.0803 172.216 91.3577 172.536 91.557C172.866 91.7563 173.238 91.856 173.654 91.856C174.079 91.856 174.439 91.7607 174.733 91.57C175.037 91.3793 175.275 91.1323 175.448 90.829L176.644 91.414C176.506 91.7433 176.289 92.0423 175.994 92.311C175.708 92.571 175.362 92.779 174.954 92.935C174.556 93.0823 174.118 93.156 173.641 93.156ZM181.562 93.156C180.886 93.156 180.279 92.9957 179.742 92.675C179.213 92.3457 178.793 91.9037 178.481 91.349C178.178 90.7943 178.026 90.1703 178.026 89.477C178.026 88.7837 178.182 88.1597 178.494 87.605C178.806 87.0503 179.226 86.6127 179.755 86.292C180.284 85.9713 180.882 85.811 181.549 85.811C182.112 85.811 182.611 85.9237 183.044 86.149C183.477 86.3743 183.82 86.6863 184.071 87.085L183.85 87.423V83.159H185.306V93H183.915V91.57L184.084 91.843C183.841 92.2677 183.495 92.5927 183.044 92.818C182.593 93.0433 182.099 93.156 181.562 93.156ZM181.705 91.791C182.112 91.791 182.476 91.6913 182.797 91.492C183.126 91.2927 183.382 91.0197 183.564 90.673C183.755 90.3177 183.85 89.919 183.85 89.477C183.85 89.035 183.755 88.6407 183.564 88.294C183.382 87.9473 183.126 87.6743 182.797 87.475C182.476 87.2757 182.112 87.176 181.705 87.176C181.298 87.176 180.929 87.2757 180.6 87.475C180.271 87.6743 180.015 87.9473 179.833 88.294C179.651 88.6407 179.56 89.035 179.56 89.477C179.56 89.919 179.651 90.3177 179.833 90.673C180.015 91.0197 180.266 91.2927 180.587 91.492C180.916 91.6913 181.289 91.791 181.705 91.791Z" fill="#151515"/>
<path opacity="0.5" d="M207.855 93V84.68H205.281V83.315H211.911V84.68H209.376V93H207.855ZM212.915 93V83.159H214.384V87.345L214.15 87.163C214.323 86.721 214.6 86.3873 214.982 86.162C215.363 85.928 215.805 85.811 216.308 85.811C216.828 85.811 217.287 85.9237 217.686 86.149C218.084 86.3743 218.396 86.6863 218.622 87.085C218.847 87.4837 218.96 87.9387 218.96 88.45V93H217.504V88.853C217.504 88.4977 217.434 88.1987 217.296 87.956C217.166 87.7047 216.984 87.514 216.75 87.384C216.516 87.2453 216.247 87.176 215.944 87.176C215.649 87.176 215.38 87.2453 215.138 87.384C214.904 87.514 214.717 87.7047 214.579 87.956C214.449 88.2073 214.384 88.5063 214.384 88.853V93H212.915ZM223.041 93.156C222.512 93.156 222.048 93.039 221.65 92.805C221.251 92.5623 220.939 92.2287 220.714 91.804C220.497 91.3707 220.389 90.8723 220.389 90.309V85.967H221.858V90.179C221.858 90.4997 221.923 90.7813 222.053 91.024C222.183 91.2667 222.365 91.4573 222.599 91.596C222.833 91.726 223.101 91.791 223.405 91.791C223.717 91.791 223.99 91.7217 224.224 91.583C224.458 91.4443 224.64 91.2493 224.77 90.998C224.908 90.7467 224.978 90.452 224.978 90.114V85.967H226.434V93H225.043V91.622L225.199 91.804C225.034 92.2373 224.761 92.571 224.38 92.805C223.998 93.039 223.552 93.156 223.041 93.156Z" fill="#151515"/>
<path opacity="0.5" d="M254.382 93V83.315H260.687V84.68H255.916V87.592H260.167V88.957H255.916V93H254.382ZM261.437 93V85.967H262.841V87.384L262.711 87.176C262.867 86.7167 263.119 86.3873 263.465 86.188C263.812 85.98 264.228 85.876 264.713 85.876H265.142V87.215H264.531C264.046 87.215 263.652 87.3667 263.348 87.67C263.054 87.9647 262.906 88.3893 262.906 88.944V93H261.437ZM266.147 93V85.967H267.616V93H266.147ZM266.147 85.005V83.315H267.616V85.005H266.147Z" fill="#151515"/>
<path opacity="0.5" d="M299.563 93.156C298.957 93.156 298.393 93.0433 297.873 92.818C297.353 92.584 296.911 92.2677 296.547 91.869C296.183 91.4703 295.915 91.011 295.741 90.491L297.041 89.945C297.275 90.543 297.618 91.0023 298.068 91.323C298.519 91.6437 299.039 91.804 299.628 91.804C299.975 91.804 300.278 91.752 300.538 91.648C300.798 91.5353 300.998 91.3793 301.136 91.18C301.284 90.9807 301.357 90.751 301.357 90.491C301.357 90.1357 301.258 89.854 301.058 89.646C300.859 89.438 300.564 89.2733 300.174 89.152L298.354 88.58C297.626 88.3547 297.072 88.0123 296.69 87.553C296.309 87.085 296.118 86.539 296.118 85.915C296.118 85.369 296.253 84.8923 296.521 84.485C296.79 84.069 297.158 83.744 297.626 83.51C298.103 83.276 298.645 83.159 299.251 83.159C299.832 83.159 300.361 83.263 300.837 83.471C301.314 83.6703 301.721 83.9477 302.059 84.303C302.406 84.6583 302.657 85.07 302.813 85.538L301.539 86.097C301.349 85.5857 301.05 85.1913 300.642 84.914C300.244 84.6367 299.78 84.498 299.251 84.498C298.931 84.498 298.649 84.5543 298.406 84.667C298.164 84.771 297.973 84.927 297.834 85.135C297.704 85.3343 297.639 85.5683 297.639 85.837C297.639 86.149 297.739 86.4263 297.938 86.669C298.138 86.9117 298.441 87.0937 298.848 87.215L300.538 87.748C301.31 87.982 301.89 88.32 302.28 88.762C302.67 89.1953 302.865 89.737 302.865 90.387C302.865 90.9243 302.722 91.401 302.436 91.817C302.159 92.233 301.773 92.5623 301.279 92.805C300.785 93.039 300.213 93.156 299.563 93.156ZM306.423 93.156C305.947 93.156 305.526 93.0737 305.162 92.909C304.807 92.7357 304.53 92.5017 304.33 92.207C304.131 91.9037 304.031 91.5483 304.031 91.141C304.031 90.7597 304.114 90.4173 304.278 90.114C304.452 89.8107 304.716 89.555 305.071 89.347C305.427 89.139 305.873 88.9917 306.41 88.905L308.854 88.502V89.659L306.696 90.036C306.306 90.1053 306.02 90.231 305.838 90.413C305.656 90.5863 305.565 90.8117 305.565 91.089C305.565 91.3577 305.665 91.5787 305.864 91.752C306.072 91.9167 306.337 91.999 306.657 91.999C307.056 91.999 307.403 91.9123 307.697 91.739C308.001 91.5657 308.235 91.336 308.399 91.05C308.564 90.7553 308.646 90.4303 308.646 90.075V88.268C308.646 87.9213 308.516 87.6397 308.256 87.423C308.005 87.1977 307.667 87.085 307.242 87.085C306.852 87.085 306.51 87.189 306.215 87.397C305.929 87.5963 305.717 87.8563 305.578 88.177L304.356 87.566C304.486 87.2193 304.699 86.916 304.993 86.656C305.288 86.3873 305.63 86.1793 306.02 86.032C306.419 85.8847 306.839 85.811 307.281 85.811C307.836 85.811 308.326 85.915 308.75 86.123C309.184 86.331 309.517 86.6213 309.751 86.994C309.994 87.358 310.115 87.7827 310.115 88.268V93H308.711V91.726L309.01 91.765C308.846 92.051 308.633 92.298 308.373 92.506C308.122 92.714 307.832 92.8743 307.502 92.987C307.182 93.0997 306.822 93.156 306.423 93.156ZM314.748 93.078C314.011 93.078 313.439 92.87 313.032 92.454C312.625 92.038 312.421 91.453 312.421 90.699V87.293H311.186V85.967H311.381C311.71 85.967 311.966 85.8717 312.148 85.681C312.33 85.4903 312.421 85.2303 312.421 84.901V84.355H313.89V85.967H315.489V87.293H313.89V90.634C313.89 90.8767 313.929 91.0847 314.007 91.258C314.085 91.4227 314.211 91.5527 314.384 91.648C314.557 91.7347 314.783 91.778 315.06 91.778C315.129 91.778 315.207 91.7737 315.294 91.765C315.381 91.7563 315.463 91.7477 315.541 91.739V93C315.42 93.0173 315.285 93.0347 315.138 93.052C314.991 93.0693 314.861 93.078 314.748 93.078Z" fill="#151515"/>
<path d="M29.1635 144V143.25L32.2835 139.815C32.8935 139.145 33.3885 138.59 33.7685 138.15C34.1585 137.71 34.4485 137.31 34.6385 136.95C34.8285 136.59 34.9235 136.2 34.9235 135.78C34.9235 135.11 34.7285 134.595 34.3385 134.235C33.9485 133.875 33.4285 133.695 32.7785 133.695C32.1085 133.695 31.5435 133.885 31.0835 134.265C30.6335 134.645 30.3285 135.175 30.1685 135.855L29.0735 135.615C29.2035 135.005 29.4385 134.48 29.7785 134.04C30.1185 133.6 30.5435 133.26 31.0535 133.02C31.5635 132.77 32.1335 132.645 32.7635 132.645C33.4335 132.645 34.0185 132.78 34.5185 133.05C35.0185 133.32 35.4085 133.69 35.6885 134.16C35.9785 134.63 36.1235 135.17 36.1235 135.78C36.1235 136.2 36.0335 136.605 35.8535 136.995C35.6835 137.385 35.4235 137.805 35.0735 138.255C34.7235 138.705 34.2735 139.23 33.7235 139.83L30.8885 142.95H36.4235V144H29.1635ZM41.9976 144.18C41.2776 144.18 40.6326 144.035 40.0626 143.745C39.5026 143.445 39.0576 143.04 38.7276 142.53C38.4076 142.01 38.2476 141.425 38.2476 140.775C38.2476 140.065 38.4476 139.43 38.8476 138.87C39.2576 138.31 39.8076 137.92 40.4976 137.7V138.015C39.9676 137.785 39.5576 137.445 39.2676 136.995C38.9776 136.535 38.8326 136.045 38.8326 135.525C38.8326 134.975 38.9726 134.485 39.2526 134.055C39.5326 133.625 39.9076 133.285 40.3776 133.035C40.8576 132.775 41.3976 132.645 41.9976 132.645C42.6076 132.645 43.1476 132.77 43.6176 133.02C44.0876 133.26 44.4576 133.6 44.7276 134.04C45.0076 134.47 45.1476 134.965 45.1476 135.525C45.1476 136.085 44.9976 136.585 44.6976 137.025C44.3976 137.455 44.0026 137.785 43.5126 138.015L43.4976 137.7C44.1876 137.92 44.7326 138.31 45.1326 138.87C45.5426 139.43 45.7476 140.065 45.7476 140.775C45.7476 141.425 45.5826 142.01 45.2526 142.53C44.9326 143.04 44.4876 143.445 43.9176 143.745C43.3576 144.035 42.7176 144.18 41.9976 144.18ZM41.9976 143.13C42.5076 143.13 42.9526 143.035 43.3326 142.845C43.7126 142.645 44.0076 142.37 44.2176 142.02C44.4376 141.66 44.5476 141.245 44.5476 140.775C44.5476 140.305 44.4376 139.895 44.2176 139.545C44.0076 139.185 43.7126 138.91 43.3326 138.72C42.9526 138.52 42.5076 138.42 41.9976 138.42C41.4876 138.42 41.0376 138.52 40.6476 138.72C40.2676 138.91 39.9726 139.185 39.7626 139.545C39.5526 139.895 39.4476 140.305 39.4476 140.775C39.4476 141.245 39.5526 141.66 39.7626 142.02C39.9726 142.37 40.2676 142.645 40.6476 142.845C41.0376 143.035 41.4876 143.13 41.9976 143.13ZM41.9976 137.37C42.3676 137.37 42.6976 137.295 42.9876 137.145C43.2776 136.985 43.5076 136.77 43.6776 136.5C43.8576 136.22 43.9476 135.895 43.9476 135.525C43.9476 135.155 43.8576 134.835 43.6776 134.565C43.5076 134.295 43.2776 134.085 42.9876 133.935C42.6976 133.775 42.3676 133.695 41.9976 133.695C41.6276 133.695 41.2926 133.775 40.9926 133.935C40.7026 134.085 40.4676 134.295 40.2876 134.565C40.1176 134.835 40.0326 135.155 40.0326 135.525C40.0326 135.895 40.1176 136.22 40.2876 136.5C40.4676 136.77 40.7026 136.985 40.9926 137.145C41.2926 137.295 41.6276 137.37 41.9976 137.37Z" fill="#CBD5E1"/>
<path d="M74.1121 144V143.25L77.2321 139.815C77.8421 139.145 78.3371 138.59 78.7171 138.15C79.1071 137.71 79.3971 137.31 79.5871 136.95C79.7771 136.59 79.8721 136.2 79.8721 135.78C79.8721 135.11 79.6771 134.595 79.2871 134.235C78.8971 133.875 78.3771 133.695 77.7271 133.695C77.0571 133.695 76.4921 133.885 76.0321 134.265C75.5821 134.645 75.2771 135.175 75.1171 135.855L74.0221 135.615C74.1521 135.005 74.3871 134.48 74.7271 134.04C75.0671 133.6 75.4921 133.26 76.0021 133.02C76.5121 132.77 77.0821 132.645 77.7121 132.645C78.3821 132.645 78.9671 132.78 79.4671 133.05C79.9671 133.32 80.3571 133.69 80.6371 134.16C80.9271 134.63 81.0721 135.17 81.0721 135.78C81.0721 136.2 80.9821 136.605 80.8021 136.995C80.6321 137.385 80.3721 137.805 80.0221 138.255C79.6721 138.705 79.2221 139.23 78.6721 139.83L75.8371 142.95H81.3721V144H74.1121ZM84.4112 144L88.2962 138.915L88.5212 138.78C88.3712 139.02 88.1962 139.21 87.9962 139.35C87.7962 139.49 87.5762 139.59 87.3362 139.65C87.0962 139.71 86.8312 139.74 86.5412 139.74C85.8912 139.74 85.3062 139.59 84.7862 139.29C84.2662 138.98 83.8512 138.56 83.5412 138.03C83.2412 137.49 83.0912 136.875 83.0912 136.185C83.0912 135.505 83.2462 134.9 83.5562 134.37C83.8762 133.84 84.3062 133.42 84.8462 133.11C85.3962 132.8 86.0112 132.645 86.6912 132.645C87.3912 132.645 88.0112 132.805 88.5512 133.125C89.0912 133.435 89.5162 133.87 89.8262 134.43C90.1362 134.98 90.2912 135.615 90.2912 136.335C90.2912 136.735 90.2412 137.13 90.1412 137.52C90.0512 137.91 89.9112 138.295 89.7212 138.675C89.5312 139.055 89.2912 139.435 89.0012 139.815L85.8512 144H84.4112ZM86.6912 138.66C87.1612 138.66 87.5762 138.555 87.9362 138.345C88.2962 138.125 88.5762 137.83 88.7762 137.46C88.9862 137.08 89.0912 136.655 89.0912 136.185C89.0912 135.705 88.9862 135.28 88.7762 134.91C88.5662 134.53 88.2812 134.235 87.9212 134.025C87.5612 133.805 87.1512 133.695 86.6912 133.695C86.2312 133.695 85.8212 133.805 85.4612 134.025C85.1012 134.235 84.8162 134.53 84.6062 134.91C84.3962 135.28 84.2912 135.705 84.2912 136.185C84.2912 136.655 84.3912 137.08 84.5912 137.46C84.8012 137.83 85.0862 138.125 85.4462 138.345C85.8162 138.555 86.2312 138.66 86.6912 138.66Z" fill="#CBD5E1"/>
<path d="M121.275 144.18C120.695 144.18 120.16 144.08 119.67 143.88C119.18 143.68 118.75 143.395 118.38 143.025C118.02 142.655 117.745 142.215 117.555 141.705L118.515 141.255C118.745 141.835 119.105 142.295 119.595 142.635C120.085 142.965 120.645 143.13 121.275 143.13C121.775 143.13 122.22 143.035 122.61 142.845C123 142.645 123.305 142.36 123.525 141.99C123.745 141.62 123.855 141.17 123.855 140.64C123.855 140.11 123.74 139.66 123.51 139.29C123.29 138.92 122.985 138.64 122.595 138.45C122.205 138.26 121.76 138.165 121.26 138.165C121.13 138.165 120.985 138.17 120.825 138.18C120.675 138.19 120.55 138.205 120.45 138.225L120.21 137.7L123.225 133.875H118.08V132.825H124.575V133.875L121.755 137.43L121.605 137.235C122.275 137.255 122.87 137.415 123.39 137.715C123.91 138.005 124.315 138.4 124.605 138.9C124.905 139.4 125.055 139.98 125.055 140.64C125.055 141.3 124.895 141.9 124.575 142.44C124.255 142.97 123.81 143.395 123.24 143.715C122.67 144.025 122.015 144.18 121.275 144.18ZM131.511 144.18C130.631 144.18 129.856 143.94 129.186 143.46C128.526 142.97 128.011 142.295 127.641 141.435C127.271 140.565 127.086 139.555 127.086 138.405C127.086 137.255 127.271 136.25 127.641 135.39C128.011 134.52 128.526 133.845 129.186 133.365C129.846 132.885 130.616 132.645 131.496 132.645C132.376 132.645 133.146 132.885 133.806 133.365C134.466 133.845 134.981 134.52 135.351 135.39C135.721 136.25 135.906 137.255 135.906 138.405C135.906 139.555 135.721 140.565 135.351 141.435C134.991 142.305 134.481 142.98 133.821 143.46C133.161 143.94 132.391 144.18 131.511 144.18ZM131.511 143.055C132.151 143.055 132.711 142.86 133.191 142.47C133.671 142.08 134.046 141.54 134.316 140.85C134.586 140.15 134.721 139.335 134.721 138.405C134.721 137.475 134.586 136.665 134.316 135.975C134.046 135.275 133.671 134.735 133.191 134.355C132.711 133.965 132.146 133.77 131.496 133.77C130.856 133.77 130.296 133.965 129.816 134.355C129.336 134.735 128.961 135.275 128.691 135.975C128.421 136.665 128.286 137.475 128.286 138.405C128.286 139.325 128.421 140.135 128.691 140.835C128.961 141.535 129.336 142.08 129.816 142.47C130.306 142.86 130.871 143.055 131.511 143.055Z" fill="#CBD5E1"/>
<path d="M168.699 144.18C168.119 144.18 167.584 144.08 167.094 143.88C166.604 143.68 166.174 143.395 165.804 143.025C165.444 142.655 165.169 142.215 164.979 141.705L165.939 141.255C166.169 141.835 166.529 142.295 167.019 142.635C167.509 142.965 168.069 143.13 168.699 143.13C169.199 143.13 169.644 143.035 170.034 142.845C170.424 142.645 170.729 142.36 170.949 141.99C171.169 141.62 171.279 141.17 171.279 140.64C171.279 140.11 171.164 139.66 170.934 139.29C170.714 138.92 170.409 138.64 170.019 138.45C169.629 138.26 169.184 138.165 168.684 138.165C168.554 138.165 168.409 138.17 168.249 138.18C168.099 138.19 167.974 138.205 167.874 138.225L167.634 137.7L170.649 133.875H165.504V132.825H171.999V133.875L169.179 137.43L169.029 137.235C169.699 137.255 170.294 137.415 170.814 137.715C171.334 138.005 171.739 138.4 172.029 138.9C172.329 139.4 172.479 139.98 172.479 140.64C172.479 141.3 172.319 141.9 171.999 142.44C171.679 142.97 171.234 143.395 170.664 143.715C170.094 144.025 169.439 144.18 168.699 144.18ZM176.145 144V133.875H174.045V132.825H177.345V144H176.145Z" fill="#CBD5E1"/>
<path d="M216.289 144V133.875H214.189V132.825H217.489V144H216.289Z" fill="#151515"/>
<path d="M257.444 144V143.25L260.564 139.815C261.174 139.145 261.669 138.59 262.049 138.15C262.439 137.71 262.729 137.31 262.919 136.95C263.109 136.59 263.204 136.2 263.204 135.78C263.204 135.11 263.009 134.595 262.619 134.235C262.229 133.875 261.709 133.695 261.059 133.695C260.389 133.695 259.824 133.885 259.364 134.265C258.914 134.645 258.609 135.175 258.449 135.855L257.354 135.615C257.484 135.005 257.719 134.48 258.059 134.04C258.399 133.6 258.824 133.26 259.334 133.02C259.844 132.77 260.414 132.645 261.044 132.645C261.714 132.645 262.299 132.78 262.799 133.05C263.299 133.32 263.689 133.69 263.969 134.16C264.259 134.63 264.404 135.17 264.404 135.78C264.404 136.2 264.314 136.605 264.134 136.995C263.964 137.385 263.704 137.805 263.354 138.255C263.004 138.705 262.554 139.23 262.004 139.83L259.169 142.95H264.704V144H257.444Z" fill="#151515"/>
<path d="M305.625 144.18C305.045 144.18 304.51 144.08 304.02 143.88C303.53 143.68 303.1 143.395 302.73 143.025C302.37 142.655 302.095 142.215 301.905 141.705L302.865 141.255C303.095 141.835 303.455 142.295 303.945 142.635C304.435 142.965 304.995 143.13 305.625 143.13C306.125 143.13 306.57 143.035 306.96 142.845C307.35 142.645 307.655 142.36 307.875 141.99C308.095 141.62 308.205 141.17 308.205 140.64C308.205 140.11 308.09 139.66 307.86 139.29C307.64 138.92 307.335 138.64 306.945 138.45C306.555 138.26 306.11 138.165 305.61 138.165C305.48 138.165 305.335 138.17 305.175 138.18C305.025 138.19 304.9 138.205 304.8 138.225L304.56 137.7L307.575 133.875H302.43V132.825H308.925V133.875L306.105 137.43L305.955 137.235C306.625 137.255 307.22 137.415 307.74 137.715C308.26 138.005 308.665 138.4 308.955 138.9C309.255 139.4 309.405 139.98 309.405 140.64C309.405 141.3 309.245 141.9 308.925 142.44C308.605 142.97 308.16 143.395 307.59 143.715C307.02 144.025 306.365 144.18 305.625 144.18Z" fill="#151515"/>
<path d="M39.1509 194V191.36H33.4659V190.385L39.1509 182.825H40.2009V190.385H41.5659V191.36H40.2009V194H39.1509ZM34.3809 190.82L34.2459 190.385H39.1509V183.86L39.5259 183.965L34.3809 190.82Z" fill="#151515"/>
<path d="M82.1227 194.18C81.5427 194.18 81.0027 194.08 80.5027 193.88C80.0127 193.68 79.5827 193.395 79.2127 193.025C78.8427 192.655 78.5627 192.215 78.3727 191.705L79.2877 191.255C79.5177 191.835 79.8927 192.295 80.4127 192.635C80.9427 192.965 81.5127 193.13 82.1227 193.13C82.6127 193.13 83.0477 193.015 83.4277 192.785C83.8177 192.555 84.1227 192.245 84.3427 191.855C84.5627 191.455 84.6727 191.01 84.6727 190.52C84.6727 190.01 84.5577 189.56 84.3277 189.17C84.1077 188.78 83.8077 188.475 83.4277 188.255C83.0477 188.025 82.6177 187.91 82.1377 187.91C81.6477 187.91 81.1927 188.025 80.7727 188.255C80.3627 188.475 80.0627 188.745 79.8727 189.065L78.9277 188.885L79.7677 182.825H85.4227V183.875H80.2027L80.6677 183.47L79.9927 188.24L79.5277 188.03C79.8777 187.6 80.2877 187.295 80.7577 187.115C81.2277 186.925 81.7077 186.83 82.1977 186.83C82.9177 186.83 83.5527 187 84.1027 187.34C84.6527 187.67 85.0827 188.115 85.3927 188.675C85.7127 189.225 85.8727 189.84 85.8727 190.52C85.8727 191.21 85.7077 191.835 85.3777 192.395C85.0577 192.945 84.6127 193.38 84.0427 193.7C83.4827 194.02 82.8427 194.18 82.1227 194.18Z" fill="#151515"/>
<path d="M126.953 194.18C126.253 194.18 125.633 194.025 125.093 193.715C124.553 193.395 124.128 192.96 123.818 192.41C123.508 191.85 123.353 191.21 123.353 190.49C123.353 190.09 123.398 189.695 123.488 189.305C123.588 188.915 123.733 188.53 123.923 188.15C124.123 187.77 124.363 187.39 124.643 187.01L127.793 182.825H129.233L125.348 187.91L125.123 188.045C125.273 187.795 125.448 187.605 125.648 187.475C125.848 187.335 126.068 187.235 126.308 187.175C126.558 187.115 126.823 187.085 127.103 187.085C127.753 187.085 128.338 187.24 128.858 187.55C129.378 187.85 129.788 188.265 130.088 188.795C130.398 189.325 130.553 189.94 130.553 190.64C130.553 191.31 130.393 191.915 130.073 192.455C129.763 192.985 129.338 193.405 128.798 193.715C128.258 194.025 127.643 194.18 126.953 194.18ZM126.953 193.13C127.413 193.13 127.823 193.025 128.183 192.815C128.543 192.595 128.828 192.295 129.038 191.915C129.248 191.535 129.353 191.11 129.353 190.64C129.353 190.16 129.248 189.735 129.038 189.365C128.838 188.995 128.558 188.705 128.198 188.495C127.838 188.275 127.423 188.165 126.953 188.165C126.493 188.165 126.078 188.275 125.708 188.495C125.348 188.705 125.063 188.995 124.853 189.365C124.653 189.735 124.553 190.16 124.553 190.64C124.553 191.11 124.658 191.535 124.868 191.915C125.078 192.295 125.363 192.595 125.723 192.815C126.083 193.025 126.493 193.13 126.953 193.13Z" fill="#151515"/>
<path d="M168.756 194L173.796 183.875H168.216V182.825H175.041V183.875L170.016 194H168.756Z" fill="#151515"/>
<path d="M216.358 194.18C215.638 194.18 214.993 194.035 214.423 193.745C213.863 193.445 213.418 193.04 213.088 192.53C212.768 192.01 212.608 191.425 212.608 190.775C212.608 190.065 212.808 189.43 213.208 188.87C213.618 188.31 214.168 187.92 214.858 187.7V188.015C214.328 187.785 213.918 187.445 213.628 186.995C213.338 186.535 213.193 186.045 213.193 185.525C213.193 184.975 213.333 184.485 213.613 184.055C213.893 183.625 214.268 183.285 214.738 183.035C215.218 182.775 215.758 182.645 216.358 182.645C216.968 182.645 217.508 182.77 217.978 183.02C218.448 183.26 218.818 183.6 219.088 184.04C219.368 184.47 219.508 184.965 219.508 185.525C219.508 186.085 219.358 186.585 219.058 187.025C218.758 187.455 218.363 187.785 217.873 188.015L217.858 187.7C218.548 187.92 219.093 188.31 219.493 188.87C219.903 189.43 220.108 190.065 220.108 190.775C220.108 191.425 219.943 192.01 219.613 192.53C219.293 193.04 218.848 193.445 218.278 193.745C217.718 194.035 217.078 194.18 216.358 194.18ZM216.358 193.13C216.868 193.13 217.313 193.035 217.693 192.845C218.073 192.645 218.368 192.37 218.578 192.02C218.798 191.66 218.908 191.245 218.908 190.775C218.908 190.305 218.798 189.895 218.578 189.545C218.368 189.185 218.073 188.91 217.693 188.72C217.313 188.52 216.868 188.42 216.358 188.42C215.848 188.42 215.398 188.52 215.008 188.72C214.628 188.91 214.333 189.185 214.123 189.545C213.913 189.895 213.808 190.305 213.808 190.775C213.808 191.245 213.913 191.66 214.123 192.02C214.333 192.37 214.628 192.645 215.008 192.845C215.398 193.035 215.848 193.13 216.358 193.13ZM216.358 187.37C216.728 187.37 217.058 187.295 217.348 187.145C217.638 186.985 217.868 186.77 218.038 186.5C218.218 186.22 218.308 185.895 218.308 185.525C218.308 185.155 218.218 184.835 218.038 184.565C217.868 184.295 217.638 184.085 217.348 183.935C217.058 183.775 216.728 183.695 216.358 183.695C215.988 183.695 215.653 183.775 215.353 183.935C215.063 184.085 214.828 184.295 214.648 184.565C214.478 184.835 214.393 185.155 214.393 185.525C214.393 185.895 214.478 186.22 214.648 186.5C214.828 186.77 215.063 186.985 215.353 187.145C215.653 187.295 215.988 187.37 216.358 187.37Z" fill="#151515"/>
<path d="M258.771 194L262.656 188.915L262.881 188.78C262.731 189.02 262.556 189.21 262.356 189.35C262.156 189.49 261.936 189.59 261.696 189.65C261.456 189.71 261.191 189.74 260.901 189.74C260.251 189.74 259.666 189.59 259.146 189.29C258.626 188.98 258.211 188.56 257.901 188.03C257.601 187.49 257.451 186.875 257.451 186.185C257.451 185.505 257.606 184.9 257.916 184.37C258.236 183.84 258.666 183.42 259.206 183.11C259.756 182.8 260.371 182.645 261.051 182.645C261.751 182.645 262.371 182.805 262.911 183.125C263.451 183.435 263.876 183.87 264.186 184.43C264.496 184.98 264.651 185.615 264.651 186.335C264.651 186.735 264.601 187.13 264.501 187.52C264.411 187.91 264.271 188.295 264.081 188.675C263.891 189.055 263.651 189.435 263.361 189.815L260.211 194H258.771ZM261.051 188.66C261.521 188.66 261.936 188.555 262.296 188.345C262.656 188.125 262.936 187.83 263.136 187.46C263.346 187.08 263.451 186.655 263.451 186.185C263.451 185.705 263.346 185.28 263.136 184.91C262.926 184.53 262.641 184.235 262.281 184.025C261.921 183.805 261.511 183.695 261.051 183.695C260.591 183.695 260.181 183.805 259.821 184.025C259.461 184.235 259.176 184.53 258.966 184.91C258.756 185.28 258.651 185.705 258.651 186.185C258.651 186.655 258.751 187.08 258.951 187.46C259.161 187.83 259.446 188.125 259.806 188.345C260.176 188.555 260.591 188.66 261.051 188.66Z" fill="#151515"/>
<path d="M300.224 194V183.875H298.124V182.825H301.424V194H300.224ZM308.581 194.18C307.701 194.18 306.926 193.94 306.256 193.46C305.596 192.97 305.081 192.295 304.711 191.435C304.341 190.565 304.156 189.555 304.156 188.405C304.156 187.255 304.341 186.25 304.711 185.39C305.081 184.52 305.596 183.845 306.256 183.365C306.916 182.885 307.686 182.645 308.566 182.645C309.446 182.645 310.216 182.885 310.876 183.365C311.536 183.845 312.051 184.52 312.421 185.39C312.791 186.25 312.976 187.255 312.976 188.405C312.976 189.555 312.791 190.565 312.421 191.435C312.061 192.305 311.551 192.98 310.891 193.46C310.231 193.94 309.461 194.18 308.581 194.18ZM308.581 193.055C309.221 193.055 309.781 192.86 310.261 192.47C310.741 192.08 311.116 191.54 311.386 190.85C311.656 190.15 311.791 189.335 311.791 188.405C311.791 187.475 311.656 186.665 311.386 185.975C311.116 185.275 310.741 184.735 310.261 184.355C309.781 183.965 309.216 183.77 308.566 183.77C307.926 183.77 307.366 183.965 306.886 184.355C306.406 184.735 306.031 185.275 305.761 185.975C305.491 186.665 305.356 187.475 305.356 188.405C305.356 189.325 305.491 190.135 305.761 190.835C306.031 191.535 306.406 192.08 306.886 192.47C307.376 192.86 307.941 193.055 308.581 193.055Z" fill="#151515"/>
<path d="M34.6486 244V233.875H32.5486V232.825H35.8486V244H34.6486ZM40.215 244V233.875H38.115V232.825H41.415V244H40.215Z" fill="#151515"/>
<path d="M77.649 244V233.875H75.549V232.825H78.849V244H77.649ZM81.3704 244V243.25L84.4904 239.815C85.1004 239.145 85.5954 238.59 85.9754 238.15C86.3654 237.71 86.6554 237.31 86.8454 236.95C87.0354 236.59 87.1304 236.2 87.1304 235.78C87.1304 235.11 86.9354 234.595 86.5454 234.235C86.1554 233.875 85.6354 233.695 84.9854 233.695C84.3154 233.695 83.7504 233.885 83.2904 234.265C82.8404 234.645 82.5354 235.175 82.3754 235.855L81.2804 235.615C81.4104 235.005 81.6454 234.48 81.9854 234.04C82.3254 233.6 82.7504 233.26 83.2604 233.02C83.7704 232.77 84.3404 232.645 84.9704 232.645C85.6404 232.645 86.2254 232.78 86.7254 233.05C87.2254 233.32 87.6154 233.69 87.8954 234.16C88.1854 234.63 88.3304 235.17 88.3304 235.78C88.3304 236.2 88.2404 236.605 88.0604 236.995C87.8904 237.385 87.6304 237.805 87.2804 238.255C86.9304 238.705 86.4804 239.23 85.9304 239.83L83.0954 242.95H88.6304V244H81.3704Z" fill="#151515"/>
<path d="M122.29 244V233.875H120.19V232.825H123.49V244H122.29ZM129.551 244.18C128.971 244.18 128.436 244.08 127.946 243.88C127.456 243.68 127.026 243.395 126.656 243.025C126.296 242.655 126.021 242.215 125.831 241.705L126.791 241.255C127.021 241.835 127.381 242.295 127.871 242.635C128.361 242.965 128.921 243.13 129.551 243.13C130.051 243.13 130.496 243.035 130.886 242.845C131.276 242.645 131.581 242.36 131.801 241.99C132.021 241.62 132.131 241.17 132.131 240.64C132.131 240.11 132.016 239.66 131.786 239.29C131.566 238.92 131.261 238.64 130.871 238.45C130.481 238.26 130.036 238.165 129.536 238.165C129.406 238.165 129.261 238.17 129.101 238.18C128.951 238.19 128.826 238.205 128.726 238.225L128.486 237.7L131.501 233.875H126.356V232.825H132.851V233.875L130.031 237.43L129.881 237.235C130.551 237.255 131.146 237.415 131.666 237.715C132.186 238.005 132.591 238.4 132.881 238.9C133.181 239.4 133.331 239.98 133.331 240.64C133.331 241.3 133.171 241.9 132.851 242.44C132.531 242.97 132.086 243.395 131.516 243.715C130.946 244.025 130.291 244.18 129.551 244.18Z" fill="#151515"/>
<path d="M166.85 244V233.875H164.75V232.825H168.05V244H166.85ZM176.077 244V241.36H170.392V240.385L176.077 232.825H177.127V240.385H178.492V241.36H177.127V244H176.077ZM171.307 240.82L171.172 240.385H176.077V233.86L176.452 233.965L171.307 240.82Z" fill="#151515"/>
<path d="M211.667 244V233.875H209.567V232.825H212.867V244H211.667ZM219.049 244.18C218.469 244.18 217.929 244.08 217.429 243.88C216.939 243.68 216.509 243.395 216.139 243.025C215.769 242.655 215.489 242.215 215.299 241.705L216.214 241.255C216.444 241.835 216.819 242.295 217.339 242.635C217.869 242.965 218.439 243.13 219.049 243.13C219.539 243.13 219.974 243.015 220.354 242.785C220.744 242.555 221.049 242.245 221.269 241.855C221.489 241.455 221.599 241.01 221.599 240.52C221.599 240.01 221.484 239.56 221.254 239.17C221.034 238.78 220.734 238.475 220.354 238.255C219.974 238.025 219.544 237.91 219.064 237.91C218.574 237.91 218.119 238.025 217.699 238.255C217.289 238.475 216.989 238.745 216.799 239.065L215.854 238.885L216.694 232.825H222.349V233.875H217.129L217.594 233.47L216.919 238.24L216.454 238.03C216.804 237.6 217.214 237.295 217.684 237.115C218.154 236.925 218.634 236.83 219.124 236.83C219.844 236.83 220.479 237 221.029 237.34C221.579 237.67 222.009 238.115 222.319 238.675C222.639 239.225 222.799 239.84 222.799 240.52C222.799 241.21 222.634 241.835 222.304 242.395C221.984 242.945 221.539 243.38 220.969 243.7C220.409 244.02 219.769 244.18 219.049 244.18Z" fill="#151515"/>
<path d="M256.601 244V233.875H254.501V232.825H257.801V244H256.601ZM263.806 244.18C263.106 244.18 262.486 244.025 261.946 243.715C261.406 243.395 260.981 242.96 260.671 242.41C260.361 241.85 260.206 241.21 260.206 240.49C260.206 240.09 260.251 239.695 260.341 239.305C260.441 238.915 260.586 238.53 260.776 238.15C260.976 237.77 261.216 237.39 261.496 237.01L264.646 232.825H266.086L262.201 237.91L261.976 238.045C262.126 237.795 262.301 237.605 262.501 237.475C262.701 237.335 262.921 237.235 263.161 237.175C263.411 237.115 263.676 237.085 263.956 237.085C264.606 237.085 265.191 237.24 265.711 237.55C266.231 237.85 266.641 238.265 266.941 238.795C267.251 239.325 267.406 239.94 267.406 240.64C267.406 241.31 267.246 241.915 266.926 242.455C266.616 242.985 266.191 243.405 265.651 243.715C265.111 244.025 264.496 244.18 263.806 244.18ZM263.806 243.13C264.266 243.13 264.676 243.025 265.036 242.815C265.396 242.595 265.681 242.295 265.891 241.915C266.101 241.535 266.206 241.11 266.206 240.64C266.206 240.16 266.101 239.735 265.891 239.365C265.691 238.995 265.411 238.705 265.051 238.495C264.691 238.275 264.276 238.165 263.806 238.165C263.346 238.165 262.931 238.275 262.561 238.495C262.201 238.705 261.916 238.995 261.706 239.365C261.506 239.735 261.406 240.16 261.406 240.64C261.406 241.11 261.511 241.535 261.721 241.915C261.931 242.295 262.216 242.595 262.576 242.815C262.936 243.025 263.346 243.13 263.806 243.13Z" fill="#151515"/>
<path d="M301.645 244V233.875H299.545V232.825H302.845V244H301.645ZM305.682 244L310.722 233.875H305.142V232.825H311.967V233.875L306.942 244H305.682Z" fill="#151515"/>
<path d="M32.7223 294V283.875H30.6223V282.825H33.9223V294H32.7223ZM40.2837 294.18C39.5637 294.18 38.9187 294.035 38.3487 293.745C37.7887 293.445 37.3437 293.04 37.0137 292.53C36.6937 292.01 36.5337 291.425 36.5337 290.775C36.5337 290.065 36.7337 289.43 37.1337 288.87C37.5437 288.31 38.0937 287.92 38.7837 287.7V288.015C38.2537 287.785 37.8437 287.445 37.5537 286.995C37.2637 286.535 37.1187 286.045 37.1187 285.525C37.1187 284.975 37.2587 284.485 37.5387 284.055C37.8187 283.625 38.1937 283.285 38.6637 283.035C39.1437 282.775 39.6837 282.645 40.2837 282.645C40.8937 282.645 41.4337 282.77 41.9037 283.02C42.3737 283.26 42.7437 283.6 43.0137 284.04C43.2937 284.47 43.4337 284.965 43.4337 285.525C43.4337 286.085 43.2837 286.585 42.9837 287.025C42.6837 287.455 42.2887 287.785 41.7987 288.015L41.7837 287.7C42.4737 287.92 43.0187 288.31 43.4187 288.87C43.8287 289.43 44.0337 290.065 44.0337 290.775C44.0337 291.425 43.8687 292.01 43.5387 292.53C43.2187 293.04 42.7737 293.445 42.2037 293.745C41.6437 294.035 41.0037 294.18 40.2837 294.18ZM40.2837 293.13C40.7937 293.13 41.2387 293.035 41.6187 292.845C41.9987 292.645 42.2937 292.37 42.5037 292.02C42.7237 291.66 42.8337 291.245 42.8337 290.775C42.8337 290.305 42.7237 289.895 42.5037 289.545C42.2937 289.185 41.9987 288.91 41.6187 288.72C41.2387 288.52 40.7937 288.42 40.2837 288.42C39.7737 288.42 39.3237 288.52 38.9337 288.72C38.5537 288.91 38.2587 289.185 38.0487 289.545C37.8387 289.895 37.7337 290.305 37.7337 290.775C37.7337 291.245 37.8387 291.66 38.0487 292.02C38.2587 292.37 38.5537 292.645 38.9337 292.845C39.3237 293.035 39.7737 293.13 40.2837 293.13ZM40.2837 287.37C40.6537 287.37 40.9837 287.295 41.2737 287.145C41.5637 286.985 41.7937 286.77 41.9637 286.5C42.1437 286.22 42.2337 285.895 42.2337 285.525C42.2337 285.155 42.1437 284.835 41.9637 284.565C41.7937 284.295 41.5637 284.085 41.2737 283.935C40.9837 283.775 40.6537 283.695 40.2837 283.695C39.9137 283.695 39.5787 283.775 39.2787 283.935C38.9887 284.085 38.7537 284.295 38.5737 284.565C38.4037 284.835 38.3187 285.155 38.3187 285.525C38.3187 285.895 38.4037 286.22 38.5737 286.5C38.7537 286.77 38.9887 286.985 39.2787 287.145C39.5787 287.295 39.9137 287.37 40.2837 287.37Z" fill="#151515"/>
<path d="M77.6709 294V283.875H75.5709V282.825H78.8709V294H77.6709ZM82.6973 294L86.5823 288.915L86.8073 288.78C86.6573 289.02 86.4823 289.21 86.2823 289.35C86.0823 289.49 85.8623 289.59 85.6223 289.65C85.3823 289.71 85.1173 289.74 84.8273 289.74C84.1773 289.74 83.5923 289.59 83.0723 289.29C82.5523 288.98 82.1373 288.56 81.8273 288.03C81.5273 287.49 81.3773 286.875 81.3773 286.185C81.3773 285.505 81.5323 284.9 81.8423 284.37C82.1623 283.84 82.5923 283.42 83.1323 283.11C83.6823 282.8 84.2973 282.645 84.9773 282.645C85.6773 282.645 86.2973 282.805 86.8373 283.125C87.3773 283.435 87.8023 283.87 88.1123 284.43C88.4223 284.98 88.5773 285.615 88.5773 286.335C88.5773 286.735 88.5273 287.13 88.4273 287.52C88.3373 287.91 88.1973 288.295 88.0073 288.675C87.8173 289.055 87.5773 289.435 87.2873 289.815L84.1373 294H82.6973ZM84.9773 288.66C85.4473 288.66 85.8623 288.555 86.2223 288.345C86.5823 288.125 86.8623 287.83 87.0623 287.46C87.2723 287.08 87.3773 286.655 87.3773 286.185C87.3773 285.705 87.2723 285.28 87.0623 284.91C86.8523 284.53 86.5673 284.235 86.2073 284.025C85.8473 283.805 85.4373 283.695 84.9773 283.695C84.5173 283.695 84.1073 283.805 83.7473 284.025C83.3873 284.235 83.1023 284.53 82.8923 284.91C82.6823 285.28 82.5773 285.705 82.5773 286.185C82.5773 286.655 82.6773 287.08 82.8773 287.46C83.0873 287.83 83.3723 288.125 83.7323 288.345C84.1023 288.555 84.5173 288.66 84.9773 288.66Z" fill="#151515"/>
<path d="M117.808 294V293.25L120.928 289.815C121.538 289.145 122.033 288.59 122.413 288.15C122.803 287.71 123.093 287.31 123.283 286.95C123.473 286.59 123.568 286.2 123.568 285.78C123.568 285.11 123.373 284.595 122.983 284.235C122.593 283.875 122.073 283.695 121.423 283.695C120.753 283.695 120.188 283.885 119.728 284.265C119.278 284.645 118.973 285.175 118.813 285.855L117.718 285.615C117.848 285.005 118.083 284.48 118.423 284.04C118.763 283.6 119.188 283.26 119.698 283.02C120.208 282.77 120.778 282.645 121.408 282.645C122.078 282.645 122.663 282.78 123.163 283.05C123.663 283.32 124.053 283.69 124.333 284.16C124.623 284.63 124.768 285.17 124.768 285.78C124.768 286.2 124.678 286.605 124.498 286.995C124.328 287.385 124.068 287.805 123.718 288.255C123.368 288.705 122.918 289.23 122.368 289.83L119.533 292.95H125.068V294H117.808ZM131.437 294.18C130.557 294.18 129.782 293.94 129.112 293.46C128.452 292.97 127.937 292.295 127.567 291.435C127.197 290.565 127.012 289.555 127.012 288.405C127.012 287.255 127.197 286.25 127.567 285.39C127.937 284.52 128.452 283.845 129.112 283.365C129.772 282.885 130.542 282.645 131.422 282.645C132.302 282.645 133.072 282.885 133.732 283.365C134.392 283.845 134.907 284.52 135.277 285.39C135.647 286.25 135.832 287.255 135.832 288.405C135.832 289.555 135.647 290.565 135.277 291.435C134.917 292.305 134.407 292.98 133.747 293.46C133.087 293.94 132.317 294.18 131.437 294.18ZM131.437 293.055C132.077 293.055 132.637 292.86 133.117 292.47C133.597 292.08 133.972 291.54 134.242 290.85C134.512 290.15 134.647 289.335 134.647 288.405C134.647 287.475 134.512 286.665 134.242 285.975C133.972 285.275 133.597 284.735 133.117 284.355C132.637 283.965 132.072 283.77 131.422 283.77C130.782 283.77 130.222 283.965 129.742 284.355C129.262 284.735 128.887 285.275 128.617 285.975C128.347 286.665 128.212 287.475 128.212 288.405C128.212 289.325 128.347 290.135 128.617 290.835C128.887 291.535 129.262 292.08 129.742 292.47C130.232 292.86 130.797 293.055 131.437 293.055Z" fill="#151515"/>
<path d="M165.233 294V293.25L168.353 289.815C168.963 289.145 169.458 288.59 169.838 288.15C170.228 287.71 170.518 287.31 170.708 286.95C170.898 286.59 170.993 286.2 170.993 285.78C170.993 285.11 170.798 284.595 170.408 284.235C170.018 283.875 169.498 283.695 168.848 283.695C168.178 283.695 167.613 283.885 167.153 284.265C166.703 284.645 166.398 285.175 166.238 285.855L165.143 285.615C165.273 285.005 165.508 284.48 165.848 284.04C166.188 283.6 166.613 283.26 167.123 283.02C167.633 282.77 168.203 282.645 168.833 282.645C169.503 282.645 170.088 282.78 170.588 283.05C171.088 283.32 171.478 283.69 171.758 284.16C172.048 284.63 172.193 285.17 172.193 285.78C172.193 286.2 172.103 286.605 171.923 286.995C171.753 287.385 171.493 287.805 171.143 288.255C170.793 288.705 170.343 289.23 169.793 289.83L166.958 292.95H172.493V294H165.233ZM176.072 294V283.875H173.972V282.825H177.272V294H176.072Z" fill="#151515"/>
<path d="M208.233 294V293.25L211.353 289.815C211.963 289.145 212.458 288.59 212.838 288.15C213.228 287.71 213.518 287.31 213.708 286.95C213.898 286.59 213.993 286.2 213.993 285.78C213.993 285.11 213.798 284.595 213.408 284.235C213.018 283.875 212.498 283.695 211.848 283.695C211.178 283.695 210.613 283.885 210.153 284.265C209.703 284.645 209.398 285.175 209.238 285.855L208.143 285.615C208.273 285.005 208.508 284.48 208.848 284.04C209.188 283.6 209.613 283.26 210.123 283.02C210.633 282.77 211.203 282.645 211.833 282.645C212.503 282.645 213.088 282.78 213.588 283.05C214.088 283.32 214.478 283.69 214.758 284.16C215.048 284.63 215.193 285.17 215.193 285.78C215.193 286.2 215.103 286.605 214.923 286.995C214.753 287.385 214.493 287.805 214.143 288.255C213.793 288.705 213.343 289.23 212.793 289.83L209.958 292.95H215.493V294H208.233ZM217.227 294V293.25L220.347 289.815C220.957 289.145 221.452 288.59 221.832 288.15C222.222 287.71 222.512 287.31 222.702 286.95C222.892 286.59 222.987 286.2 222.987 285.78C222.987 285.11 222.792 284.595 222.402 284.235C222.012 283.875 221.492 283.695 220.842 283.695C220.172 283.695 219.607 283.885 219.147 284.265C218.697 284.645 218.392 285.175 218.232 285.855L217.137 285.615C217.267 285.005 217.502 284.48 217.842 284.04C218.182 283.6 218.607 283.26 219.117 283.02C219.627 282.77 220.197 282.645 220.827 282.645C221.497 282.645 222.082 282.78 222.582 283.05C223.082 283.32 223.472 283.69 223.752 284.16C224.042 284.63 224.187 285.17 224.187 285.78C224.187 286.2 224.097 286.605 223.917 286.995C223.747 287.385 223.487 287.805 223.137 288.255C222.787 288.705 222.337 289.23 221.787 289.83L218.952 292.95H224.487V294H217.227Z" fill="#151515"/>
<path d="M252.874 294V293.25L255.994 289.815C256.604 289.145 257.099 288.59 257.479 288.15C257.869 287.71 258.159 287.31 258.349 286.95C258.539 286.59 258.634 286.2 258.634 285.78C258.634 285.11 258.439 284.595 258.049 284.235C257.659 283.875 257.139 283.695 256.489 283.695C255.819 283.695 255.254 283.885 254.794 284.265C254.344 284.645 254.039 285.175 253.879 285.855L252.784 285.615C252.914 285.005 253.149 284.48 253.489 284.04C253.829 283.6 254.254 283.26 254.764 283.02C255.274 282.77 255.844 282.645 256.474 282.645C257.144 282.645 257.729 282.78 258.229 283.05C258.729 283.32 259.119 283.69 259.399 284.16C259.689 284.63 259.834 285.17 259.834 285.78C259.834 286.2 259.744 286.605 259.564 286.995C259.394 287.385 259.134 287.805 258.784 288.255C258.434 288.705 257.984 289.23 257.434 289.83L254.599 292.95H260.134V294H252.874ZM265.408 294.18C264.828 294.18 264.293 294.08 263.803 293.88C263.313 293.68 262.883 293.395 262.513 293.025C262.153 292.655 261.878 292.215 261.688 291.705L262.648 291.255C262.878 291.835 263.238 292.295 263.728 292.635C264.218 292.965 264.778 293.13 265.408 293.13C265.908 293.13 266.353 293.035 266.743 292.845C267.133 292.645 267.438 292.36 267.658 291.99C267.878 291.62 267.988 291.17 267.988 290.64C267.988 290.11 267.873 289.66 267.643 289.29C267.423 288.92 267.118 288.64 266.728 288.45C266.338 288.26 265.893 288.165 265.393 288.165C265.263 288.165 265.118 288.17 264.958 288.18C264.808 288.19 264.683 288.205 264.583 288.225L264.343 287.7L267.358 283.875H262.213V282.825H268.708V283.875L265.888 287.43L265.738 287.235C266.408 287.255 267.003 287.415 267.523 287.715C268.043 288.005 268.448 288.4 268.738 288.9C269.038 289.4 269.188 289.98 269.188 290.64C269.188 291.3 269.028 291.9 268.708 292.44C268.388 292.97 267.943 293.395 267.373 293.715C266.803 294.025 266.148 294.18 265.408 294.18Z" fill="#151515"/>
<path d="M297.508 294V293.25L300.628 289.815C301.238 289.145 301.733 288.59 302.113 288.15C302.503 287.71 302.793 287.31 302.983 286.95C303.173 286.59 303.268 286.2 303.268 285.78C303.268 285.11 303.073 284.595 302.683 284.235C302.293 283.875 301.773 283.695 301.123 283.695C300.453 283.695 299.888 283.885 299.428 284.265C298.978 284.645 298.673 285.175 298.513 285.855L297.418 285.615C297.548 285.005 297.783 284.48 298.123 284.04C298.463 283.6 298.888 283.26 299.398 283.02C299.908 282.77 300.478 282.645 301.108 282.645C301.778 282.645 302.363 282.78 302.863 283.05C303.363 283.32 303.753 283.69 304.033 284.16C304.323 284.63 304.468 285.17 304.468 285.78C304.468 286.2 304.378 286.605 304.198 286.995C304.028 287.385 303.768 287.805 303.418 288.255C303.068 288.705 302.618 289.23 302.068 289.83L299.233 292.95H304.768V294H297.508ZM311.86 294V291.36H306.175V290.385L311.86 282.825H312.91V290.385H314.275V291.36H312.91V294H311.86ZM307.09 290.82L306.955 290.385H311.86V283.86L312.235 283.965L307.09 290.82Z" fill="#151515"/>
<path d="M29.2513 344V343.25L32.3713 339.815C32.9813 339.145 33.4763 338.59 33.8563 338.15C34.2463 337.71 34.5363 337.31 34.7263 336.95C34.9163 336.59 35.0113 336.2 35.0113 335.78C35.0113 335.11 34.8163 334.595 34.4263 334.235C34.0363 333.875 33.5163 333.695 32.8663 333.695C32.1963 333.695 31.6313 333.885 31.1713 334.265C30.7213 334.645 30.4163 335.175 30.2563 335.855L29.1613 335.615C29.2913 335.005 29.5263 334.48 29.8663 334.04C30.2063 333.6 30.6313 333.26 31.1413 333.02C31.6513 332.77 32.2213 332.645 32.8513 332.645C33.5213 332.645 34.1063 332.78 34.6063 333.05C35.1063 333.32 35.4963 333.69 35.7763 334.16C36.0663 334.63 36.2113 335.17 36.2113 335.78C36.2113 336.2 36.1213 336.605 35.9413 336.995C35.7713 337.385 35.5113 337.805 35.1613 338.255C34.8113 338.705 34.3613 339.23 33.8113 339.83L30.9763 342.95H36.5113V344H29.2513ZM41.9055 344.18C41.3255 344.18 40.7855 344.08 40.2855 343.88C39.7955 343.68 39.3655 343.395 38.9955 343.025C38.6255 342.655 38.3455 342.215 38.1555 341.705L39.0705 341.255C39.3005 341.835 39.6755 342.295 40.1955 342.635C40.7255 342.965 41.2955 343.13 41.9055 343.13C42.3955 343.13 42.8305 343.015 43.2105 342.785C43.6005 342.555 43.9055 342.245 44.1255 341.855C44.3455 341.455 44.4555 341.01 44.4555 340.52C44.4555 340.01 44.3405 339.56 44.1105 339.17C43.8905 338.78 43.5905 338.475 43.2105 338.255C42.8305 338.025 42.4005 337.91 41.9205 337.91C41.4305 337.91 40.9755 338.025 40.5555 338.255C40.1455 338.475 39.8455 338.745 39.6555 339.065L38.7105 338.885L39.5505 332.825H45.2055V333.875H39.9855L40.4505 333.47L39.7755 338.24L39.3105 338.03C39.6605 337.6 40.0705 337.295 40.5405 337.115C41.0105 336.925 41.4905 336.83 41.9805 336.83C42.7005 336.83 43.3355 337 43.8855 337.34C44.4355 337.67 44.8655 338.115 45.1755 338.675C45.4955 339.225 45.6555 339.84 45.6555 340.52C45.6555 341.21 45.4905 341.835 45.1605 342.395C44.8405 342.945 44.3955 343.38 43.8255 343.7C43.2655 344.02 42.6255 344.18 41.9055 344.18Z" fill="#151515"/>
<path d="M74.1121 344V343.25L77.2321 339.815C77.8421 339.145 78.3371 338.59 78.7171 338.15C79.1071 337.71 79.3971 337.31 79.5871 336.95C79.7771 336.59 79.8721 336.2 79.8721 335.78C79.8721 335.11 79.6771 334.595 79.2871 334.235C78.8971 333.875 78.3771 333.695 77.7271 333.695C77.0571 333.695 76.4921 333.885 76.0321 334.265C75.5821 334.645 75.2771 335.175 75.1171 335.855L74.0221 335.615C74.1521 335.005 74.3871 334.48 74.7271 334.04C75.0671 333.6 75.4921 333.26 76.0021 333.02C76.5121 332.77 77.0821 332.645 77.7121 332.645C78.3821 332.645 78.9671 332.78 79.4671 333.05C79.9671 333.32 80.3571 333.69 80.6371 334.16C80.9271 334.63 81.0721 335.17 81.0721 335.78C81.0721 336.2 80.9821 336.605 80.8021 336.995C80.6321 337.385 80.3721 337.805 80.0221 338.255C79.6721 338.705 79.2221 339.23 78.6721 339.83L75.8371 342.95H81.3721V344H74.1121ZM86.7362 344.18C86.0362 344.18 85.4162 344.025 84.8762 343.715C84.3362 343.395 83.9112 342.96 83.6012 342.41C83.2912 341.85 83.1362 341.21 83.1362 340.49C83.1362 340.09 83.1812 339.695 83.2712 339.305C83.3712 338.915 83.5162 338.53 83.7062 338.15C83.9062 337.77 84.1462 337.39 84.4262 337.01L87.5762 332.825H89.0162L85.1312 337.91L84.9062 338.045C85.0562 337.795 85.2312 337.605 85.4312 337.475C85.6312 337.335 85.8512 337.235 86.0912 337.175C86.3412 337.115 86.6062 337.085 86.8862 337.085C87.5362 337.085 88.1212 337.24 88.6412 337.55C89.1612 337.85 89.5712 338.265 89.8712 338.795C90.1812 339.325 90.3362 339.94 90.3362 340.64C90.3362 341.31 90.1762 341.915 89.8562 342.455C89.5462 342.985 89.1212 343.405 88.5812 343.715C88.0412 344.025 87.4262 344.18 86.7362 344.18ZM86.7362 343.13C87.1962 343.13 87.6062 343.025 87.9662 342.815C88.3262 342.595 88.6112 342.295 88.8212 341.915C89.0312 341.535 89.1362 341.11 89.1362 340.64C89.1362 340.16 89.0312 339.735 88.8212 339.365C88.6212 338.995 88.3412 338.705 87.9812 338.495C87.6212 338.275 87.2062 338.165 86.7362 338.165C86.2762 338.165 85.8612 338.275 85.4912 338.495C85.1312 338.705 84.8462 338.995 84.6362 339.365C84.4362 339.735 84.3362 340.16 84.3362 340.64C84.3362 341.11 84.4412 341.535 84.6512 341.915C84.8612 342.295 85.1462 342.595 85.5062 342.815C85.8662 343.025 86.2762 343.13 86.7362 343.13Z" fill="#151515"/>
<path d="M119.229 344V343.25L122.349 339.815C122.959 339.145 123.454 338.59 123.834 338.15C124.224 337.71 124.514 337.31 124.704 336.95C124.894 336.59 124.989 336.2 124.989 335.78C124.989 335.11 124.794 334.595 124.404 334.235C124.014 333.875 123.494 333.695 122.844 333.695C122.174 333.695 121.609 333.885 121.149 334.265C120.699 334.645 120.394 335.175 120.234 335.855L119.139 335.615C119.269 335.005 119.504 334.48 119.844 334.04C120.184 333.6 120.609 333.26 121.119 333.02C121.629 332.77 122.199 332.645 122.829 332.645C123.499 332.645 124.084 332.78 124.584 333.05C125.084 333.32 125.474 333.69 125.754 334.16C126.044 334.63 126.189 335.17 126.189 335.78C126.189 336.2 126.099 336.605 125.919 336.995C125.749 337.385 125.489 337.805 125.139 338.255C124.789 338.705 124.339 339.23 123.789 339.83L120.954 342.95H126.489V344H119.229ZM128.538 344L133.578 333.875H127.998V332.825H134.823V333.875L129.798 344H128.538Z" fill="#151515"/>
<path d="M163.306 344V343.25L166.426 339.815C167.036 339.145 167.531 338.59 167.911 338.15C168.301 337.71 168.591 337.31 168.781 336.95C168.971 336.59 169.066 336.2 169.066 335.78C169.066 335.11 168.871 334.595 168.481 334.235C168.091 333.875 167.571 333.695 166.921 333.695C166.251 333.695 165.686 333.885 165.226 334.265C164.776 334.645 164.471 335.175 164.311 335.855L163.216 335.615C163.346 335.005 163.581 334.48 163.921 334.04C164.261 333.6 164.686 333.26 165.196 333.02C165.706 332.77 166.276 332.645 166.906 332.645C167.576 332.645 168.161 332.78 168.661 333.05C169.161 333.32 169.551 333.69 169.831 334.16C170.121 334.63 170.266 335.17 170.266 335.78C170.266 336.2 170.176 336.605 169.996 336.995C169.826 337.385 169.566 337.805 169.216 338.255C168.866 338.705 168.416 339.23 167.866 339.83L165.031 342.95H170.566V344H163.306ZM176.14 344.18C175.42 344.18 174.775 344.035 174.205 343.745C173.645 343.445 173.2 343.04 172.87 342.53C172.55 342.01 172.39 341.425 172.39 340.775C172.39 340.065 172.59 339.43 172.99 338.87C173.4 338.31 173.95 337.92 174.64 337.7V338.015C174.11 337.785 173.7 337.445 173.41 336.995C173.12 336.535 172.975 336.045 172.975 335.525C172.975 334.975 173.115 334.485 173.395 334.055C173.675 333.625 174.05 333.285 174.52 333.035C175 332.775 175.54 332.645 176.14 332.645C176.75 332.645 177.29 332.77 177.76 333.02C178.23 333.26 178.6 333.6 178.87 334.04C179.15 334.47 179.29 334.965 179.29 335.525C179.29 336.085 179.14 336.585 178.84 337.025C178.54 337.455 178.145 337.785 177.655 338.015L177.64 337.7C178.33 337.92 178.875 338.31 179.275 338.87C179.685 339.43 179.89 340.065 179.89 340.775C179.89 341.425 179.725 342.01 179.395 342.53C179.075 343.04 178.63 343.445 178.06 343.745C177.5 344.035 176.86 344.18 176.14 344.18ZM176.14 343.13C176.65 343.13 177.095 343.035 177.475 342.845C177.855 342.645 178.15 342.37 178.36 342.02C178.58 341.66 178.69 341.245 178.69 340.775C178.69 340.305 178.58 339.895 178.36 339.545C178.15 339.185 177.855 338.91 177.475 338.72C177.095 338.52 176.65 338.42 176.14 338.42C175.63 338.42 175.18 338.52 174.79 338.72C174.41 338.91 174.115 339.185 173.905 339.545C173.695 339.895 173.59 340.305 173.59 340.775C173.59 341.245 173.695 341.66 173.905 342.02C174.115 342.37 174.41 342.645 174.79 342.845C175.18 343.035 175.63 343.13 176.14 343.13ZM176.14 337.37C176.51 337.37 176.84 337.295 177.13 337.145C177.42 336.985 177.65 336.77 177.82 336.5C178 336.22 178.09 335.895 178.09 335.525C178.09 335.155 178 334.835 177.82 334.565C177.65 334.295 177.42 334.085 177.13 333.935C176.84 333.775 176.51 333.695 176.14 333.695C175.77 333.695 175.435 333.775 175.135 333.935C174.845 334.085 174.61 334.295 174.43 334.565C174.26 334.835 174.175 335.155 174.175 335.525C174.175 335.895 174.26 336.22 174.43 336.5C174.61 336.77 174.845 336.985 175.135 337.145C175.435 337.295 175.77 337.37 176.14 337.37Z" fill="#151515"/>
<path d="M208.265 343V342.041L211.866 338.099C212.289 337.638 212.637 337.237 212.91 336.896C213.184 336.551 213.386 336.228 213.517 335.926C213.652 335.621 213.72 335.301 213.72 334.967C213.72 334.584 213.627 334.252 213.443 333.971C213.262 333.691 213.013 333.474 212.697 333.321C212.381 333.169 212.026 333.092 211.632 333.092C211.213 333.092 210.847 333.179 210.534 333.353C210.225 333.524 209.986 333.763 209.815 334.072C209.648 334.381 209.565 334.744 209.565 335.159H208.308C208.308 334.52 208.455 333.959 208.75 333.476C209.045 332.993 209.446 332.616 209.954 332.347C210.465 332.077 211.039 331.942 211.674 331.942C212.314 331.942 212.88 332.077 213.374 332.347C213.867 332.616 214.254 332.98 214.535 333.439C214.815 333.897 214.956 334.406 214.956 334.967C214.956 335.369 214.883 335.761 214.737 336.145C214.595 336.525 214.347 336.949 213.991 337.418C213.64 337.883 213.152 338.451 212.527 339.122L210.076 341.743V341.828H215.147V343H208.265ZM220.82 331.942C221.268 331.945 221.715 332.031 222.163 332.197C222.61 332.364 223.018 332.641 223.388 333.028C223.757 333.412 224.054 333.936 224.277 334.6C224.501 335.264 224.613 336.097 224.613 337.098C224.613 338.067 224.521 338.929 224.336 339.681C224.155 340.431 223.892 341.063 223.548 341.578C223.207 342.093 222.791 342.483 222.301 342.75C221.815 343.016 221.264 343.149 220.65 343.149C220.039 343.149 219.494 343.028 219.015 342.787C218.539 342.542 218.148 342.203 217.843 341.77C217.541 341.333 217.347 340.827 217.262 340.251H218.562C218.679 340.752 218.912 341.166 219.26 341.493C219.611 341.816 220.075 341.977 220.65 341.977C221.491 341.977 222.156 341.61 222.642 340.875C223.132 340.14 223.377 339.101 223.377 337.759H223.292C223.093 338.057 222.857 338.314 222.583 338.531C222.31 338.748 222.006 338.914 221.673 339.032C221.339 339.149 220.984 339.207 220.607 339.207C219.982 339.207 219.409 339.053 218.887 338.744C218.368 338.431 217.953 338.004 217.64 337.46C217.331 336.913 217.177 336.288 217.177 335.585C217.177 334.918 217.326 334.307 217.624 333.753C217.926 333.195 218.349 332.751 218.892 332.421C219.439 332.091 220.082 331.931 220.82 331.942ZM220.82 333.114C220.373 333.114 219.97 333.225 219.611 333.449C219.256 333.669 218.974 333.968 218.764 334.344C218.558 334.717 218.455 335.131 218.455 335.585C218.455 336.04 218.555 336.453 218.754 336.826C218.956 337.196 219.231 337.49 219.579 337.711C219.931 337.927 220.33 338.036 220.778 338.036C221.115 338.036 221.429 337.97 221.721 337.838C222.012 337.703 222.266 337.521 222.482 337.29C222.702 337.055 222.875 336.791 222.999 336.496C223.123 336.198 223.185 335.887 223.185 335.564C223.185 335.138 223.082 334.738 222.876 334.365C222.674 333.993 222.393 333.691 222.035 333.46C221.68 333.229 221.275 333.114 220.82 333.114Z" fill="black"/>
<path d="M256.424 343.149C255.721 343.149 255.094 343.028 254.544 342.787C253.997 342.545 253.562 342.21 253.238 341.78C252.919 341.347 252.745 340.844 252.716 340.273H254.059C254.087 340.624 254.208 340.928 254.421 341.184C254.634 341.436 254.913 341.631 255.257 341.77C255.602 341.908 255.984 341.977 256.403 341.977C256.871 341.977 257.287 341.896 257.649 341.732C258.011 341.569 258.295 341.342 258.501 341.05C258.707 340.759 258.81 340.422 258.81 340.038C258.81 339.637 258.711 339.284 258.512 338.978C258.313 338.669 258.022 338.428 257.638 338.254C257.255 338.08 256.786 337.993 256.232 337.993H255.359V336.821H256.232C256.665 336.821 257.045 336.743 257.372 336.587C257.702 336.43 257.96 336.21 258.144 335.926C258.333 335.642 258.427 335.308 258.427 334.925C258.427 334.555 258.345 334.234 258.182 333.961C258.018 333.687 257.787 333.474 257.489 333.321C257.194 333.169 256.846 333.092 256.445 333.092C256.069 333.092 255.714 333.162 255.38 333.3C255.05 333.435 254.78 333.632 254.57 333.891C254.361 334.147 254.247 334.456 254.229 334.818H252.951C252.972 334.246 253.144 333.746 253.468 333.316C253.791 332.883 254.213 332.545 254.735 332.304C255.261 332.062 255.838 331.942 256.466 331.942C257.141 331.942 257.72 332.078 258.203 332.352C258.686 332.622 259.057 332.979 259.316 333.423C259.575 333.866 259.705 334.346 259.705 334.861C259.705 335.475 259.544 335.999 259.22 336.432C258.901 336.865 258.466 337.165 257.915 337.332V337.418C258.604 337.531 259.142 337.824 259.529 338.297C259.916 338.765 260.11 339.346 260.11 340.038C260.11 340.631 259.948 341.164 259.625 341.636C259.306 342.105 258.869 342.474 258.315 342.744C257.761 343.014 257.131 343.149 256.424 343.149ZM265.847 343.149C265.044 343.149 264.361 342.931 263.796 342.494C263.231 342.054 262.8 341.416 262.502 340.582C262.203 339.744 262.054 338.732 262.054 337.545C262.054 336.366 262.203 335.36 262.502 334.525C262.803 333.687 263.237 333.048 263.801 332.608C264.37 332.164 265.051 331.942 265.847 331.942C266.642 331.942 267.322 332.164 267.887 332.608C268.455 333.048 268.888 333.687 269.187 334.525C269.488 335.36 269.639 336.366 269.639 337.545C269.639 338.732 269.49 339.744 269.192 340.582C268.894 341.416 268.462 342.054 267.898 342.494C267.333 342.931 266.649 343.149 265.847 343.149ZM265.847 341.977C266.642 341.977 267.26 341.594 267.7 340.827C268.141 340.06 268.361 338.966 268.361 337.545C268.361 336.601 268.26 335.797 268.057 335.132C267.859 334.468 267.571 333.962 267.194 333.614C266.822 333.266 266.372 333.092 265.847 333.092C265.058 333.092 264.442 333.481 263.998 334.259C263.555 335.033 263.333 336.129 263.333 337.545C263.333 338.49 263.432 339.293 263.631 339.953C263.83 340.614 264.116 341.116 264.488 341.461C264.865 341.805 265.318 341.977 265.847 341.977Z" fill="black"/>
<path d="M307.264 332.091V343H305.943V333.476H305.879L303.216 335.244V333.902L305.943 332.091H307.264Z" fill="#CBD5E1"/>
<path d="M293.642 422.192C292.885 422.192 292.181 422.053 291.53 421.776C290.89 421.499 290.336 421.115 289.866 420.624C289.408 420.123 289.072 419.541 288.858 418.88L290.666 418.096C290.954 418.779 291.37 419.317 291.914 419.712C292.458 420.096 293.072 420.288 293.754 420.288C294.138 420.288 294.469 420.229 294.746 420.112C295.034 419.984 295.253 419.813 295.402 419.6C295.562 419.387 295.642 419.131 295.642 418.832C295.642 418.48 295.536 418.192 295.322 417.968C295.12 417.733 294.81 417.552 294.394 417.424L292.106 416.688C291.178 416.4 290.48 415.968 290.01 415.392C289.541 414.816 289.306 414.139 289.306 413.36C289.306 412.677 289.472 412.075 289.802 411.552C290.144 411.029 290.613 410.624 291.21 410.336C291.818 410.037 292.512 409.888 293.29 409.888C294.005 409.888 294.661 410.016 295.258 410.272C295.856 410.517 296.368 410.864 296.794 411.312C297.232 411.749 297.557 412.267 297.77 412.864L295.978 413.664C295.744 413.067 295.392 412.608 294.922 412.288C294.453 411.957 293.909 411.792 293.29 411.792C292.928 411.792 292.608 411.856 292.33 411.984C292.053 412.101 291.834 412.272 291.674 412.496C291.525 412.709 291.45 412.965 291.45 413.264C291.45 413.595 291.557 413.888 291.77 414.144C291.984 414.389 292.309 414.581 292.746 414.72L294.938 415.408C295.888 415.717 296.597 416.144 297.066 416.688C297.546 417.232 297.786 417.904 297.786 418.704C297.786 419.387 297.61 419.989 297.258 420.512C296.906 421.035 296.421 421.445 295.802 421.744C295.184 422.043 294.464 422.192 293.642 422.192ZM303.698 422.192C302.802 422.192 302.018 421.989 301.346 421.584C300.674 421.179 300.151 420.629 299.778 419.936C299.404 419.243 299.218 418.475 299.218 417.632C299.218 416.757 299.404 415.984 299.778 415.312C300.162 414.629 300.679 414.091 301.33 413.696C301.991 413.301 302.727 413.104 303.538 413.104C304.22 413.104 304.818 413.216 305.33 413.44C305.852 413.664 306.295 413.973 306.658 414.368C307.02 414.763 307.298 415.216 307.49 415.728C307.682 416.229 307.778 416.773 307.778 417.36C307.778 417.509 307.767 417.664 307.746 417.824C307.735 417.984 307.708 418.123 307.666 418.24H300.946V416.64H306.482L305.49 417.392C305.586 416.901 305.559 416.464 305.41 416.08C305.271 415.696 305.036 415.392 304.706 415.168C304.386 414.944 303.996 414.832 303.538 414.832C303.1 414.832 302.711 414.944 302.37 415.168C302.028 415.381 301.767 415.701 301.586 416.128C301.415 416.544 301.351 417.051 301.394 417.648C301.351 418.181 301.42 418.656 301.602 419.072C301.794 419.477 302.071 419.792 302.434 420.016C302.807 420.24 303.234 420.352 303.714 420.352C304.194 420.352 304.599 420.251 304.93 420.048C305.271 419.845 305.538 419.573 305.73 419.232L307.426 420.064C307.255 420.48 306.988 420.848 306.626 421.168C306.263 421.488 305.831 421.739 305.33 421.92C304.839 422.101 304.295 422.192 303.698 422.192ZM313.335 422.096C312.353 422.096 311.591 421.829 311.047 421.296C310.513 420.752 310.247 419.989 310.247 419.008V415.168H308.743V413.296H308.903C309.329 413.296 309.66 413.184 309.895 412.96C310.129 412.736 310.247 412.411 310.247 411.984V411.312H312.343V413.296H314.343V415.168H312.343V418.896C312.343 419.184 312.391 419.429 312.487 419.632C312.593 419.835 312.753 419.989 312.967 420.096C313.191 420.203 313.473 420.256 313.815 420.256C313.889 420.256 313.975 420.251 314.071 420.24C314.177 420.229 314.279 420.219 314.375 420.208V422C314.225 422.021 314.055 422.043 313.863 422.064C313.671 422.085 313.495 422.096 313.335 422.096Z" fill="#884C42"/>
<path d="M216.082 422.192C215.24 422.192 214.466 422.043 213.762 421.744C213.058 421.435 212.445 421.008 211.922 420.464C211.41 419.909 211.01 419.259 210.722 418.512C210.434 417.765 210.29 416.944 210.29 416.048C210.29 415.152 210.434 414.331 210.722 413.584C211.01 412.837 211.41 412.187 211.922 411.632C212.445 411.077 213.058 410.651 213.762 410.352C214.466 410.043 215.24 409.888 216.082 409.888C216.893 409.888 217.618 410.032 218.258 410.32C218.909 410.608 219.453 410.981 219.89 411.44C220.338 411.888 220.658 412.363 220.85 412.864L219.65 413.392C219.352 412.699 218.893 412.144 218.274 411.728C217.666 411.301 216.936 411.088 216.082 411.088C215.208 411.088 214.429 411.296 213.746 411.712C213.064 412.128 212.53 412.709 212.146 413.456C211.762 414.192 211.57 415.056 211.57 416.048C211.57 417.029 211.762 417.893 212.146 418.64C212.53 419.387 213.064 419.968 213.746 420.384C214.429 420.789 215.208 420.992 216.082 420.992C216.936 420.992 217.666 420.784 218.274 420.368C218.893 419.952 219.352 419.397 219.65 418.704L220.85 419.232C220.658 419.723 220.338 420.197 219.89 420.656C219.453 421.104 218.909 421.472 218.258 421.76C217.618 422.048 216.893 422.192 216.082 422.192ZM225.29 422.192C224.746 422.192 224.261 422.091 223.834 421.888C223.407 421.675 223.071 421.387 222.826 421.024C222.581 420.661 222.458 420.245 222.458 419.776C222.458 419.328 222.554 418.923 222.746 418.56C222.938 418.187 223.237 417.872 223.642 417.616C224.047 417.36 224.565 417.179 225.194 417.072L228.554 416.512V417.6L225.482 418.112C224.863 418.219 224.415 418.416 224.138 418.704C223.871 418.992 223.738 419.333 223.738 419.728C223.738 420.112 223.887 420.437 224.186 420.704C224.495 420.971 224.89 421.104 225.37 421.104C225.957 421.104 226.469 420.981 226.906 420.736C227.343 420.48 227.685 420.139 227.93 419.712C228.175 419.285 228.298 418.811 228.298 418.288V416.112C228.298 415.6 228.111 415.184 227.738 414.864C227.365 414.544 226.879 414.384 226.282 414.384C225.759 414.384 225.301 414.517 224.906 414.784C224.511 415.04 224.218 415.376 224.026 415.792L222.938 415.2C223.098 414.837 223.349 414.507 223.69 414.208C224.042 413.909 224.442 413.675 224.89 413.504C225.338 413.323 225.802 413.232 226.282 413.232C226.911 413.232 227.466 413.355 227.946 413.6C228.437 413.845 228.815 414.187 229.082 414.624C229.359 415.051 229.498 415.547 229.498 416.112V422H228.298V420.288L228.474 420.464C228.325 420.784 228.09 421.077 227.77 421.344C227.461 421.6 227.093 421.808 226.666 421.968C226.25 422.117 225.791 422.192 225.29 422.192ZM231.966 422V413.424H233.166V415.088L232.894 415.024C233.108 414.469 233.454 414.032 233.934 413.712C234.425 413.392 234.99 413.232 235.63 413.232C236.238 413.232 236.782 413.371 237.262 413.648C237.753 413.925 238.137 414.309 238.414 414.8C238.702 415.28 238.846 415.824 238.846 416.432V422H237.646V416.896C237.646 416.373 237.55 415.931 237.358 415.568C237.177 415.205 236.916 414.928 236.574 414.736C236.244 414.533 235.86 414.432 235.422 414.432C234.985 414.432 234.596 414.533 234.254 414.736C233.913 414.928 233.646 415.211 233.454 415.584C233.262 415.947 233.166 416.384 233.166 416.896V422H231.966ZM245.058 422.192C244.216 422.192 243.474 421.995 242.834 421.6C242.194 421.205 241.693 420.672 241.33 420C240.968 419.317 240.786 418.549 240.786 417.696C240.786 416.843 240.968 416.08 241.33 415.408C241.693 414.736 242.194 414.208 242.834 413.824C243.474 413.429 244.216 413.232 245.058 413.232C245.592 413.232 246.093 413.328 246.562 413.52C247.032 413.712 247.448 413.973 247.81 414.304C248.173 414.624 248.445 414.997 248.626 415.424L247.538 415.984C247.325 415.525 247 415.152 246.562 414.864C246.125 414.576 245.624 414.432 245.058 414.432C244.493 414.432 243.981 414.576 243.522 414.864C243.074 415.141 242.717 415.531 242.45 416.032C242.194 416.523 242.066 417.083 242.066 417.712C242.066 418.331 242.194 418.891 242.45 419.392C242.717 419.883 243.074 420.272 243.522 420.56C243.981 420.848 244.493 420.992 245.058 420.992C245.624 420.992 246.12 420.848 246.546 420.56C246.984 420.272 247.314 419.888 247.538 419.408L248.626 420C248.445 420.416 248.173 420.789 247.81 421.12C247.448 421.451 247.032 421.712 246.562 421.904C246.093 422.096 245.592 422.192 245.058 422.192ZM254.636 422.192C253.836 422.192 253.111 422 252.46 421.616C251.82 421.221 251.313 420.683 250.94 420C250.567 419.317 250.38 418.544 250.38 417.68C250.38 416.816 250.561 416.053 250.924 415.392C251.287 414.72 251.777 414.192 252.396 413.808C253.025 413.424 253.729 413.232 254.508 413.232C255.127 413.232 255.676 413.349 256.156 413.584C256.647 413.808 257.063 414.117 257.404 414.512C257.745 414.896 258.007 415.333 258.188 415.824C258.369 416.304 258.46 416.8 258.46 417.312C258.46 417.419 258.455 417.541 258.444 417.68C258.433 417.808 258.417 417.941 258.396 418.08H251.148V416.96H257.708L257.132 417.44C257.228 416.853 257.159 416.331 256.924 415.872C256.7 415.403 256.375 415.035 255.948 414.768C255.521 414.491 255.041 414.352 254.508 414.352C253.975 414.352 253.479 414.491 253.02 414.768C252.572 415.045 252.22 415.435 251.964 415.936C251.708 416.427 251.607 417.013 251.66 417.696C251.607 418.379 251.713 418.976 251.98 419.488C252.257 419.989 252.631 420.379 253.1 420.656C253.58 420.933 254.092 421.072 254.636 421.072C255.265 421.072 255.793 420.923 256.22 420.624C256.647 420.325 256.993 419.952 257.26 419.504L258.284 420.048C258.113 420.432 257.852 420.789 257.5 421.12C257.148 421.44 256.727 421.701 256.236 421.904C255.756 422.096 255.223 422.192 254.636 422.192ZM260.576 422V409.888H261.776V422H260.576Z" fill="#884C42"/>
</svg>
